<svg width="52" height="52" fill="none" xmlns="http://www.w3.org/2000/svg"><circle cx="25.912" cy="25.72" r="25.536" fill="#4E73D0"/><g clip-path="url(#a)" fill="#fff"><path d="M19.703 33.188a2.806 2.806 0 1 0 0 5.612 2.806 2.806 0 0 0 0-5.612Zm0 4.365a1.559 1.559 0 1 1 0-3.118 1.559 1.559 0 0 1 0 3.118Zm11.849-4.365a2.806 2.806 0 1 0 0 5.612 2.806 2.806 0 0 0 0-5.612Zm0 4.365a1.559 1.559 0 1 1 0-3.118 1.559 1.559 0 0 1 0 3.118Zm6.329-20.735a.78.78 0 0 0-.499-.25l-20.298-.28-.561-1.715a2.869 2.869 0 0 0-2.682-1.933h-2.089a.624.624 0 0 0 0 1.247h2.09c.677.015 1.274.45 1.496 1.091l3.96 11.943-.312.717a2.993 2.993 0 0 0 .28 2.712 2.9 2.9 0 0 0 2.34 1.31h12.128a.624.624 0 0 0 0-1.247H21.605a1.59 1.59 0 0 1-1.31-.749 1.71 1.71 0 0 1-.155-1.496l.25-.562 13.126-1.372a3.43 3.43 0 0 0 2.962-2.619l1.497-6.267a.53.53 0 0 0-.094-.53Zm-2.619 6.517a2.12 2.12 0 0 1-1.902 1.652l-12.97 1.341-2.9-8.793 19.113.28-1.34 5.52Z"/></g><defs><clipPath id="a"><path fill="#fff" transform="translate(11.128 12.28)" d="M0 0h26.88v26.88H0z"/></clipPath></defs></svg>