<svg width="52" height="52" fill="none" xmlns="http://www.w3.org/2000/svg"><circle cx="26.312" cy="25.72" r="25.536" fill="#4ED073"/><g clip-path="url(#a)" fill="#fff"><path d="M38.388 21.963c-1.159-.826-.41-.116-5.112-5.212a5.017 5.017 0 0 0-3.68-1.612H16.279a5.007 5.007 0 0 0-4.972 4.42l-1.105 9.388a2.405 2.405 0 0 0 2.388 2.685h.367a3.828 3.828 0 0 0 7.589 0h13.21a3.828 3.828 0 0 0 7.59 0c1.07 0 1.605.103 2.098-.45a1.35 1.35 0 0 0 .333-1.051l-.41-3.535a2.676 2.676 0 0 0-1.101-1.867L39.8 22.97l-1.413-1.008Zm-11.48-5.816h2.689a4.006 4.006 0 0 1 2.938 1.287c4.272 4.63 3.998 4.343 4.197 4.529h-3.683a5.076 5.076 0 0 1-4.495-2.707l-1.647-3.11ZM16.75 33.949a2.82 2.82 0 1 1 0-5.64 2.82 2.82 0 0 1 0 5.64Zm20.8 0a2.821 2.821 0 1 1 0-5.643 2.821 2.821 0 0 1 0 5.643Zm4.13-8.4a1.665 1.665 0 0 1 .685 1.162c.443 3.82.466 3.643.326 3.8-.133.15-.187.113-1.345.113-.6-4.532-7.022-4.303-7.592 0h-4.092V23.93h-1.008v6.694h-8.108c-.603-4.552-7.028-4.286-7.592 0-.372 0-.938.061-1.408-.468a1.398 1.398 0 0 1-.343-1.09l.372-3.17h7.047V24.89h-6.928l.613-5.212a4 4 0 0 1 3.97-3.53h9.49l1.896 3.58a6.08 6.08 0 0 0 5.386 3.244h5.016l3.614 2.578Z"/><path d="M31.382 24.623h2.566v1.008h-2.566v-1.008Z"/></g><defs><clipPath id="a"><path fill="#fff" transform="translate(10.185 8.248)" d="M0 0h33.6v33.6H0z"/></clipPath></defs></svg>