<svg width="52" height="52" fill="none" xmlns="http://www.w3.org/2000/svg"><circle cx="25.568" cy="26.048" r="25.536" fill="#21921F"/><g clip-path="url(#a)"><path d="M37.69 14.307A7.827 7.827 0 0 0 32.12 12c-2.104 0-4.083.82-5.571 2.307L14.306 26.551c-3.072 3.072-3.072 8.07 0 11.142A7.827 7.827 0 0 0 19.876 40c2.105 0 4.083-.82 5.572-2.307L37.69 25.449a7.827 7.827 0 0 0 2.307-5.57c0-2.105-.82-4.083-2.307-5.572Zm-13.408 22.22a6.19 6.19 0 0 1-4.405 1.825 6.19 6.19 0 0 1-4.406-1.825 6.237 6.237 0 0 1 0-8.811l5.54-5.539 8.81 8.811-5.539 5.54Zm12.243-12.243-5.538 5.539-8.812-8.811 5.54-5.54a6.21 6.21 0 0 1 4.405-1.821 6.21 6.21 0 0 1 4.405 1.822 6.237 6.237 0 0 1 0 8.811Z" fill="#fff"/></g><defs><clipPath id="a"><path fill="#fff" transform="translate(12 12)" d="M0 0h28v28H0z"/></clipPath></defs></svg>