<svg width="52" height="52" fill="none" xmlns="http://www.w3.org/2000/svg"><circle cx="26.136" cy="26.048" r="25.536" fill="#CD0364"/><g clip-path="url(#a)"><path d="m38.934 22.738-12.6-6.72a.42.42 0 0 0-.396 0l-12.6 6.72a.42.42 0 0 0 0 .74l3.558 1.898v5.292h.84v-4.844l1.26.672v2.552c-.723.187-1.26.84-1.26 1.62 0 .384.134.734.352 1.017a8.58 8.58 0 0 0-.352 2.411v1.192c0 .16.09.305.232.376l.464.232a2.209 2.209 0 0 0 1.967 0l.464-.233a.42.42 0 0 0 .233-.375v-1.192a8.58 8.58 0 0 0-.352-2.41 1.67 1.67 0 0 0 .352-1.018c0-.78-.538-1.433-1.26-1.62v-2.104l6.102 3.255a.424.424 0 0 0 .396 0l8.202-4.375v4.636a13.603 13.603 0 0 1-8.149 2.728h-.502c-1.442 0-2.868-.229-4.238-.68l-.262.798c1.454.479 2.968.722 4.5.722h.502a14.45 14.45 0 0 0 8.827-3.029.42.42 0 0 0 .162-.331v-5.292l3.558-1.898a.42.42 0 0 0 0-.74Zm-18.678 12.29-.233.116a1.38 1.38 0 0 1-1.215 0l-.232-.116v-.932c0-.631.077-1.257.228-1.867a1.639 1.639 0 0 0 1.223-.001 7.73 7.73 0 0 1 .229 1.868v.932Zm0-4.36a.84.84 0 1 1-1.682-.002.84.84 0 0 1 1.682.002Zm5.88-1.316-6.011-3.206 5.203-2.775c.239.097.511.157.808.157.942 0 1.68-.553 1.68-1.26 0-.706-.738-1.26-1.68-1.26s-1.68.554-1.68 1.26c0 .192.058.37.156.533l-5.38 2.869-4.804-2.562 11.708-6.244 11.707 6.244-11.707 6.244Zm-.84-7.084c0-.171.327-.42.84-.42.512 0 .84.249.84.42 0 .171-.328.42-.84.42-.513 0-.84-.249-.84-.42Z" fill="#fff"/></g><defs><clipPath id="a"><path fill="#fff" transform="translate(12.696 12.608)" d="M0 0h26.88v26.88H0z"/></clipPath></defs></svg>