<svg width="52" height="52" fill="none" xmlns="http://www.w3.org/2000/svg"><circle cx="26.192" cy="25.72" r="25.536" fill="#5AB42F"/><path d="M34.967 17.32H17.419a2.99 2.99 0 0 0-2.986 2.986v10.828a2.99 2.99 0 0 0 2.986 2.986h17.548a2.99 2.99 0 0 0 2.986-2.986V20.306a2.99 2.99 0 0 0-2.986-2.986Zm-17.548 1.12h17.548a1.868 1.868 0 0 1 1.866 1.866V21.8h-21.28v-1.494a1.868 1.868 0 0 1 1.866-1.866ZM34.966 33H17.419a1.868 1.868 0 0 1-1.866-1.866V22.92h21.28v8.214A1.868 1.868 0 0 1 34.967 33Z" fill="#fff"/><path d="M22.832 29.64h-4.48a.56.56 0 0 0 0 1.12h4.48a.56.56 0 0 0 0-1.12Z" fill="#fff"/></svg>