<svg width="248" height="236" fill="none" xmlns="http://www.w3.org/2000/svg"><g filter="url(#a)"><path stroke="#fff" d="m179.666 77.372-49-44"/></g><g filter="url(#b)"><circle cx="178.5" cy="78.5" r="9.5" fill="#fff"/><circle cx="178.5" cy="78.5" r="8.708" stroke="#0074C9" stroke-width="1.583"/></g><g filter="url(#c)"><rect x="24" y="18" width="131.75" height="31" rx="15.5" fill="#fff"/></g><g clip-path="url(#d)" fill="#0074C9"><path d="M44.885 31.79a1.278 1.278 0 1 0 0 2.555 1.278 1.278 0 0 0 0-2.555Zm0 1.917a.64.64 0 1 1 0-1.279.64.64 0 0 1 0 1.279Z"/><path d="M44.884 37.541a1.684 1.684 0 0 1-1.377-.702c-1.218-1.68-1.835-2.943-1.835-3.754a3.213 3.213 0 1 1 6.425 0c0 .81-.617 2.074-1.835 3.754a1.683 1.683 0 0 1-1.378.703Zm0-6.971a2.518 2.518 0 0 0-2.516 2.516c0 .642.605 1.83 1.703 3.344a1.006 1.006 0 0 0 1.627 0c1.097-1.514 1.702-2.702 1.702-3.344a2.519 2.519 0 0 0-2.516-2.516Z"/></g><path d="M55.917 33.702H54.88V36h-.515v-2.298H53.32L51.787 36h-.615l1.718-2.584-1.59-2.426h.573l1.439 2.247h1.052V30.99h.515v2.247h1.038l1.446-2.247h.573l-1.59 2.426L58.066 36h-.616l-1.532-2.298Zm4.648 0H59.42V36h-.516v-5.01h.516v2.247h1.145l1.696-2.247h.573l-1.861 2.433L62.94 36h-.608l-1.768-2.298Zm8.517-2.254H67.32V36h-.523v-4.552h-1.76v-.458h4.044v.458Zm.71.787h.508v2.992l2.512-2.992h.451V36h-.508v-2.992L70.25 36h-.458v-3.765ZM77.074 36l-1.195-1.575L74.677 36h-.573l1.489-1.932-1.418-1.833h.573l1.131 1.475 1.13-1.475h.56l-1.418 1.833L77.654 36h-.58Zm3.81-1.947c.511.12.767.427.767.924 0 .329-.122.582-.365.758-.244.177-.606.265-1.088.265h-1.711v-3.765h1.66c.43 0 .766.084 1.01.25a.816.816 0 0 1 .365.716.84.84 0 0 1-.172.53.985.985 0 0 1-.465.322Zm-1.903-.143h1.13c.292 0 .514-.055.666-.165a.548.548 0 0 0 .237-.48c0-.21-.08-.367-.236-.472-.153-.105-.375-.157-.666-.157H78.98v1.274Zm1.195 1.69c.325 0 .568-.053.73-.158.162-.105.244-.27.244-.494 0-.224-.074-.39-.222-.494-.148-.11-.382-.165-.702-.165h-1.245v1.31h1.195Zm2.666-3.365h.508v2.992l2.512-2.992h.451V36h-.508v-2.992L83.3 36h-.458v-3.765Zm4.927 0h.509v1.668h2.369v-1.668h.508V36h-.508v-1.66h-2.37V36h-.508v-3.765Zm6.405 3.8c-.372 0-.706-.08-1.002-.243a1.775 1.775 0 0 1-.687-.68 1.989 1.989 0 0 1-.25-.994c0-.368.083-.697.25-.988.167-.291.396-.518.687-.68a2.05 2.05 0 0 1 1.002-.244c.325 0 .613.065.866.194.258.124.46.308.609.55l-.38.258a1.16 1.16 0 0 0-.472-.415 1.374 1.374 0 0 0-.623-.143 1.47 1.47 0 0 0-.737.186c-.215.12-.384.291-.508.516-.12.224-.18.48-.18.766 0 .29.06.548.18.773.124.22.293.39.508.515.22.12.465.179.737.179.224 0 .432-.046.623-.136.19-.09.348-.23.472-.415l.38.257c-.148.244-.351.43-.609.559a1.97 1.97 0 0 1-.866.186ZM98 34.326h-.86V36h-.507v-3.765h.508v1.654h.866l1.324-1.654h.551l-1.481 1.825L99.99 36h-.602L98 34.325Zm2.792-2.09h.508v2.992l2.512-2.992h.451V36h-.508v-2.992L101.25 36h-.458v-3.765Zm4.927 0h.509v2.992l2.512-2.992h.451V36h-.508v-2.992L106.178 36h-.459v-3.765Zm1.711-.544c-.324 0-.582-.081-.773-.243-.191-.163-.289-.392-.293-.687h.365a.593.593 0 0 0 .2.45c.129.11.296.165.501.165a.747.747 0 0 0 .501-.164.586.586 0 0 0 .208-.451h.365c-.005.296-.105.524-.301.687-.191.162-.448.243-.773.243Zm6.458 2.634h-.859V36h-.508v-3.765h.508v1.654h.866l1.324-1.654h.551l-1.482 1.825 1.589 1.94h-.601l-1.388-1.675Zm5.189-.272c.511.12.766.427.766.924 0 .329-.122.582-.365.758-.243.177-.606.265-1.088.265h-1.711v-3.765h1.661c.43 0 .766.084 1.009.25a.816.816 0 0 1 .365.716.842.842 0 0 1-.171.53.985.985 0 0 1-.466.322Zm-1.904-.143h1.131c.291 0 .513-.055.666-.165a.549.549 0 0 0 .236-.48.53.53 0 0 0-.236-.472c-.153-.105-.375-.157-.666-.157h-1.131v1.274Zm1.196 1.69c.324 0 .568-.053.73-.158.162-.105.243-.27.243-.494 0-.224-.074-.39-.222-.494-.148-.11-.382-.165-.701-.165h-1.246v1.31h1.196Zm3.961-3.394c.491 0 .868.124 1.131.373.262.243.393.606.393 1.088V36h-.486v-.587a1.163 1.163 0 0 1-.509.458c-.219.11-.482.165-.787.165-.42 0-.754-.1-1.002-.3a.971.971 0 0 1-.372-.795c0-.32.114-.578.343-.773.234-.196.604-.294 1.11-.294h1.195v-.229c0-.324-.091-.57-.272-.737-.181-.172-.446-.258-.794-.258-.239 0-.468.04-.688.122a1.682 1.682 0 0 0-.565.322l-.229-.38c.191-.162.42-.286.687-.371a2.61 2.61 0 0 1 .845-.137Zm-.179 3.429c.286 0 .532-.064.737-.193.205-.134.358-.325.458-.573v-.615h-1.181c-.644 0-.966.224-.966.672 0 .22.083.394.25.523.167.124.401.186.702.186Zm4.996-3.428c.353 0 .673.08.959.243.286.157.51.382.673.673.162.29.243.622.243.995 0 .377-.081.71-.243 1.002a1.747 1.747 0 0 1-.673.68 1.931 1.931 0 0 1-.959.236c-.306 0-.582-.062-.83-.186a1.603 1.603 0 0 1-.602-.559v2.098h-.508v-5.154h.487v.745c.153-.249.353-.44.601-.573.253-.134.537-.2.852-.2Zm-.036 3.378c.262 0 .501-.06.716-.18a1.28 1.28 0 0 0 .501-.522c.124-.224.186-.48.186-.765 0-.287-.062-.54-.186-.76a1.293 1.293 0 0 0-.501-.522 1.408 1.408 0 0 0-.716-.186 1.42 1.42 0 0 0-.723.186c-.21.124-.377.299-.501.523-.119.22-.179.472-.179.759 0 .286.06.541.179.765.124.225.291.399.501.523.215.12.456.179.723.179Zm5.511-2.899h-1.424V36h-.508v-3.314h-1.424v-.45h3.356v.45Zm2.031-.48c.491 0 .868.124 1.131.373.262.243.393.606.393 1.088V36h-.486v-.587a1.163 1.163 0 0 1-.509.458c-.219.11-.482.165-.787.165-.42 0-.754-.1-1.002-.3a.971.971 0 0 1-.372-.795c0-.32.114-.578.343-.773.234-.196.604-.294 1.11-.294h1.195v-.229c0-.324-.091-.57-.272-.737-.181-.172-.446-.258-.794-.258-.239 0-.468.04-.687.122-.22.076-.408.184-.566.322l-.229-.38c.191-.162.42-.286.687-.371a2.61 2.61 0 0 1 .845-.137Zm-.179 3.429c.286 0 .532-.064.737-.193.205-.134.358-.325.458-.573v-.615h-1.181c-.644 0-.966.224-.966.672 0 .22.083.394.25.523.167.124.401.186.702.186Zm6.134-3.4V36h-.508v-3.314h-1.804l-.05.93c-.038.783-.129 1.384-.272 1.804-.143.42-.399.63-.766.63-.1 0-.222-.019-.365-.057l.036-.437a.98.98 0 0 0 .179.029.48.48 0 0 0 .444-.272c.1-.181.167-.406.2-.673s.062-.62.086-1.06l.064-1.345h2.756Z" fill="#000"/><g filter="url(#e)"><path stroke="#fff" d="M119.383 177.415 64.78 214.232"/></g><g filter="url(#f)"><circle cx="61" cy="213.5" r="9.5" fill="#fff"/><circle cx="61" cy="213.5" r="8.708" stroke="#0074C9" stroke-width="1.583"/></g><g filter="url(#g)"><rect x="92.5" y="169" width="131.75" height="31" rx="15.5" fill="#fff"/></g><g clip-path="url(#h)" fill="#0074C9"><path d="M113.384 182.79a1.275 1.275 0 0 0-1.253 1.527 1.277 1.277 0 0 0 2.316.461 1.273 1.273 0 0 0-.159-1.614 1.276 1.276 0 0 0-.904-.374Zm0 1.917a.642.642 0 0 1-.59-.395.638.638 0 0 1 .466-.871.639.639 0 1 1 .124 1.266Z"/><path d="M113.384 188.541a1.684 1.684 0 0 1-1.377-.702c-1.218-1.68-1.836-2.943-1.836-3.754a3.216 3.216 0 0 1 3.213-3.213 3.215 3.215 0 0 1 3.213 3.213c0 .811-.617 2.074-1.835 3.754a1.692 1.692 0 0 1-1.378.702Zm0-6.971a2.518 2.518 0 0 0-2.516 2.516c0 .642.605 1.83 1.703 3.344a1.01 1.01 0 0 0 .813.414 1.008 1.008 0 0 0 .814-.414c1.098-1.514 1.702-2.702 1.702-3.344a2.52 2.52 0 0 0-2.516-2.516Z"/></g><path d="m123.698 183.085-1.883 4.216c-.153.353-.329.604-.53.751-.2.148-.441.222-.723.222a1.46 1.46 0 0 1-.508-.086 1.11 1.11 0 0 1-.408-.257l.237-.38c.19.191.419.287.687.287a.678.678 0 0 0 .436-.143c.124-.096.239-.258.344-.487l.164-.365-1.682-3.758h.53l1.417 3.2 1.417-3.2h.502Zm3.701 0v3.765h-.508v-3.314h-1.804l-.05.931c-.038.782-.129 1.383-.272 1.803-.143.42-.398.63-.766.63-.1 0-.221-.019-.365-.057l.036-.437c.086.019.146.029.179.029a.48.48 0 0 0 .444-.272c.1-.181.167-.406.2-.673.034-.267.062-.62.086-1.059l.065-1.346h2.755Zm1.481 3.801a.369.369 0 0 1-.272-.115.39.39 0 0 1-.108-.279c0-.11.036-.2.108-.272a.372.372 0 0 1 .272-.114c.105 0 .195.038.272.114a.358.358 0 0 1 .114.272.38.38 0 0 1-.114.279.37.37 0 0 1-.272.115Zm5.666.007c-.496 0-.945-.11-1.346-.329a2.457 2.457 0 0 1-.937-.909 2.582 2.582 0 0 1-.337-1.31c0-.482.112-.916.337-1.303a2.43 2.43 0 0 1 .944-.916c.401-.219.85-.329 1.346-.329.372 0 .716.062 1.031.186.315.124.582.305.801.544l-.336.336c-.391-.396-.885-.594-1.482-.594-.396 0-.756.091-1.08.272-.325.181-.58.43-.766.745a2.075 2.075 0 0 0-.272 1.059c0 .391.09.744.272 1.059.186.315.441.563.766.745.324.181.684.272 1.08.272.602 0 1.095-.201 1.482-.602l.336.337a2.205 2.205 0 0 1-.808.551 2.792 2.792 0 0 1-1.031.186Zm5.355-3.357h-1.424v3.314h-.509v-3.314h-1.424v-.451h3.357v.451Zm2.03-.48c.492 0 .869.125 1.131.373.263.243.394.606.394 1.088v2.333h-.487v-.587a1.159 1.159 0 0 1-.508.458c-.22.11-.482.165-.787.165-.42 0-.754-.1-1.002-.301a.968.968 0 0 1-.373-.794c0-.32.115-.578.344-.773.234-.196.604-.294 1.109-.294h1.196v-.229c0-.324-.091-.57-.272-.737-.182-.172-.446-.258-.795-.258-.238 0-.467.041-.687.122a1.682 1.682 0 0 0-.565.322l-.229-.379a1.96 1.96 0 0 1 .687-.373c.267-.09.548-.136.844-.136Zm-.179 3.429c.287 0 .532-.064.738-.193.205-.134.357-.325.458-.573v-.615h-1.181c-.645 0-.967.224-.967.672 0 .22.084.394.251.523.167.124.401.186.701.186Zm3.057-3.4h.508v1.668h2.369v-1.668h.508v3.765h-.508v-1.661h-2.369v1.661h-.508v-3.765Zm4.83 0h.508v2.992l2.512-2.992h.451v3.765h-.508v-2.992l-2.505 2.992h-.458v-3.765Zm6.502 3.801c-.372 0-.706-.081-1.002-.244a1.768 1.768 0 0 1-.687-.68 1.984 1.984 0 0 1-.251-.994c0-.368.084-.697.251-.988.167-.291.396-.518.687-.68.296-.162.63-.244 1.002-.244.325 0 .613.065.866.194.258.124.461.308.609.551l-.38.258a1.156 1.156 0 0 0-.472-.416 1.38 1.38 0 0 0-.623-.143 1.47 1.47 0 0 0-.737.186c-.215.12-.384.291-.508.516-.12.224-.179.479-.179.766 0 .291.059.548.179.773.124.219.293.391.508.515.219.119.465.179.737.179.224 0 .432-.045.623-.136a1.16 1.16 0 0 0 .472-.415l.38.257c-.148.244-.351.43-.609.559a1.968 1.968 0 0 1-.866.186Zm5.411-3.801v3.765h-.509v-3.314h-1.803l-.05.931c-.039.782-.129 1.383-.272 1.803-.144.42-.399.63-.766.63-.1 0-.222-.019-.365-.057l.035-.437c.086.019.146.029.179.029a.48.48 0 0 0 .444-.272c.1-.181.167-.406.201-.673.033-.267.062-.62.086-1.059l.064-1.346h2.756Zm2.74-.029c.491 0 .868.125 1.131.373.262.243.393.606.393 1.088v2.333h-.486v-.587a1.162 1.162 0 0 1-.509.458c-.219.11-.481.165-.787.165-.42 0-.754-.1-1.002-.301a.97.97 0 0 1-.372-.794c0-.32.114-.578.343-.773.234-.196.604-.294 1.11-.294h1.195v-.229c0-.324-.09-.57-.272-.737-.181-.172-.446-.258-.794-.258-.239 0-.468.041-.687.122-.22.076-.408.184-.566.322l-.229-.379c.191-.163.42-.287.687-.373a2.63 2.63 0 0 1 .845-.136Zm-.179 3.429c.286 0 .532-.064.737-.193.205-.134.358-.325.458-.573v-.615h-1.181c-.644 0-.966.224-.966.672 0 .22.083.394.25.523.167.124.401.186.702.186Zm5.454-1.582c.511.119.766.427.766.923 0 .33-.122.583-.365.759-.244.177-.606.265-1.088.265h-1.711v-3.765h1.661c.429 0 .766.084 1.009.251a.816.816 0 0 1 .365.715.836.836 0 0 1-.172.53.985.985 0 0 1-.465.322Zm-1.904-.143h1.131c.291 0 .513-.055.666-.165a.547.547 0 0 0 .236-.479c0-.21-.079-.368-.236-.473-.153-.105-.375-.157-.666-.157h-1.131v1.274Zm1.195 1.689c.325 0 .568-.052.73-.157.163-.105.244-.27.244-.494 0-.224-.074-.389-.222-.494-.148-.11-.382-.165-.702-.165h-1.245v1.31h1.195Zm4.241.437c-.373 0-.707-.081-1.003-.244a1.768 1.768 0 0 1-.687-.68 1.983 1.983 0 0 1-.25-.994c0-.368.083-.697.25-.988.167-.291.396-.518.687-.68.296-.162.63-.244 1.003-.244.324 0 .613.065.866.194.257.124.46.308.608.551l-.379.258a1.158 1.158 0 0 0-.473-.416 1.377 1.377 0 0 0-.622-.143c-.272 0-.518.062-.738.186-.214.12-.384.291-.508.516a1.607 1.607 0 0 0-.179.766c0 .291.06.548.179.773.124.219.294.391.508.515.22.119.466.179.738.179.224 0 .431-.045.622-.136.191-.091.349-.229.473-.415l.379.257c-.148.244-.351.43-.608.559a1.975 1.975 0 0 1-.866.186Zm3.825-1.711h-.859v1.675h-.508v-3.765h.508v1.654h.866l1.324-1.654h.552l-1.482 1.825 1.589 1.94h-.601l-1.389-1.675Zm4.212 1.711c-.362 0-.689-.081-.98-.244a1.827 1.827 0 0 1-.687-.687 1.947 1.947 0 0 1-.251-.987c0-.368.084-.697.251-.988.167-.291.396-.518.687-.68.291-.162.618-.244.98-.244.363 0 .69.082.981.244.291.162.518.389.68.68.167.291.25.62.25.988 0 .367-.083.696-.25.987-.162.291-.389.52-.68.687a1.972 1.972 0 0 1-.981.244Zm0-.451c.268 0 .506-.06.716-.179.215-.124.382-.298.501-.523.119-.224.179-.479.179-.765 0-.287-.06-.542-.179-.766a1.24 1.24 0 0 0-.501-.516 1.38 1.38 0 0 0-.716-.186 1.42 1.42 0 0 0-.723.186c-.21.12-.377.291-.501.516a1.607 1.607 0 0 0-.179.766c0 .286.06.541.179.765.124.225.291.399.501.523.215.119.456.179.723.179Zm5.66-2.899h-2.154v3.314h-.508v-3.765h2.662v.451Zm2.113 3.35c-.363 0-.689-.081-.981-.244a1.827 1.827 0 0 1-.687-.687 1.947 1.947 0 0 1-.25-.987c0-.368.083-.697.25-.988.167-.291.396-.518.687-.68.292-.162.618-.244.981-.244s.69.082.981.244c.291.162.517.389.68.68.167.291.25.62.25.988 0 .367-.083.696-.25.987-.163.291-.389.52-.68.687a1.972 1.972 0 0 1-.981.244Zm0-.451c.267 0 .506-.06.716-.179.215-.124.382-.298.501-.523.119-.224.179-.479.179-.765 0-.287-.06-.542-.179-.766a1.24 1.24 0 0 0-.501-.516 1.382 1.382 0 0 0-.716-.186 1.42 1.42 0 0 0-.723.186c-.21.12-.377.291-.501.516a1.607 1.607 0 0 0-.179.766c0 .286.06.541.179.765.124.225.291.399.501.523.215.119.456.179.723.179Zm5.908-4.595v5.01h-.515v-4.552h-1.181v-.458h1.696Zm3.274 2.011c.329 0 .62.062.873.186a1.411 1.411 0 0 1 .816 1.317c0 .305-.074.575-.222.809a1.483 1.483 0 0 1-.616.544 1.984 1.984 0 0 1-.873.186c-.663 0-1.171-.217-1.524-.651-.353-.439-.53-1.057-.53-1.854 0-.558.095-1.031.286-1.417.191-.387.458-.678.802-.874.344-.2.744-.3 1.202-.3.497 0 .893.09 1.189.272l-.208.415c-.239-.158-.563-.236-.973-.236-.554 0-.988.176-1.303.529-.315.349-.472.857-.472 1.525 0 .119.007.255.021.408.124-.272.322-.482.594-.63.272-.153.585-.229.938-.229Zm-.043 2.605c.362 0 .656-.097.88-.293.229-.201.344-.465.344-.795 0-.329-.115-.591-.344-.787-.224-.196-.53-.293-.916-.293a1.51 1.51 0 0 0-.673.143 1.13 1.13 0 0 0-.451.393.995.995 0 0 0-.164.559c0 .191.05.367.15.529.105.163.258.294.458.394.2.1.439.15.716.15Zm4.209-5.633h.466l-2.362 6.743h-.466l2.362-6.743Zm2.192 1.017v5.01h-.515v-4.552h-1.181v-.458h1.696Z" fill="#000"/><defs><filter id="a" x="126.332" y="33" width="57.668" height="52.744" filterUnits="userSpaceOnUse" color-interpolation-filters="sRGB"><feFlood flood-opacity="0" result="BackgroundImageFix"/><feColorMatrix in="SourceAlpha" values="0 0 0 0 0 0 0 0 0 0 0 0 0 0 0 0 0 0 127 0" result="hardAlpha"/><feOffset dy="4"/><feGaussianBlur stdDeviation="2"/><feColorMatrix values="0 0 0 0 0 0 0 0 0 0 0 0 0 0 0 0 0 0 0.25 0"/><feBlend in2="BackgroundImageFix" result="effect1_dropShadow_0_1"/><feBlend in="SourceGraphic" in2="effect1_dropShadow_0_1" result="shape"/></filter><filter id="b" x="162.667" y="69" width="31.667" height="31.667" filterUnits="userSpaceOnUse" color-interpolation-filters="sRGB"><feFlood flood-opacity="0" result="BackgroundImageFix"/><feColorMatrix in="SourceAlpha" values="0 0 0 0 0 0 0 0 0 0 0 0 0 0 0 0 0 0 127 0" result="hardAlpha"/><feOffset dy="6.333"/><feGaussianBlur stdDeviation="3.167"/><feColorMatrix values="0 0 0 0 0 0 0 0 0 0 0 0 0 0 0 0 0 0 0.25 0"/><feBlend in2="BackgroundImageFix" result="effect1_dropShadow_0_1"/><feBlend in="SourceGraphic" in2="effect1_dropShadow_0_1" result="shape"/></filter><filter id="c" x=".75" y=".95" width="178.25" height="77.5" filterUnits="userSpaceOnUse" color-interpolation-filters="sRGB"><feFlood flood-opacity="0" result="BackgroundImageFix"/><feColorMatrix in="SourceAlpha" values="0 0 0 0 0 0 0 0 0 0 0 0 0 0 0 0 0 0 127 0" result="hardAlpha"/><feMorphology radius="3.1" operator="dilate" in="SourceAlpha" result="effect1_dropShadow_0_1"/><feOffset dy="6.2"/><feGaussianBlur stdDeviation="10.075"/><feComposite in2="hardAlpha" operator="out"/><feColorMatrix values="0 0 0 0 0 0 0 0 0 0.454902 0 0 0 0 0.788235 0 0 0 0.22 0"/><feBlend in2="BackgroundImageFix" result="effect1_dropShadow_0_1"/><feBlend in="SourceGraphic" in2="effect1_dropShadow_0_1" result="shape"/></filter><filter id="e" x="60.5" y="177" width="63.162" height="45.647" filterUnits="userSpaceOnUse" color-interpolation-filters="sRGB"><feFlood flood-opacity="0" result="BackgroundImageFix"/><feColorMatrix in="SourceAlpha" values="0 0 0 0 0 0 0 0 0 0 0 0 0 0 0 0 0 0 127 0" result="hardAlpha"/><feOffset dy="4"/><feGaussianBlur stdDeviation="2"/><feColorMatrix values="0 0 0 0 0 0 0 0 0 0 0 0 0 0 0 0 0 0 0.25 0"/><feBlend in2="BackgroundImageFix" result="effect1_dropShadow_0_1"/><feBlend in="SourceGraphic" in2="effect1_dropShadow_0_1" result="shape"/></filter><filter id="f" x="45.167" y="204" width="31.667" height="31.667" filterUnits="userSpaceOnUse" color-interpolation-filters="sRGB"><feFlood flood-opacity="0" result="BackgroundImageFix"/><feColorMatrix in="SourceAlpha" values="0 0 0 0 0 0 0 0 0 0 0 0 0 0 0 0 0 0 127 0" result="hardAlpha"/><feOffset dy="6.333"/><feGaussianBlur stdDeviation="3.167"/><feColorMatrix values="0 0 0 0 0 0 0 0 0 0 0 0 0 0 0 0 0 0 0.25 0"/><feBlend in2="BackgroundImageFix" result="effect1_dropShadow_0_1"/><feBlend in="SourceGraphic" in2="effect1_dropShadow_0_1" result="shape"/></filter><filter id="g" x="69.25" y="151.95" width="178.25" height="77.5" filterUnits="userSpaceOnUse" color-interpolation-filters="sRGB"><feFlood flood-opacity="0" result="BackgroundImageFix"/><feColorMatrix in="SourceAlpha" values="0 0 0 0 0 0 0 0 0 0 0 0 0 0 0 0 0 0 127 0" result="hardAlpha"/><feMorphology radius="3.1" operator="dilate" in="SourceAlpha" result="effect1_dropShadow_0_1"/><feOffset dy="6.2"/><feGaussianBlur stdDeviation="10.075"/><feComposite in2="hardAlpha" operator="out"/><feColorMatrix values="0 0 0 0 0 0 0 0 0 0.454902 0 0 0 0 0.788235 0 0 0 0.22 0"/><feBlend in2="BackgroundImageFix" result="effect1_dropShadow_0_1"/><feBlend in="SourceGraphic" in2="effect1_dropShadow_0_1" result="shape"/></filter><clipPath id="d"><path fill="#fff" transform="translate(41.05 29.873)" d="M0 0h7.669v7.669H0z"/></clipPath><clipPath id="h"><path fill="#fff" transform="translate(109.55 180.873)" d="M0 0h7.669v7.669H0z"/></clipPath></defs></svg>