<svg width="344" height="344" fill="none" xmlns="http://www.w3.org/2000/svg"><g clip-path="url(#a)" fill="#fff"><path d="m205.903 120.432-22.465 10.752c-17.119 8.193-25.226 27.711-19.665 45.313-7.013 6.125-9.414 16.406-5.203 25.205l4.132 8.633-4.407 2.11a6.078 6.078 0 0 0 5.247 10.964l4.408-2.11 22.276 46.547c5.064 10.58 17.79 15.068 28.37 10.004 10.579-5.063 15.067-17.789 10.004-28.369l-22.277-46.547 1.42-.679a6.078 6.078 0 0 0-5.247-10.964l-1.42.679-4.132-8.633a21.133 21.133 0 0 0-12.117-10.877 21.169 21.169 0 0 0-9.87-1.031c-2.922-11.538 2.588-23.95 13.728-29.281l22.464-10.752a6.077 6.077 0 1 0-5.246-10.964Zm11.733 134.296c2.17 4.534.247 9.988-4.288 12.158-4.534 2.17-9.988.247-12.158-4.287l-22.277-46.547 16.446-7.871 22.277 46.547Zm-31.656-66.144 4.132 8.634-16.446 7.87-4.132-8.634c-2.17-4.534-.246-9.988 4.288-12.158a9.054 9.054 0 0 1 6.963-.373 9.06 9.06 0 0 1 5.195 4.661Zm37.191-76.416-1.097.525a6.078 6.078 0 0 0 5.248 10.964l1.096-.525a6.076 6.076 0 0 0 2.858-8.105 6.076 6.076 0 0 0-8.105-2.859Z" opacity=".07"/><path d="m216.475 46.765-3.935-8.224c-3.208-6.701-11.271-9.542-17.976-6.334L42.359 105.051c-6.702 3.207-9.544 11.268-6.337 17.969l3.89 8.13-19.208 9.193a6.078 6.078 0 0 0 5.247 10.964l19.209-9.193 3.888 8.125c3.208 6.704 11.27 9.549 17.972 6.342l152.206-72.844c6.705-3.209 9.548-11.273 6.34-17.978l-3.828-7.997c11.85-4.206 25.246 1.14 30.793 12.73 2.872 6.002 3.235 12.765 1.021 19.043-2.214 6.278-6.739 11.318-12.74 14.19l-2.007.96a6.078 6.078 0 0 0 5.247 10.964l2.007-.96c8.93-4.274 15.662-11.772 18.956-21.111 3.293-9.34 2.754-19.402-1.52-28.332-8.442-17.638-29.101-25.55-47.02-18.481Zm-2.496 26.008L61.773 145.617a1.324 1.324 0 0 1-1.761-.626l-13.026-27.218a1.32 1.32 0 0 1 .62-1.758l152.206-72.844a1.323 1.323 0 0 1 1.764.617l13.026 27.218c.315.66.035 1.452-.623 1.767Z" opacity=".07"/></g><defs><clipPath id="a"><path fill="#fff" opacity=".07" transform="rotate(-25.575 244.884 55.58)" d="M0 0h257.499v257.499H0z"/></clipPath></defs></svg>