<svg width="54" height="55" fill="none" xmlns="http://www.w3.org/2000/svg"><circle cx="26.852" cy="27.66" r="26.808" fill="#fff"/><path d="M41.523 19.052H12.18a3.15 3.15 0 0 0-3.142 3.142v10.933a3.15 3.15 0 0 0 3.142 3.141h.345a2.872 2.872 0 0 0 3.33 2.262 2.681 2.681 0 0 0 1.76-1.13c.91 1.287 2.702 1.57 3.99.628.596-.409.973-1.069 1.13-1.76h12.818a2.887 2.887 0 0 0 3.362 2.262 2.848 2.848 0 0 0 2.262-2.262h.346a3.15 3.15 0 0 0 3.141-3.141V22.194a3.13 3.13 0 0 0-3.142-3.142Zm-31.385 4.556h14.168c.472 0 .849.377.849.848v2.921a.845.845 0 0 1-.849.849H10.138v-4.618Zm5.183 13.885a1.756 1.756 0 0 1-1.759-1.759c0-.974.785-1.76 1.76-1.76.973 0 1.759.786 1.759 1.76 0 .943-.786 1.728-1.76 1.76Zm4.618 0a1.756 1.756 0 0 1-1.759-1.759c0-.974.786-1.76 1.76-1.76.973 0 1.759.786 1.759 1.76 0 .943-.786 1.728-1.76 1.76Zm8.609-2.324v-9.52c0-1.13.91-2.041 2.042-2.041 1.13 0 2.042.91 2.042 2.041v9.52h-4.084Zm9.833 2.325c-.974 0-1.76-.786-1.76-1.76s.786-1.76 1.76-1.76 1.76.786 1.76 1.76a1.843 1.843 0 0 1-1.76 1.76Zm3.142-2.325h-.346s-.063-.22-.094-.377a2.881 2.881 0 0 0-2.702-1.948c-1.414 0-2.576 1.068-2.796 2.293h-1.822V25.65a3.15 3.15 0 0 0-3.142-3.141 3.15 3.15 0 0 0-3.142 3.142v9.519h-4.712c-.346-1.508-1.477-2.294-2.796-2.294-.943 0-1.79.471-2.294 1.163-.534-.754-1.413-1.163-2.293-1.163-1.414 0-2.576 1.037-2.796 2.294h-.345a2.038 2.038 0 0 1-2.043-2.042v-3.77h14.17c1.067 0 1.947-.88 1.947-1.948v-2.922c0-1.068-.88-1.948-1.948-1.948H10.138v-.314c0-1.13.91-2.042 2.042-2.042h29.343c1.13 0 2.041.911 2.041 2.042v.314h-6.66c-1.068 0-1.948.88-1.948 1.948v2.922c0 1.068.88 1.948 1.948 1.948h6.692v3.77c-.031 1.13-.942 2.042-2.073 2.042Zm2.073-6.912h-6.692a.845.845 0 0 1-.848-.848v-2.922c0-.471.377-.848.848-.848h6.692v4.618Z" fill="#F83A16"/></svg>