<svg width="52" height="52" fill="none" xmlns="http://www.w3.org/2000/svg"><circle cx="26.192" cy="26.048" r="25.536" fill="#878787"/><g clip-path="url(#a)"><path d="m23.828 31.147-.446.446a.394.394 0 1 0 .557.557l.445-.446a.394.394 0 0 0-.556-.557Zm-3.057-2.611a.394.394 0 0 0-.42.365 1.54 1.54 0 0 0 1.643 1.643.394.394 0 1 0-.054-.786.754.754 0 0 1-.803-.803.394.394 0 0 0-.366-.42Zm16.797-15.21a2.458 2.458 0 0 0-3.472 0c-1.613 1.614-2.797.572-4.004 1.176a1.8 1.8 0 0 0-1.133-.301.394.394 0 0 0 .058.785 1.01 1.01 0 0 1 .658.185c1.987 1.415 4.632 4.06 6.05 6.049.286.403.24.95-.111 1.302l-1.371 1.37a7.435 7.435 0 0 0-.813-1.558l.737-.736a.394.394 0 0 0-.557-.557l-.648.648a19.715 19.715 0 0 0-1.508-1.691l.727-.727a.394.394 0 1 0-.557-.557l-.727.727a19.733 19.733 0 0 0-1.69-1.509l.647-.647a.394.394 0 0 0-.557-.557l-.736.737a7.428 7.428 0 0 0-1.559-.813l.726-.726a.394.394 0 0 0-.557-.557l-1.041 1.042a4.698 4.698 0 0 0-1.331-.058c-2.385.239-3.719 2.395-4.896 4.298-1.278 2.067-1.508 2.341-3.619 3.623-1.423.864-3.036 1.843-4.506 3.964-1.433 2.067 1.633 5.681 3.415 7.464 1.787 1.786 5.4 4.846 7.464 3.415.55-.38 1.04-.782 1.5-1.227a.394.394 0 1 0-.548-.566c-.429.415-.887.79-1.4 1.146-1.366.947-4.333-1.2-6.459-3.325-2.125-2.126-4.272-5.093-3.325-6.458 1.375-1.984 2.912-2.917 4.268-3.74 2.238-1.359 2.548-1.728 3.88-3.882.458-.74.941-1.52 1.498-2.191 2.312.558 3.784 2.206 4.156 4.665.453 2.996 2.118 5.89 3.792 6.587l.078.03c-2.372 1.474-2.708 1.672-4.149 4.046-.349.575-.71 1.17-1.157 1.77a.394.394 0 1 0 .631.471c.47-.63.84-1.242 1.2-1.832 1.283-2.115 1.561-2.345 3.622-3.62 2.157-1.333 4.842-2.977 4.24-6.226l1.687-1.686a1.793 1.793 0 0 0 .222-2.276c.605-1.21-.44-2.389 1.175-4.004.96-.96.96-2.513 0-3.472Zm-6.22 16.012c-1.373.903-3.554-2.05-4.235-5.325 3.729 1.09 5.622 4.342 4.235 5.325Zm2.41-3.32c-.09.897-.539 1.638-1.165 2.28-.06-1.232-.998-2.456-1.93-3.258-.726-.626-1.947-1.446-3.702-1.884-.474-2.575-2.065-4.257-4.283-4.932.623-.585 1.34-1.001 2.199-1.087 2.206-.221 4.159 1.554 5.743 3.138 1.598 1.598 3.357 3.553 3.138 5.743Zm3.253-9.776c-1.559 1.559-1.11 2.879-1.207 3.78a32.334 32.334 0 0 0-4.93-4.931c.9-.097 2.22.351 3.78-1.207a1.667 1.667 0 1 1 2.358 2.358ZM19.191 26.51l-.445.446a.394.394 0 0 0 .556.557l.446-.446a.394.394 0 0 0-.557-.556Z" fill="#fff"/></g><defs><clipPath id="a"><path fill="#fff" transform="translate(11.408 12.608)" d="M0 0h26.88v26.88H0z"/></clipPath></defs></svg>