<svg width="52" height="52" fill="none" xmlns="http://www.w3.org/2000/svg"><circle cx="26.136" cy="25.72" r="25.536" fill="#6ABAD3"/><g clip-path="url(#a)" fill="#fff"><path d="M26.137 30.76a.56.56 0 0 1-.43-.202c-3.897-4.677-3.897-10.04 0-14.717a.579.579 0 0 1 .86 0c3.896 4.677 3.896 10.04 0 14.717a.56.56 0 0 1-.43.202Zm0-13.66c-2.996 3.955-2.996 8.245 0 12.2 2.996-3.955 2.996-8.245 0-12.2Zm-.001 18.7a.56.56 0 0 1-.43-.202c-.916-1.1-1.628-2.26-2.116-3.45a.56.56 0 0 1 1.036-.425c.364.892.87 1.769 1.509 2.615a11.811 11.811 0 0 0 1.509-2.615.56.56 0 1 1 1.036.425c-.488 1.19-1.199 2.35-2.116 3.45a.553.553 0 0 1-.428.202Z"/><path d="M26.147 30.749a.56.56 0 0 1-.05-1.118c5.322-.493 8.248-3.215 8.926-8.316-2.45.33-4.372 1.19-5.72 2.558a.56.56 0 1 1-.799-.786c1.664-1.687 4.053-2.684 7.102-2.965a.554.554 0 0 1 .447.162.566.566 0 0 1 .163.446c-.55 6.083-3.92 9.452-10.015 10.017-.02.002-.037.002-.054.002Z"/><path d="M32.303 33.567c-2.173 0-4.347-.826-6.507-2.479a.56.56 0 1 1 .68-.89c3.915 2.996 7.728 3 11.642.01-1.777-1.353-3.557-2.095-5.299-2.209a.561.561 0 0 1-.522-.596.544.544 0 0 1 .596-.522c2.158.142 4.34 1.116 6.48 2.895a.558.558 0 0 1 .002.86c-2.344 1.954-4.709 2.93-7.072 2.93Z"/><path d="M19.97 33.567c-2.364 0-4.728-.977-7.072-2.93a.557.557 0 0 1 .001-.861c2.141-1.779 4.322-2.753 6.48-2.895a.545.545 0 0 1 .596.522.56.56 0 0 1-.522.596c-1.742.114-3.522.857-5.298 2.209 3.912 2.99 7.726 2.986 11.642-.01a.56.56 0 1 1 .68.89c-2.16 1.652-4.334 2.479-6.507 2.479Z"/><path d="M26.126 30.749c-.018 0-.034 0-.052-.002-6.095-.565-9.466-3.935-10.015-10.017a.56.56 0 0 1 .609-.608c3.05.28 5.438 1.278 7.102 2.965a.56.56 0 0 1-.799.786c-1.348-1.367-3.27-2.227-5.72-2.558.676 5.1 3.603 7.823 8.926 8.316a.56.56 0 0 1-.05 1.118Z"/></g><defs><clipPath id="a"><path fill="#fff" transform="translate(12.696 12.28)" d="M0 0h26.88v26.88H0z"/></clipPath></defs></svg>