<svg width="52" height="52" fill="none" xmlns="http://www.w3.org/2000/svg"><circle cx="26.312" cy="26.048" r="25.536" fill="#C16AD7"/><g clip-path="url(#a)" fill="#fff"><path d="M12.873 28.008v9.016c0 1.344 1.12 2.464 2.52 2.464h9.016c.784 0 1.456-.392 1.96-.952.448.56 1.176.952 1.96.952h9.016c1.4 0 2.52-1.12 2.52-2.52v-8.96c0-1.4-1.12-2.52-2.52-2.52h-4.368c.28-.392.392-.896.392-1.4v-8.96c-.056-1.4-1.176-2.52-2.576-2.52h-8.96a2.51 2.51 0 0 0-2.52 2.52v9.016c0 .504.168 1.008.392 1.4h-4.312c-1.4-.056-2.52 1.064-2.52 2.464Zm14 0c0-.784.616-1.4 1.4-1.4h9.016c.784 0 1.4.616 1.4 1.4v9.016c0 .784-.616 1.4-1.4 1.4h-9.016c-.784 0-1.4-.616-1.4-1.4v-9.016Zm-5.04-2.52c-.784 0-1.4-.616-1.4-1.4v-8.96c0-.784.616-1.4 1.4-1.4h8.96c.784 0 1.4.616 1.4 1.4v9.016c0 .784-.616 1.4-1.4 1.4h-8.96v-.056Zm-7.84 2.52c0-.784.616-1.4 1.4-1.4h9.016c.784 0 1.4.616 1.4 1.4v9.016c0 .784-.616 1.4-1.4 1.4h-9.016c-.784-.056-1.4-.672-1.4-1.456v-8.96Z"/><path d="M23.4 22.8c-.112.28.056.616.336.728.056 0 .112.056.168.056a.538.538 0 0 0 .504-.392l.672-1.848h2.352l.672 1.848c.112.28.448.448.728.336.28-.112.448-.448.336-.728l-2.352-6.72a.538.538 0 0 0-.504-.392.538.538 0 0 0-.504.392L23.4 22.8Zm2.128-2.632.784-2.24.784 2.24h-1.568Zm-5.431 8.4h-2.128c-.336 0-.56.224-.56.56v6.72c0 .336.224.56.56.56h2.128a2.247 2.247 0 0 0 2.24-2.24c0-.672-.28-1.288-.784-1.68.448-.392.784-1.008.784-1.68a2.247 2.247 0 0 0-2.24-2.24Zm0 6.72h-1.568v-2.24h1.568c.616 0 1.12.504 1.12 1.12 0 .616-.504 1.12-1.12 1.12Zm0-3.36h-1.568v-2.24h1.568c.616 0 1.12.504 1.12 1.12 0 .616-.504 1.12-1.12 1.12Zm13.16-2.24c.728 0 1.456.28 1.96.84.224.224.56.224.784 0a.541.541 0 0 0 0-.784 3.987 3.987 0 0 0-2.8-1.176c-1.064 0-2.016.392-2.744 1.176-.728.784-1.176 1.736-1.176 2.744 0 1.064.392 2.016 1.176 2.744a3.853 3.853 0 0 0 2.744 1.12 4.135 4.135 0 0 0 2.8-1.12.541.541 0 0 0 0-.784.541.541 0 0 0-.784 0c-1.064 1.12-2.856 1.12-3.976 0-.504-.504-.84-1.232-.84-1.96s.28-1.456.84-1.96a2.75 2.75 0 0 1 2.016-.84Z"/></g><defs><clipPath id="a"><path fill="#fff" transform="translate(12.873 12.608)" d="M0 0h26.88v26.88H0z"/></clipPath></defs></svg>