<svg width="248" height="236" fill="none" xmlns="http://www.w3.org/2000/svg"><g filter="url(#a)"><path stroke="#fff" d="m179.666 77.372-49-44"/></g><g filter="url(#b)"><circle cx="178.5" cy="78.5" r="9.5" fill="#fff"/><circle cx="178.5" cy="78.5" r="8.708" stroke="#0074C9" stroke-width="1.583"/></g><g filter="url(#c)"><rect x="24" y="18" width="131.75" height="31" rx="15.5" fill="#fff"/></g><g clip-path="url(#d)" fill="#0074C9"><path d="M44.884 31.79a1.278 1.278 0 1 0 0 2.555 1.278 1.278 0 0 0 0-2.555Zm0 1.917a.64.64 0 1 1 0-1.278.64.64 0 0 1 0 1.278Z"/><path d="M44.884 37.541a1.684 1.684 0 0 1-1.377-.702c-1.218-1.68-1.836-2.943-1.836-3.754a3.213 3.213 0 0 1 6.426 0c0 .81-.617 2.074-1.835 3.754a1.684 1.684 0 0 1-1.378.703Zm0-6.971a2.519 2.519 0 0 0-2.516 2.516c0 .642.605 1.83 1.703 3.344a1.005 1.005 0 0 0 1.627 0c1.097-1.514 1.702-2.702 1.702-3.344a2.52 2.52 0 0 0-2.516-2.516Z"/></g><path d="m55.197 32.085-1.882 4.216c-.153.353-.33.604-.53.752-.2.147-.441.221-.722.221-.182 0-.351-.028-.509-.086a1.102 1.102 0 0 1-.408-.257l.236-.38c.191.191.42.287.688.287a.677.677 0 0 0 .436-.143c.124-.096.239-.258.344-.487l.164-.365-1.682-3.758h.53l1.417 3.2 1.417-3.2h.502Zm3.702 0v3.765h-.508v-3.314h-1.804l-.05.93c-.038.783-.129 1.384-.272 1.804-.143.42-.398.63-.766.63-.1 0-.221-.019-.365-.057l.036-.437a.92.92 0 0 0 .18.029.48.48 0 0 0 .443-.272c.1-.181.167-.406.2-.673.034-.267.062-.62.086-1.06l.065-1.345h2.755Zm1.48 3.8a.372.372 0 0 1-.271-.114.394.394 0 0 1-.108-.279c0-.11.036-.2.108-.272a.372.372 0 0 1 .272-.114c.105 0 .195.038.272.114a.357.357 0 0 1 .114.272.38.38 0 0 1-.114.28.372.372 0 0 1-.272.114Zm5.667.008c-.496 0-.945-.11-1.346-.33a2.452 2.452 0 0 1-.937-.908 2.587 2.587 0 0 1-.337-1.31c0-.482.112-.916.337-1.303.229-.391.544-.697.944-.916.401-.22.85-.33 1.346-.33.372 0 .716.063 1.03.187.316.124.583.305.802.544l-.336.336c-.391-.396-.885-.594-1.482-.594-.396 0-.756.09-1.08.272-.325.181-.58.43-.766.744a2.085 2.085 0 0 0-.272 1.06c0 .391.09.744.272 1.06.186.314.441.562.766.744.324.18.684.272 1.08.272.602 0 1.096-.2 1.482-.602l.336.337c-.22.238-.489.422-.808.55a2.789 2.789 0 0 1-1.031.187Zm5.355-3.357h-1.424v3.314h-.508v-3.314h-1.425v-.45h3.357v.45Zm2.03-.48c.492 0 .869.125 1.131.373.263.243.394.606.394 1.088v2.333h-.487v-.587a1.163 1.163 0 0 1-.508.458c-.22.11-.482.165-.787.165-.42 0-.754-.1-1.002-.3a.97.97 0 0 1-.373-.795c0-.32.115-.578.344-.773.234-.196.604-.294 1.11-.294h1.195v-.229c0-.324-.091-.57-.272-.737-.182-.172-.447-.258-.795-.258-.238 0-.467.04-.687.122-.22.076-.408.184-.565.322l-.23-.38a1.97 1.97 0 0 1 .688-.371 2.61 2.61 0 0 1 .844-.136Zm-.179 3.429c.287 0 .532-.064.738-.193.205-.134.358-.325.458-.573v-.615h-1.181c-.644 0-.967.224-.967.672 0 .22.084.394.25.523.168.124.402.186.702.186Zm3.057-3.4h.508v1.668h2.37v-1.668h.507v3.765h-.508v-1.66h-2.37v1.66h-.507v-3.765Zm4.83 0h.508v2.992l2.512-2.992h.451v3.765h-.508v-2.992l-2.505 2.992h-.458v-3.765Zm6.502 3.8c-.372 0-.706-.08-1.002-.243a1.776 1.776 0 0 1-.687-.68 1.989 1.989 0 0 1-.25-.994c0-.368.083-.697.25-.988.167-.291.396-.518.687-.68a2.05 2.05 0 0 1 1.002-.243c.325 0 .613.064.866.193.258.124.46.307.609.55l-.38.259a1.16 1.16 0 0 0-.472-.416 1.373 1.373 0 0 0-.623-.143c-.272 0-.517.062-.737.186-.215.12-.384.291-.508.516-.12.224-.18.48-.18.766 0 .29.06.548.18.773.124.22.293.39.508.515.22.12.465.179.737.179.224 0 .432-.046.623-.136.19-.09.348-.23.472-.415l.38.257c-.148.244-.351.43-.609.559a1.97 1.97 0 0 1-.866.186Zm5.41-3.8v3.765h-.508v-3.314H90.74l-.05.93c-.039.783-.13 1.384-.272 1.804-.144.42-.399.63-.766.63-.1 0-.222-.019-.365-.057l.035-.437a.92.92 0 0 0 .18.029.48.48 0 0 0 .443-.272c.1-.181.167-.406.2-.673.034-.267.063-.62.087-1.06l.064-1.345h2.756Zm2.74-.029c.492 0 .87.125 1.132.373.262.243.393.606.393 1.088v2.333h-.486v-.587a1.162 1.162 0 0 1-.509.458c-.22.11-.481.165-.787.165-.42 0-.754-.1-1.002-.3a.97.97 0 0 1-.372-.795c0-.32.114-.578.343-.773.234-.196.604-.294 1.11-.294h1.195v-.229c0-.324-.09-.57-.272-.737-.181-.172-.446-.258-.794-.258-.239 0-.468.04-.687.122-.22.076-.408.184-.566.322l-.229-.38c.19-.162.42-.286.687-.371a2.61 2.61 0 0 1 .845-.136Zm-.178 3.429c.286 0 .532-.064.737-.193.205-.134.358-.325.458-.573v-.615h-1.18c-.645 0-.967.224-.967.672 0 .22.083.394.25.523.167.124.401.186.702.186Zm5.454-1.582c.511.12.766.427.766.924 0 .329-.122.582-.365.758-.244.177-.606.265-1.088.265h-1.71v-3.765h1.66c.429 0 .766.084 1.009.25a.817.817 0 0 1 .365.716.837.837 0 0 1-.172.53.987.987 0 0 1-.465.322Zm-1.904-.143h1.131c.291 0 .513-.055.666-.165a.549.549 0 0 0 .236-.48.53.53 0 0 0-.236-.472c-.153-.105-.375-.157-.666-.157h-1.13v1.274Zm1.195 1.69c.325 0 .568-.053.73-.158.163-.105.244-.27.244-.494 0-.224-.074-.389-.222-.494-.148-.11-.382-.165-.702-.165h-1.245v1.31h1.195Zm4.241.436a2.05 2.05 0 0 1-1.003-.244 1.775 1.775 0 0 1-.687-.68 1.988 1.988 0 0 1-.25-.994c0-.368.083-.697.25-.988.167-.291.396-.518.687-.68.296-.162.63-.243 1.003-.243.324 0 .613.064.866.193.257.124.46.307.608.55l-.379.259a1.16 1.16 0 0 0-.473-.416 1.371 1.371 0 0 0-.622-.143c-.272 0-.518.062-.738.186-.214.12-.384.291-.508.516a1.61 1.61 0 0 0-.179.766c0 .29.06.548.179.773.124.22.294.39.508.515.22.12.466.179.738.179.224 0 .431-.046.622-.136.191-.09.349-.23.473-.415l.379.257c-.148.244-.351.43-.608.559a1.973 1.973 0 0 1-.866.186Zm3.825-1.71h-.859v1.674h-.508v-3.765h.508v1.654h.866l1.324-1.654h.552l-1.482 1.825 1.589 1.94h-.601l-1.389-1.675Zm4.212 1.71c-.362 0-.689-.081-.98-.244a1.827 1.827 0 0 1-.687-.687 1.95 1.95 0 0 1-.251-.987c0-.368.084-.697.251-.988.167-.291.396-.518.687-.68a1.98 1.98 0 0 1 .98-.243c.363 0 .69.08.981.243.291.162.518.389.68.68.167.29.25.62.25.988 0 .367-.083.696-.25.987-.162.291-.389.52-.68.687a1.98 1.98 0 0 1-.981.244Zm0-.451c.268 0 .506-.06.716-.18.215-.123.382-.297.501-.522.119-.224.179-.48.179-.765 0-.287-.06-.542-.179-.766a1.239 1.239 0 0 0-.501-.516 1.379 1.379 0 0 0-.716-.186 1.42 1.42 0 0 0-.723.186c-.21.12-.377.291-.501.516a1.61 1.61 0 0 0-.179.766c0 .286.06.541.179.765.124.225.291.399.501.523.215.12.456.179.723.179Zm5.66-2.899h-2.154v3.314h-.508v-3.765h2.662v.451Zm2.113 3.35c-.363 0-.689-.081-.981-.244a1.827 1.827 0 0 1-.687-.687 1.949 1.949 0 0 1-.25-.987c0-.368.083-.697.25-.988.167-.291.396-.518.687-.68.292-.162.618-.243.981-.243s.69.08.981.243c.291.162.517.389.68.68.167.29.25.62.25.988 0 .367-.083.696-.25.987a1.78 1.78 0 0 1-.68.687 1.98 1.98 0 0 1-.981.244Zm0-.451c.267 0 .506-.06.716-.18.215-.123.382-.297.501-.522.119-.224.179-.48.179-.765 0-.287-.06-.542-.179-.766a1.239 1.239 0 0 0-.501-.516 1.381 1.381 0 0 0-.716-.186 1.42 1.42 0 0 0-.723.186c-.21.12-.377.291-.501.516a1.61 1.61 0 0 0-.179.766c0 .286.06.541.179.765.124.225.291.399.501.523.215.12.456.179.723.179Zm5.908-4.595v5.01h-.515v-4.552h-1.181v-.458h1.696Zm3.274 2.011c.329 0 .62.062.873.186a1.405 1.405 0 0 1 .816 1.317c0 .306-.074.575-.222.809a1.483 1.483 0 0 1-.616.544 1.984 1.984 0 0 1-.873.186c-.663 0-1.171-.217-1.524-.651-.353-.44-.53-1.057-.53-1.854 0-.558.095-1.03.286-1.417.191-.387.458-.678.802-.874.344-.2.744-.3 1.202-.3.497 0 .893.09 1.189.272l-.208.415c-.239-.158-.563-.236-.973-.236-.554 0-.988.176-1.303.53-.315.348-.472.856-.472 1.524 0 .12.007.255.021.408.124-.272.322-.482.594-.63.272-.153.585-.229.938-.229Zm-.043 2.605c.362 0 .656-.098.88-.293.229-.2.344-.465.344-.795 0-.329-.115-.591-.344-.787-.224-.196-.53-.293-.916-.293a1.51 1.51 0 0 0-.673.143 1.135 1.135 0 0 0-.451.393.992.992 0 0 0-.164.559c0 .19.05.367.15.53.105.162.258.293.458.393.2.1.439.15.716.15Zm4.209-5.633h.466l-2.362 6.743h-.466l2.362-6.743Zm2.192 1.017v5.01h-.515v-4.552h-1.181v-.458h1.696Z" fill="#000"/><g filter="url(#e)"><path stroke="#fff" d="M119.383 177.415 64.78 214.232"/></g><g filter="url(#f)"><circle cx="61" cy="213.5" r="9.5" fill="#fff"/><circle cx="61" cy="213.5" r="8.708" stroke="#0074C9" stroke-width="1.583"/></g><g filter="url(#g)"><rect x="92.5" y="169" width="131.75" height="31" rx="15.5" fill="#fff"/></g><g clip-path="url(#h)" fill="#0074C9"><path d="M113.384 182.79a1.275 1.275 0 0 0-1.253 1.527 1.277 1.277 0 0 0 2.316.461 1.273 1.273 0 0 0-.159-1.614 1.276 1.276 0 0 0-.904-.374Zm0 1.917a.642.642 0 0 1-.59-.395.638.638 0 0 1 .466-.871.639.639 0 1 1 .124 1.266Z"/><path d="M113.384 188.541a1.684 1.684 0 0 1-1.377-.702c-1.218-1.68-1.836-2.943-1.836-3.754a3.216 3.216 0 0 1 3.213-3.213 3.215 3.215 0 0 1 3.213 3.213c0 .811-.617 2.074-1.835 3.754a1.692 1.692 0 0 1-1.378.702Zm0-6.971a2.518 2.518 0 0 0-2.516 2.516c0 .642.605 1.83 1.703 3.344a1.01 1.01 0 0 0 .813.414 1.008 1.008 0 0 0 .814-.414c1.098-1.514 1.702-2.702 1.702-3.344a2.52 2.52 0 0 0-2.516-2.516Z"/></g><path d="m123.698 183.085-1.883 4.216c-.153.353-.329.604-.53.751-.2.148-.441.222-.723.222a1.46 1.46 0 0 1-.508-.086 1.11 1.11 0 0 1-.408-.257l.237-.38c.19.191.419.287.687.287a.678.678 0 0 0 .436-.143c.124-.096.239-.258.344-.487l.164-.365-1.682-3.758h.53l1.417 3.2 1.417-3.2h.502Zm3.701 0v3.765h-.508v-3.314h-1.804l-.05.931c-.038.782-.129 1.383-.272 1.803-.143.42-.398.63-.766.63-.1 0-.221-.019-.365-.057l.036-.437c.086.019.146.029.179.029a.48.48 0 0 0 .444-.272c.1-.181.167-.406.2-.673.034-.267.062-.62.086-1.059l.065-1.346h2.755Zm1.481 3.801a.369.369 0 0 1-.272-.115.39.39 0 0 1-.108-.279c0-.11.036-.2.108-.272a.372.372 0 0 1 .272-.114c.105 0 .195.038.272.114a.358.358 0 0 1 .114.272.38.38 0 0 1-.114.279.37.37 0 0 1-.272.115Zm5.666.007c-.496 0-.945-.11-1.346-.329a2.457 2.457 0 0 1-.937-.909 2.582 2.582 0 0 1-.337-1.31c0-.482.112-.916.337-1.303a2.43 2.43 0 0 1 .944-.916c.401-.219.85-.329 1.346-.329.372 0 .716.062 1.031.186.315.124.582.305.801.544l-.336.336c-.391-.396-.885-.594-1.482-.594-.396 0-.756.091-1.08.272-.325.181-.58.43-.766.745a2.075 2.075 0 0 0-.272 1.059c0 .391.09.744.272 1.059.186.315.441.563.766.745.324.181.684.272 1.08.272.602 0 1.095-.201 1.482-.602l.336.337a2.205 2.205 0 0 1-.808.551 2.792 2.792 0 0 1-1.031.186Zm5.355-3.357h-1.424v3.314h-.509v-3.314h-1.424v-.451h3.357v.451Zm2.03-.48c.492 0 .869.125 1.131.373.263.243.394.606.394 1.088v2.333h-.487v-.587a1.159 1.159 0 0 1-.508.458c-.22.11-.482.165-.787.165-.42 0-.754-.1-1.002-.301a.968.968 0 0 1-.373-.794c0-.32.115-.578.344-.773.234-.196.604-.294 1.109-.294h1.196v-.229c0-.324-.091-.57-.272-.737-.182-.172-.446-.258-.795-.258-.238 0-.467.041-.687.122a1.682 1.682 0 0 0-.565.322l-.229-.379a1.96 1.96 0 0 1 .687-.373c.267-.09.548-.136.844-.136Zm-.179 3.429c.287 0 .532-.064.738-.193.205-.134.357-.325.458-.573v-.615h-1.181c-.645 0-.967.224-.967.672 0 .22.084.394.251.523.167.124.401.186.701.186Zm3.057-3.4h.508v1.668h2.369v-1.668h.508v3.765h-.508v-1.661h-2.369v1.661h-.508v-3.765Zm4.83 0h.508v2.992l2.512-2.992h.451v3.765h-.508v-2.992l-2.505 2.992h-.458v-3.765Zm6.502 3.801c-.372 0-.706-.081-1.002-.244a1.768 1.768 0 0 1-.687-.68 1.984 1.984 0 0 1-.251-.994c0-.368.084-.697.251-.988.167-.291.396-.518.687-.68.296-.162.63-.244 1.002-.244.325 0 .613.065.866.194.258.124.461.308.609.551l-.38.258a1.156 1.156 0 0 0-.472-.416 1.38 1.38 0 0 0-.623-.143 1.47 1.47 0 0 0-.737.186c-.215.12-.384.291-.508.516-.12.224-.179.479-.179.766 0 .291.059.548.179.773.124.219.293.391.508.515.219.119.465.179.737.179.224 0 .432-.045.623-.136a1.16 1.16 0 0 0 .472-.415l.38.257c-.148.244-.351.43-.609.559a1.968 1.968 0 0 1-.866.186Zm5.411-3.801v3.765h-.509v-3.314h-1.803l-.05.931c-.039.782-.129 1.383-.272 1.803-.144.42-.399.63-.766.63-.1 0-.222-.019-.365-.057l.035-.437c.086.019.146.029.179.029a.48.48 0 0 0 .444-.272c.1-.181.167-.406.201-.673.033-.267.062-.62.086-1.059l.064-1.346h2.756Zm2.74-.029c.491 0 .868.125 1.131.373.262.243.393.606.393 1.088v2.333h-.486v-.587a1.162 1.162 0 0 1-.509.458c-.219.11-.481.165-.787.165-.42 0-.754-.1-1.002-.301a.97.97 0 0 1-.372-.794c0-.32.114-.578.343-.773.234-.196.604-.294 1.11-.294h1.195v-.229c0-.324-.09-.57-.272-.737-.181-.172-.446-.258-.794-.258-.239 0-.468.041-.687.122-.22.076-.408.184-.566.322l-.229-.379c.191-.163.42-.287.687-.373a2.63 2.63 0 0 1 .845-.136Zm-.179 3.429c.286 0 .532-.064.737-.193.205-.134.358-.325.458-.573v-.615h-1.181c-.644 0-.966.224-.966.672 0 .22.083.394.25.523.167.124.401.186.702.186Zm5.454-1.582c.511.119.766.427.766.923 0 .33-.122.583-.365.759-.244.177-.606.265-1.088.265h-1.711v-3.765h1.661c.429 0 .766.084 1.009.251a.816.816 0 0 1 .365.715.836.836 0 0 1-.172.53.985.985 0 0 1-.465.322Zm-1.904-.143h1.131c.291 0 .513-.055.666-.165a.547.547 0 0 0 .236-.479c0-.21-.079-.368-.236-.473-.153-.105-.375-.157-.666-.157h-1.131v1.274Zm1.195 1.689c.325 0 .568-.052.73-.157.163-.105.244-.27.244-.494 0-.224-.074-.389-.222-.494-.148-.11-.382-.165-.702-.165h-1.245v1.31h1.195Zm4.241.437c-.373 0-.707-.081-1.003-.244a1.768 1.768 0 0 1-.687-.68 1.983 1.983 0 0 1-.25-.994c0-.368.083-.697.25-.988.167-.291.396-.518.687-.68.296-.162.63-.244 1.003-.244.324 0 .613.065.866.194.257.124.46.308.608.551l-.379.258a1.158 1.158 0 0 0-.473-.416 1.377 1.377 0 0 0-.622-.143c-.272 0-.518.062-.738.186-.214.12-.384.291-.508.516a1.607 1.607 0 0 0-.179.766c0 .291.06.548.179.773.124.219.294.391.508.515.22.119.466.179.738.179.224 0 .431-.045.622-.136.191-.091.349-.229.473-.415l.379.257c-.148.244-.351.43-.608.559a1.975 1.975 0 0 1-.866.186Zm3.825-1.711h-.859v1.675h-.508v-3.765h.508v1.654h.866l1.324-1.654h.552l-1.482 1.825 1.589 1.94h-.601l-1.389-1.675Zm4.212 1.711c-.362 0-.689-.081-.98-.244a1.827 1.827 0 0 1-.687-.687 1.947 1.947 0 0 1-.251-.987c0-.368.084-.697.251-.988.167-.291.396-.518.687-.68.291-.162.618-.244.98-.244.363 0 .69.082.981.244.291.162.518.389.68.68.167.291.25.62.25.988 0 .367-.083.696-.25.987-.162.291-.389.52-.68.687a1.972 1.972 0 0 1-.981.244Zm0-.451c.268 0 .506-.06.716-.179.215-.124.382-.298.501-.523.119-.224.179-.479.179-.765 0-.287-.06-.542-.179-.766a1.24 1.24 0 0 0-.501-.516 1.38 1.38 0 0 0-.716-.186 1.42 1.42 0 0 0-.723.186c-.21.12-.377.291-.501.516a1.607 1.607 0 0 0-.179.766c0 .286.06.541.179.765.124.225.291.399.501.523.215.119.456.179.723.179Zm5.66-2.899h-2.154v3.314h-.508v-3.765h2.662v.451Zm2.113 3.35c-.363 0-.689-.081-.981-.244a1.827 1.827 0 0 1-.687-.687 1.947 1.947 0 0 1-.25-.987c0-.368.083-.697.25-.988.167-.291.396-.518.687-.68.292-.162.618-.244.981-.244s.69.082.981.244c.291.162.517.389.68.68.167.291.25.62.25.988 0 .367-.083.696-.25.987-.163.291-.389.52-.68.687a1.972 1.972 0 0 1-.981.244Zm0-.451c.267 0 .506-.06.716-.179.215-.124.382-.298.501-.523.119-.224.179-.479.179-.765 0-.287-.06-.542-.179-.766a1.24 1.24 0 0 0-.501-.516 1.382 1.382 0 0 0-.716-.186 1.42 1.42 0 0 0-.723.186c-.21.12-.377.291-.501.516a1.607 1.607 0 0 0-.179.766c0 .286.06.541.179.765.124.225.291.399.501.523.215.119.456.179.723.179Zm5.908-4.595v5.01h-.515v-4.552h-1.181v-.458h1.696Zm3.274 2.011c.329 0 .62.062.873.186a1.411 1.411 0 0 1 .816 1.317c0 .305-.074.575-.222.809a1.483 1.483 0 0 1-.616.544 1.984 1.984 0 0 1-.873.186c-.663 0-1.171-.217-1.524-.651-.353-.439-.53-1.057-.53-1.854 0-.558.095-1.031.286-1.417.191-.387.458-.678.802-.874.344-.2.744-.3 1.202-.3.497 0 .893.09 1.189.272l-.208.415c-.239-.158-.563-.236-.973-.236-.554 0-.988.176-1.303.529-.315.349-.472.857-.472 1.525 0 .119.007.255.021.408.124-.272.322-.482.594-.63.272-.153.585-.229.938-.229Zm-.043 2.605c.362 0 .656-.097.88-.293.229-.201.344-.465.344-.795 0-.329-.115-.591-.344-.787-.224-.196-.53-.293-.916-.293a1.51 1.51 0 0 0-.673.143 1.13 1.13 0 0 0-.451.393.995.995 0 0 0-.164.559c0 .191.05.367.15.529.105.163.258.294.458.394.2.1.439.15.716.15Zm4.209-5.633h.466l-2.362 6.743h-.466l2.362-6.743Zm2.192 1.017v5.01h-.515v-4.552h-1.181v-.458h1.696Z" fill="#000"/><defs><filter id="a" x="126.332" y="33" width="57.668" height="52.744" filterUnits="userSpaceOnUse" color-interpolation-filters="sRGB"><feFlood flood-opacity="0" result="BackgroundImageFix"/><feColorMatrix in="SourceAlpha" values="0 0 0 0 0 0 0 0 0 0 0 0 0 0 0 0 0 0 127 0" result="hardAlpha"/><feOffset dy="4"/><feGaussianBlur stdDeviation="2"/><feColorMatrix values="0 0 0 0 0 0 0 0 0 0 0 0 0 0 0 0 0 0 0.25 0"/><feBlend in2="BackgroundImageFix" result="effect1_dropShadow_0_1"/><feBlend in="SourceGraphic" in2="effect1_dropShadow_0_1" result="shape"/></filter><filter id="b" x="162.667" y="69" width="31.667" height="31.667" filterUnits="userSpaceOnUse" color-interpolation-filters="sRGB"><feFlood flood-opacity="0" result="BackgroundImageFix"/><feColorMatrix in="SourceAlpha" values="0 0 0 0 0 0 0 0 0 0 0 0 0 0 0 0 0 0 127 0" result="hardAlpha"/><feOffset dy="6.333"/><feGaussianBlur stdDeviation="3.167"/><feColorMatrix values="0 0 0 0 0 0 0 0 0 0 0 0 0 0 0 0 0 0 0.25 0"/><feBlend in2="BackgroundImageFix" result="effect1_dropShadow_0_1"/><feBlend in="SourceGraphic" in2="effect1_dropShadow_0_1" result="shape"/></filter><filter id="c" x=".75" y=".95" width="178.25" height="77.5" filterUnits="userSpaceOnUse" color-interpolation-filters="sRGB"><feFlood flood-opacity="0" result="BackgroundImageFix"/><feColorMatrix in="SourceAlpha" values="0 0 0 0 0 0 0 0 0 0 0 0 0 0 0 0 0 0 127 0" result="hardAlpha"/><feMorphology radius="3.1" operator="dilate" in="SourceAlpha" result="effect1_dropShadow_0_1"/><feOffset dy="6.2"/><feGaussianBlur stdDeviation="10.075"/><feComposite in2="hardAlpha" operator="out"/><feColorMatrix values="0 0 0 0 0 0 0 0 0 0.454902 0 0 0 0 0.788235 0 0 0 0.22 0"/><feBlend in2="BackgroundImageFix" result="effect1_dropShadow_0_1"/><feBlend in="SourceGraphic" in2="effect1_dropShadow_0_1" result="shape"/></filter><filter id="e" x="60.5" y="177" width="63.162" height="45.647" filterUnits="userSpaceOnUse" color-interpolation-filters="sRGB"><feFlood flood-opacity="0" result="BackgroundImageFix"/><feColorMatrix in="SourceAlpha" values="0 0 0 0 0 0 0 0 0 0 0 0 0 0 0 0 0 0 127 0" result="hardAlpha"/><feOffset dy="4"/><feGaussianBlur stdDeviation="2"/><feColorMatrix values="0 0 0 0 0 0 0 0 0 0 0 0 0 0 0 0 0 0 0.25 0"/><feBlend in2="BackgroundImageFix" result="effect1_dropShadow_0_1"/><feBlend in="SourceGraphic" in2="effect1_dropShadow_0_1" result="shape"/></filter><filter id="f" x="45.167" y="204" width="31.667" height="31.667" filterUnits="userSpaceOnUse" color-interpolation-filters="sRGB"><feFlood flood-opacity="0" result="BackgroundImageFix"/><feColorMatrix in="SourceAlpha" values="0 0 0 0 0 0 0 0 0 0 0 0 0 0 0 0 0 0 127 0" result="hardAlpha"/><feOffset dy="6.333"/><feGaussianBlur stdDeviation="3.167"/><feColorMatrix values="0 0 0 0 0 0 0 0 0 0 0 0 0 0 0 0 0 0 0.25 0"/><feBlend in2="BackgroundImageFix" result="effect1_dropShadow_0_1"/><feBlend in="SourceGraphic" in2="effect1_dropShadow_0_1" result="shape"/></filter><filter id="g" x="69.25" y="151.95" width="178.25" height="77.5" filterUnits="userSpaceOnUse" color-interpolation-filters="sRGB"><feFlood flood-opacity="0" result="BackgroundImageFix"/><feColorMatrix in="SourceAlpha" values="0 0 0 0 0 0 0 0 0 0 0 0 0 0 0 0 0 0 127 0" result="hardAlpha"/><feMorphology radius="3.1" operator="dilate" in="SourceAlpha" result="effect1_dropShadow_0_1"/><feOffset dy="6.2"/><feGaussianBlur stdDeviation="10.075"/><feComposite in2="hardAlpha" operator="out"/><feColorMatrix values="0 0 0 0 0 0 0 0 0 0.454902 0 0 0 0 0.788235 0 0 0 0.22 0"/><feBlend in2="BackgroundImageFix" result="effect1_dropShadow_0_1"/><feBlend in="SourceGraphic" in2="effect1_dropShadow_0_1" result="shape"/></filter><clipPath id="d"><path fill="#fff" transform="translate(41.05 29.873)" d="M0 0h7.669v7.669H0z"/></clipPath><clipPath id="h"><path fill="#fff" transform="translate(109.55 180.873)" d="M0 0h7.669v7.669H0z"/></clipPath></defs></svg>