<svg width="345" height="328" fill="none" xmlns="http://www.w3.org/2000/svg"><g filter="url(#a)"><path stroke="#fff" stroke-width="1.393" d="m250.177 106.626-68.25-61.286"/></g><g filter="url(#b)"><circle cx="248.553" cy="108.197" r="13.232" fill="#fff"/><circle cx="248.553" cy="108.197" r="12.13" stroke="#0074C9" stroke-width="2.205"/></g><g filter="url(#c)"><rect x="33.356" y="23.929" width="183.509" height="43.179" rx="21.589" fill="#fff"/></g><g clip-path="url(#d)" fill="#0074C9"><path d="M62.445 43.135a1.78 1.78 0 1 0 0 3.561 1.78 1.78 0 0 0 0-3.56Zm0 2.67a.89.89 0 1 1 0-1.778.89.89 0 0 1 0 1.779Z"/><path d="M62.445 51.147a2.346 2.346 0 0 1-1.918-.98c-1.697-2.339-2.557-4.098-2.557-5.227a4.475 4.475 0 0 1 8.95 0c0 1.13-.86 2.888-2.556 5.228a2.344 2.344 0 0 1-1.919.979Zm0-9.711a3.51 3.51 0 0 0-3.504 3.504c0 .895.842 2.55 2.372 4.659a1.4 1.4 0 0 0 2.265 0c1.53-2.11 2.372-3.764 2.372-4.659a3.508 3.508 0 0 0-3.505-3.504Z"/></g><path d="M77.849 45.8h-1.446V49h-.717v-3.2H74.23L72.097 49h-.858l2.393-3.599-2.213-3.38h.797l2.004 3.13h1.466v-3.13h.717v3.13h1.446l2.014-3.13h.797l-2.213 3.38L80.84 49h-.858l-2.133-3.2Zm6.474 0h-1.596V49h-.717v-6.979h.717v3.13h1.596l2.362-3.13h.798l-2.592 3.39L87.632 49h-.847l-2.462-3.2Zm11.862-3.14h-2.453V49h-.727v-6.34h-2.453v-.639h5.633v.638Zm.99 1.096h.707v4.167l3.499-4.167h.628V49h-.708v-4.167L97.812 49h-.638v-5.244ZM107.317 49l-1.665-2.193L103.978 49h-.798l2.074-2.692-1.974-2.552h.798l1.575 2.054 1.575-2.054h.778l-1.974 2.552L108.125 49h-.807Zm5.307-2.712c.711.167 1.067.595 1.067 1.286 0 .459-.169.811-.508 1.057-.339.246-.845.369-1.516.369h-2.383v-5.244h2.313c.599 0 1.067.116 1.406.349.339.233.509.565.509.997 0 .286-.08.532-.24.738-.153.2-.369.349-.648.448Zm-2.652-.2h1.576c.405 0 .714-.075.927-.228.219-.153.329-.376.329-.668 0-.293-.11-.512-.329-.658-.213-.147-.522-.22-.927-.22h-1.576v1.775Zm1.665 2.354c.452 0 .791-.073 1.017-.22.226-.146.339-.375.339-.688 0-.312-.103-.541-.309-.687-.206-.153-.532-.23-.977-.23h-1.735v1.825h1.665Zm3.713-4.686h.708v4.167l3.499-4.167h.628V49h-.708v-4.167L115.989 49h-.638v-5.244Zm6.864 0h.707v2.323h3.3v-2.323h.708V49h-.708v-2.313h-3.3V49h-.707v-5.244Zm8.92 5.294c-.518 0-.983-.113-1.395-.34a2.465 2.465 0 0 1-.957-.946 2.766 2.766 0 0 1-.349-1.386c0-.512.116-.97.349-1.376.232-.405.551-.72.957-.947a2.853 2.853 0 0 1 1.395-.339c.452 0 .854.09 1.207.27.359.172.641.428.847.767l-.528.359a1.616 1.616 0 0 0-.658-.578 1.913 1.913 0 0 0-.868-.2c-.378 0-.721.087-1.026.26a1.79 1.79 0 0 0-.708.717 2.24 2.24 0 0 0-.25 1.067c0 .405.084.764.25 1.077.173.306.408.545.708.718.305.166.648.249 1.026.249.313 0 .602-.063.868-.19.266-.126.485-.319.658-.578l.528.359a2.035 2.035 0 0 1-.847.778 2.757 2.757 0 0 1-1.207.259Zm5.329-2.383h-1.196V49h-.708v-5.244h.708v2.303h1.206l1.844-2.303h.768l-2.064 2.542L139.235 49h-.837l-1.934-2.333Zm3.889-2.911h.707v4.167l3.5-4.167h.628V49h-.708v-4.167L140.991 49h-.638v-5.244Zm6.863 0h.708v4.167l3.499-4.167h.629V49h-.708v-4.167L147.854 49h-.638v-5.244Zm2.383-.758c-.452 0-.811-.113-1.077-.339-.266-.226-.402-.545-.408-.957h.508c.007.26.1.469.279.628.18.153.412.23.698.23s.518-.077.698-.23a.818.818 0 0 0 .289-.628h.508c-.006.412-.146.731-.418.957-.266.226-.625.34-1.077.34Zm8.994 3.67h-1.196V49h-.708v-5.244h.708v2.303h1.206l1.845-2.303h.767l-2.063 2.542L161.365 49h-.837l-1.935-2.333Zm7.229-.38c.711.167 1.067.595 1.067 1.286 0 .459-.17.811-.509 1.057-.339.246-.844.369-1.515.369h-2.383v-5.244h2.313c.598 0 1.067.116 1.406.349.339.233.508.565.508.997 0 .286-.08.532-.239.738-.153.2-.369.349-.648.448Zm-2.652-.2h1.575c.406 0 .715-.075.927-.228.22-.153.329-.376.329-.668 0-.293-.109-.512-.329-.658-.212-.147-.521-.22-.927-.22h-1.575v1.775Zm1.665 2.354c.452 0 .791-.073 1.017-.22.226-.146.339-.375.339-.688 0-.312-.103-.541-.309-.687-.206-.153-.532-.23-.977-.23h-1.735v1.825h1.665Zm5.517-4.726c.685 0 1.21.173 1.575.519.366.339.549.844.549 1.515V49h-.678v-.818c-.16.273-.396.486-.708.639-.306.152-.672.229-1.097.229-.585 0-1.05-.14-1.396-.419a1.353 1.353 0 0 1-.518-1.106c0-.446.159-.805.479-1.077.325-.273.84-.409 1.545-.409h1.665v-.319c0-.452-.127-.794-.379-1.027-.253-.24-.622-.359-1.107-.359a2.74 2.74 0 0 0-.957.17 2.334 2.334 0 0 0-.787.448l-.319-.528c.265-.226.584-.399.957-.518.372-.127.764-.19 1.176-.19Zm-.249 4.776c.399 0 .741-.09 1.027-.27.285-.186.498-.452.638-.797v-.858h-1.645c-.898 0-1.346.313-1.346.938a.87.87 0 0 0 .349.727c.232.173.558.26.977.26Zm6.959-4.776c.491 0 .937.113 1.335.34.399.219.712.53.938.936.226.406.339.868.339 1.386 0 .525-.113.99-.339 1.396a2.424 2.424 0 0 1-.938.947 2.68 2.68 0 0 1-1.335.329c-.426 0-.811-.087-1.157-.26a2.228 2.228 0 0 1-.837-.777v2.921h-.708v-7.178h.678v1.037c.212-.346.492-.612.837-.798a2.502 2.502 0 0 1 1.187-.279Zm-.05 4.706c.365 0 .698-.083.997-.25.299-.172.531-.415.698-.727.172-.313.259-.668.259-1.067a2.12 2.12 0 0 0-.259-1.057 1.802 1.802 0 0 0-.698-.727 1.958 1.958 0 0 0-.997-.26c-.372 0-.708.087-1.007.26a1.884 1.884 0 0 0-.698.727 2.18 2.18 0 0 0-.249 1.057c0 .399.083.754.249 1.067.173.312.405.555.698.727.299.167.635.25 1.007.25Zm7.676-4.038h-1.984V49h-.707v-4.616h-1.984v-.628h4.675v.628Zm2.828-.668c.685 0 1.21.173 1.575.519.366.339.549.844.549 1.515V49h-.678v-.818c-.16.273-.396.486-.708.639-.306.152-.671.229-1.097.229-.584 0-1.05-.14-1.395-.419a1.351 1.351 0 0 1-.519-1.106c0-.446.16-.805.479-1.077.325-.273.841-.409 1.545-.409h1.665v-.319c0-.452-.126-.794-.379-1.027-.252-.24-.621-.359-1.106-.359-.333 0-.652.057-.958.17a2.344 2.344 0 0 0-.787.448l-.319-.528c.266-.226.585-.399.957-.518.372-.127.764-.19 1.176-.19Zm-.249 4.776c.399 0 .741-.09 1.027-.27.286-.186.498-.452.638-.797v-.858h-1.645c-.897 0-1.346.313-1.346.938a.87.87 0 0 0 .349.727c.233.173.558.26.977.26Zm8.544-4.736V49h-.708v-4.616h-2.512l-.07 1.296c-.053 1.09-.179 1.928-.379 2.513-.199.584-.555.877-1.066.877-.14 0-.31-.027-.509-.08l.05-.608c.12.026.203.04.249.04.273 0 .479-.127.618-.38.14-.252.233-.564.279-.936.047-.372.087-.864.12-1.476l.09-1.874h3.838Z" fill="#000"/><g filter="url(#e)"><path stroke="#fff" stroke-width="1.393" d="m166.211 245.97-76.054 51.282"/></g><g filter="url(#f)"><circle cx="84.893" cy="296.233" r="13.232" fill="#fff"/><circle cx="84.893" cy="296.233" r="12.13" stroke="#0074C9" stroke-width="2.205"/></g><g filter="url(#g)"><rect x="128.768" y="234.25" width="183.509" height="43.179" rx="21.589" fill="#fff"/></g><g clip-path="url(#h)" fill="#0074C9"><path d="M157.856 253.458a1.778 1.778 0 0 0-1.746 2.127 1.785 1.785 0 0 0 1.399 1.399 1.782 1.782 0 0 0 2.127-1.746 1.78 1.78 0 0 0-1.78-1.78Zm0 2.67a.892.892 0 0 1-.873-1.064.886.886 0 0 1 .699-.699.89.89 0 1 1 .174 1.763Z"/><path d="M157.856 261.469a2.344 2.344 0 0 1-1.919-.979c-1.696-2.34-2.556-4.099-2.556-5.228a4.475 4.475 0 1 1 8.95 0c0 1.129-.86 2.888-2.556 5.228a2.355 2.355 0 0 1-1.919.979Zm0-9.711a3.51 3.51 0 0 0-3.504 3.505c0 .894.842 2.549 2.371 4.658a1.393 1.393 0 0 0 1.133.577 1.393 1.393 0 0 0 1.133-.577c1.529-2.109 2.371-3.764 2.371-4.658a3.508 3.508 0 0 0-3.504-3.505Z"/></g><path d="m172.22 254.119-2.622 5.872c-.213.492-.458.841-.738 1.047-.279.206-.614.309-1.007.309a2.07 2.07 0 0 1-.707-.119c-.22-.08-.409-.2-.569-.359l.329-.529c.266.266.585.399.957.399.24 0 .442-.066.609-.199.172-.133.332-.359.478-.678l.229-.509-2.342-5.234h.737l1.974 4.457 1.974-4.457h.698Zm5.156 0v5.244h-.708v-4.616h-2.512l-.07 1.296c-.053 1.09-.179 1.928-.379 2.513-.199.585-.555.877-1.066.877-.14 0-.309-.027-.509-.08l.05-.608c.12.027.203.04.249.04.273 0 .479-.126.618-.379.14-.252.233-.565.28-.937.046-.372.086-.864.119-1.475l.09-1.875h3.838Zm2.062 5.294a.52.52 0 0 1-.379-.159.551.551 0 0 1-.149-.389c0-.153.05-.279.149-.379a.521.521 0 0 1 .379-.16.52.52 0 0 1 .379.16.5.5 0 0 1 .16.379.532.532 0 0 1-.16.389.519.519 0 0 1-.379.159Zm7.892.01a3.844 3.844 0 0 1-1.874-.458 3.411 3.411 0 0 1-1.306-1.267 3.605 3.605 0 0 1-.468-1.824c0-.671.156-1.276.468-1.814a3.38 3.38 0 0 1 1.316-1.277 3.844 3.844 0 0 1 1.874-.458c.519 0 .997.086 1.436.259.439.173.811.425 1.117.758l-.469.468c-.545-.551-1.233-.827-2.064-.827-.551 0-1.053.126-1.505.379a2.802 2.802 0 0 0-1.067 1.036 2.912 2.912 0 0 0-.379 1.476c0 .545.127 1.037.379 1.475.259.439.615.785 1.067 1.037.452.253.954.379 1.505.379.838 0 1.526-.279 2.064-.837l.469.468a3.066 3.066 0 0 1-1.127.768 3.88 3.88 0 0 1-1.436.259Zm7.459-4.676h-1.984v4.616h-.707v-4.616h-1.984v-.628h4.675v.628Zm2.828-.668c.685 0 1.21.173 1.575.519.366.339.549.844.549 1.515v3.25h-.678v-.817c-.16.272-.396.485-.708.638-.306.153-.671.229-1.097.229-.585 0-1.05-.139-1.395-.419a1.351 1.351 0 0 1-.519-1.106c0-.446.16-.804.479-1.077.325-.272.84-.409 1.545-.409h1.665v-.319c0-.452-.126-.794-.379-1.027-.253-.239-.621-.358-1.107-.358a2.74 2.74 0 0 0-.957.169 2.336 2.336 0 0 0-.787.449l-.319-.529c.266-.226.585-.399.957-.518.372-.126.764-.19 1.176-.19Zm-.249 4.776c.399 0 .741-.09 1.027-.269.286-.186.498-.452.638-.798v-.857h-1.645c-.897 0-1.346.312-1.346.937a.87.87 0 0 0 .349.728c.233.172.558.259.977.259Zm4.257-4.736h.708v2.323h3.3v-2.323h.708v5.244h-.708v-2.313h-3.3v2.313h-.708v-5.244Zm6.727 0h.708v4.168l3.5-4.168h.628v5.244h-.708v-4.167l-3.489 4.167h-.639v-5.244Zm9.058 5.294c-.519 0-.984-.113-1.396-.339a2.467 2.467 0 0 1-.957-.947 2.766 2.766 0 0 1-.349-1.386c0-.511.116-.97.349-1.375.232-.406.551-.722.957-.948a2.853 2.853 0 0 1 1.396-.339c.451 0 .854.09 1.206.27.359.172.641.428.847.767l-.528.359a1.615 1.615 0 0 0-.658-.578 1.911 1.911 0 0 0-.867-.199c-.379 0-.722.086-1.027.259a1.793 1.793 0 0 0-.708.718 2.236 2.236 0 0 0-.249 1.066c0 .406.083.765.249 1.077.173.306.409.545.708.718.305.166.648.249 1.027.249a2 2 0 0 0 .867-.189c.266-.127.485-.319.658-.579l.528.359a2.04 2.04 0 0 1-.847.778 2.742 2.742 0 0 1-1.206.259Zm7.535-5.294v5.244h-.707v-4.616h-2.513l-.069 1.296c-.054 1.09-.18 1.928-.379 2.513-.2.585-.555.877-1.067.877a2.03 2.03 0 0 1-.508-.08l.049-.608c.12.027.203.04.25.04.272 0 .478-.126.618-.379.139-.252.232-.565.279-.937.046-.372.086-.864.119-1.475l.09-1.875h3.838Zm3.817-.04c.685 0 1.21.173 1.575.519.366.339.549.844.549 1.515v3.25h-.678v-.817c-.16.272-.396.485-.708.638-.306.153-.671.229-1.097.229-.585 0-1.05-.139-1.395-.419a1.351 1.351 0 0 1-.519-1.106c0-.446.16-.804.479-1.077.325-.272.84-.409 1.545-.409h1.665v-.319c0-.452-.126-.794-.379-1.027-.253-.239-.621-.358-1.107-.358a2.74 2.74 0 0 0-.957.169 2.336 2.336 0 0 0-.787.449l-.319-.529c.266-.226.585-.399.957-.518.372-.126.764-.19 1.176-.19Zm-.249 4.776c.399 0 .741-.09 1.027-.269.286-.186.498-.452.638-.798v-.857h-1.645c-.897 0-1.346.312-1.346.937a.87.87 0 0 0 .349.728c.233.172.558.259.977.259Zm7.597-2.203c.711.166 1.067.594 1.067 1.286 0 .458-.17.81-.509 1.056-.339.246-.844.369-1.515.369h-2.383v-5.244h2.313c.598 0 1.067.117 1.406.349.339.233.508.565.508.997 0 .286-.08.532-.239.738a1.379 1.379 0 0 1-.648.449Zm-2.652-.2h1.575c.405 0 .715-.076.927-.229.22-.153.329-.376.329-.668 0-.293-.109-.512-.329-.658-.212-.146-.522-.219-.927-.219h-1.575v1.774Zm1.665 2.353c.452 0 .791-.073 1.017-.219.226-.147.339-.376.339-.688 0-.313-.103-.542-.309-.688-.206-.153-.532-.229-.977-.229h-1.735v1.824h1.665Zm5.906.608c-.519 0-.984-.113-1.396-.339a2.48 2.48 0 0 1-.957-.947 2.766 2.766 0 0 1-.349-1.386c0-.511.116-.97.349-1.375.233-.406.552-.722.957-.948a2.853 2.853 0 0 1 1.396-.339c.452 0 .854.09 1.206.27.359.172.641.428.847.767l-.528.359a1.615 1.615 0 0 0-.658-.578 1.911 1.911 0 0 0-.867-.199c-.379 0-.721.086-1.027.259a1.793 1.793 0 0 0-.708.718 2.236 2.236 0 0 0-.249 1.066c0 .406.083.765.249 1.077.173.306.409.545.708.718.306.166.648.249 1.027.249a2 2 0 0 0 .867-.189c.266-.127.485-.319.658-.579l.528.359a2.04 2.04 0 0 1-.847.778 2.742 2.742 0 0 1-1.206.259Zm5.328-2.383h-1.196v2.333h-.708v-5.244h.708v2.303h1.206l1.844-2.303h.768l-2.064 2.543 2.214 2.701h-.838l-1.934-2.333Zm5.867 2.383a2.76 2.76 0 0 1-1.366-.339 2.541 2.541 0 0 1-.957-.957 2.72 2.72 0 0 1-.349-1.376c0-.511.117-.97.349-1.375.233-.406.552-.722.957-.948a2.76 2.76 0 0 1 1.366-.339c.505 0 .961.113 1.366.339.405.226.721.542.947.948.233.405.349.864.349 1.375 0 .512-.116.971-.349 1.376a2.467 2.467 0 0 1-.947.957 2.757 2.757 0 0 1-1.366.339Zm0-.628c.372 0 .705-.083.997-.249a1.8 1.8 0 0 0 .698-.728c.166-.312.249-.668.249-1.067 0-.398-.083-.754-.249-1.066a1.726 1.726 0 0 0-.698-.718 1.92 1.92 0 0 0-.997-.259c-.372 0-.708.086-1.007.259a1.815 1.815 0 0 0-.698.718 2.236 2.236 0 0 0-.249 1.066c0 .399.083.755.249 1.067.173.312.406.555.698.728a2.04 2.04 0 0 0 1.007.249Zm7.884-4.038h-3.001v4.616h-.708v-5.244h3.709v.628Zm2.942 4.666c-.505 0-.96-.113-1.365-.339a2.527 2.527 0 0 1-.957-.957 2.71 2.71 0 0 1-.349-1.376c0-.511.116-.97.349-1.375.232-.406.551-.722.957-.948.405-.226.86-.339 1.365-.339.506 0 .961.113 1.366.339.406.226.721.542.947.948.233.405.349.864.349 1.375 0 .512-.116.971-.349 1.376a2.46 2.46 0 0 1-.947.957c-.405.226-.86.339-1.366.339Zm0-.628c.373 0 .705-.083.997-.249.3-.173.532-.416.698-.728.166-.312.25-.668.25-1.067 0-.398-.084-.754-.25-1.066a1.72 1.72 0 0 0-.698-.718 1.917 1.917 0 0 0-.997-.259 1.97 1.97 0 0 0-1.006.259 1.801 1.801 0 0 0-.698.718c-.166.312-.25.668-.25 1.066 0 .399.084.755.25 1.067.172.312.405.555.698.728.299.166.634.249 1.006.249Zm8.23-6.4v6.978h-.718v-6.34h-1.645v-.638h2.363Zm4.559 2.801c.459 0 .864.086 1.217.259.358.173.638.419.837.738.199.312.299.678.299 1.097 0 .425-.103.801-.309 1.126a2.072 2.072 0 0 1-.857.758 2.77 2.77 0 0 1-1.217.259c-.923 0-1.631-.302-2.123-.907-.492-.612-.738-1.472-.738-2.582 0-.778.133-1.436.399-1.974.266-.539.638-.944 1.116-1.216.479-.28 1.037-.419 1.675-.419.692 0 1.243.126 1.655.379l-.289.578c-.332-.219-.784-.329-1.356-.329-.771 0-1.375.246-1.814.738-.439.485-.658 1.193-.658 2.123 0 .166.01.356.03.568.173-.378.448-.671.827-.877a2.619 2.619 0 0 1 1.306-.319Zm-.06 3.629c.506 0 .914-.136 1.227-.409.319-.279.478-.648.478-1.106 0-.459-.159-.825-.478-1.097-.313-.273-.738-.409-1.276-.409-.353 0-.665.067-.938.2a1.582 1.582 0 0 0-.628.548 1.394 1.394 0 0 0-.229.778c0 .265.07.511.209.737.147.226.359.409.638.549.28.139.612.209.997.209Zm5.864-7.846h.648l-3.29 9.391h-.648l3.29-9.391Zm3.053 1.416v6.978h-.718v-6.34h-1.645v-.638h2.363Z" fill="#000"/><defs><filter id="a" x="175.89" y="44.822" width="80.323" height="73.465" filterUnits="userSpaceOnUse" color-interpolation-filters="sRGB"><feFlood flood-opacity="0" result="BackgroundImageFix"/><feColorMatrix in="SourceAlpha" values="0 0 0 0 0 0 0 0 0 0 0 0 0 0 0 0 0 0 127 0" result="hardAlpha"/><feOffset dy="5.571"/><feGaussianBlur stdDeviation="2.786"/><feColorMatrix values="0 0 0 0 0 0 0 0 0 0 0 0 0 0 0 0 0 0 0.25 0"/><feBlend in2="BackgroundImageFix" result="effect1_dropShadow_3_2"/><feBlend in="SourceGraphic" in2="effect1_dropShadow_3_2" result="shape"/></filter><filter id="b" x="226.5" y="94.965" width="44.107" height="44.107" filterUnits="userSpaceOnUse" color-interpolation-filters="sRGB"><feFlood flood-opacity="0" result="BackgroundImageFix"/><feColorMatrix in="SourceAlpha" values="0 0 0 0 0 0 0 0 0 0 0 0 0 0 0 0 0 0 127 0" result="hardAlpha"/><feOffset dy="8.821"/><feGaussianBlur stdDeviation="4.411"/><feColorMatrix values="0 0 0 0 0 0 0 0 0 0 0 0 0 0 0 0 0 0 0.25 0"/><feBlend in2="BackgroundImageFix" result="effect1_dropShadow_3_2"/><feBlend in="SourceGraphic" in2="effect1_dropShadow_3_2" result="shape"/></filter><filter id="c" x=".973" y=".18" width="248.277" height="107.947" filterUnits="userSpaceOnUse" color-interpolation-filters="sRGB"><feFlood flood-opacity="0" result="BackgroundImageFix"/><feColorMatrix in="SourceAlpha" values="0 0 0 0 0 0 0 0 0 0 0 0 0 0 0 0 0 0 127 0" result="hardAlpha"/><feMorphology radius="4.318" operator="dilate" in="SourceAlpha" result="effect1_dropShadow_3_2"/><feOffset dy="8.636"/><feGaussianBlur stdDeviation="14.033"/><feComposite in2="hardAlpha" operator="out"/><feColorMatrix values="0 0 0 0 0 0 0 0 0 0.454902 0 0 0 0 0.788235 0 0 0 0.22 0"/><feBlend in2="BackgroundImageFix" result="effect1_dropShadow_3_2"/><feBlend in="SourceGraphic" in2="effect1_dropShadow_3_2" result="shape"/></filter><filter id="e" x="84.196" y="245.393" width="87.976" height="63.579" filterUnits="userSpaceOnUse" color-interpolation-filters="sRGB"><feFlood flood-opacity="0" result="BackgroundImageFix"/><feColorMatrix in="SourceAlpha" values="0 0 0 0 0 0 0 0 0 0 0 0 0 0 0 0 0 0 127 0" result="hardAlpha"/><feOffset dy="5.571"/><feGaussianBlur stdDeviation="2.786"/><feColorMatrix values="0 0 0 0 0 0 0 0 0 0 0 0 0 0 0 0 0 0 0.25 0"/><feBlend in2="BackgroundImageFix" result="effect1_dropShadow_3_2"/><feBlend in="SourceGraphic" in2="effect1_dropShadow_3_2" result="shape"/></filter><filter id="f" x="62.839" y="283" width="44.107" height="44.107" filterUnits="userSpaceOnUse" color-interpolation-filters="sRGB"><feFlood flood-opacity="0" result="BackgroundImageFix"/><feColorMatrix in="SourceAlpha" values="0 0 0 0 0 0 0 0 0 0 0 0 0 0 0 0 0 0 127 0" result="hardAlpha"/><feOffset dy="8.821"/><feGaussianBlur stdDeviation="4.411"/><feColorMatrix values="0 0 0 0 0 0 0 0 0 0 0 0 0 0 0 0 0 0 0.25 0"/><feBlend in2="BackgroundImageFix" result="effect1_dropShadow_3_2"/><feBlend in="SourceGraphic" in2="effect1_dropShadow_3_2" result="shape"/></filter><filter id="g" x="96.384" y="210.502" width="248.277" height="107.947" filterUnits="userSpaceOnUse" color-interpolation-filters="sRGB"><feFlood flood-opacity="0" result="BackgroundImageFix"/><feColorMatrix in="SourceAlpha" values="0 0 0 0 0 0 0 0 0 0 0 0 0 0 0 0 0 0 127 0" result="hardAlpha"/><feMorphology radius="4.318" operator="dilate" in="SourceAlpha" result="effect1_dropShadow_3_2"/><feOffset dy="8.636"/><feGaussianBlur stdDeviation="14.033"/><feComposite in2="hardAlpha" operator="out"/><feColorMatrix values="0 0 0 0 0 0 0 0 0 0.454902 0 0 0 0 0.788235 0 0 0 0.22 0"/><feBlend in2="BackgroundImageFix" result="effect1_dropShadow_3_2"/><feBlend in="SourceGraphic" in2="effect1_dropShadow_3_2" result="shape"/></filter><clipPath id="d"><path fill="#fff" transform="translate(57.105 40.465)" d="M0 0h10.682v10.682H0z"/></clipPath><clipPath id="h"><path fill="#fff" transform="translate(152.515 250.787)" d="M0 0h10.682v10.682H0z"/></clipPath></defs></svg>