<svg width="345" height="328" viewBox="0 0 345 328" fill="none" xmlns="http://www.w3.org/2000/svg">
<g filter="url(#filter0_d_3_2)">
<line x1="250.177" y1="106.626" x2="181.927" y2="45.3399" stroke="white" stroke-width="1.39286"/>
</g>
<g filter="url(#filter1_d_3_2)">
<circle cx="248.553" cy="108.197" r="13.2321" fill="white"/>
<circle cx="248.553" cy="108.197" r="12.1295" stroke="#0074C9" stroke-width="2.20536"/>
</g>
<g filter="url(#filter2_d_3_2)">
<rect x="33.3564" y="23.9287" width="183.509" height="43.1786" rx="21.5893" fill="white"/>
</g>
<g clip-path="url(#clip0_3_2)">
<path d="M62.4453 43.1353C62.0932 43.1353 61.749 43.2397 61.4562 43.4353C61.1635 43.6309 60.9353 43.9089 60.8006 44.2342C60.6658 44.5595 60.6306 44.9175 60.6992 45.2628C60.7679 45.6082 60.9375 45.9254 61.1865 46.1744C61.4354 46.4233 61.7527 46.5929 62.098 46.6616C62.4433 46.7303 62.8013 46.695 63.1266 46.5603C63.4519 46.4255 63.7299 46.1974 63.9255 45.9046C64.1212 45.6118 64.2256 45.2676 64.2256 44.9155C64.2256 44.4434 64.038 43.9905 63.7041 43.6567C63.3703 43.3228 62.9175 43.1353 62.4453 43.1353ZM62.4453 45.8057C62.2693 45.8057 62.0972 45.7535 61.9508 45.6556C61.8044 45.5578 61.6903 45.4188 61.6229 45.2562C61.5556 45.0935 61.5379 44.9145 61.5723 44.7419C61.6066 44.5692 61.6914 44.4106 61.8159 44.2861C61.9404 44.1616 62.099 44.0768 62.2717 44.0425C62.4443 44.0081 62.6233 44.0258 62.7859 44.0931C62.9486 44.1605 63.0876 44.2746 63.1854 44.421C63.2832 44.5674 63.3354 44.7395 63.3354 44.9155C63.3354 45.1516 63.2417 45.378 63.0747 45.5449C62.9078 45.7119 62.6814 45.8057 62.4453 45.8057Z" fill="#0074C9"/>
<path d="M62.4454 51.1469C62.0706 51.1488 61.7008 51.0609 61.367 50.8905C61.0332 50.7202 60.745 50.4723 60.5267 50.1677C58.8305 47.828 57.9702 46.0691 57.9702 44.9395C57.9702 43.7526 58.4417 42.6144 59.281 41.7751C60.1202 40.9358 61.2585 40.4644 62.4454 40.4644C63.6322 40.4644 64.7705 40.9358 65.6098 41.7751C66.449 42.6144 66.9205 43.7526 66.9205 44.9395C66.9205 46.0691 66.0602 47.828 64.364 50.1677C64.1457 50.4723 63.8576 50.7202 63.5237 50.8905C63.1899 51.0609 62.8201 51.1488 62.4454 51.1469ZM62.4454 41.4359C61.5163 41.437 60.6255 41.8066 59.9685 42.4635C59.3115 43.1205 58.942 44.0113 58.9409 44.9404C58.9409 45.835 59.7834 47.4893 61.3127 49.5985C61.4425 49.7773 61.6128 49.9228 61.8097 50.0232C62.0066 50.1235 62.2244 50.1759 62.4454 50.1759C62.6663 50.1759 62.8842 50.1235 63.081 50.0232C63.2779 49.9228 63.4482 49.7773 63.5781 49.5985C65.1073 47.4893 65.9498 45.835 65.9498 44.9404C65.9488 44.0113 65.5792 43.1205 64.9222 42.4635C64.2652 41.8066 63.3745 41.437 62.4454 41.4359Z" fill="#0074C9"/>
</g>
<path d="M76.81 43.7971L74.188 49.6691C73.9753 50.1609 73.7294 50.5099 73.4502 50.7159C73.1711 50.9219 72.8355 51.0249 72.4433 51.0249C72.1908 51.0249 71.9548 50.9851 71.7355 50.9053C71.5162 50.8256 71.3267 50.7059 71.1672 50.5464L71.4962 50.018C71.7621 50.2839 72.0811 50.4168 72.4533 50.4168C72.6926 50.4168 72.8953 50.3503 73.0614 50.2174C73.2342 50.0845 73.3938 49.8585 73.54 49.5395L73.7693 49.031L71.4264 43.7971H72.1642L74.1381 48.2534L76.1121 43.7971H76.81ZM81.966 43.7971V49.041H81.2582V44.4251H78.7458L78.6761 45.7212C78.6229 46.8112 78.4966 47.6486 78.2972 48.2335C78.0978 48.8184 77.7422 49.1108 77.2305 49.1108C77.0909 49.1108 76.9214 49.0842 76.722 49.031L76.7719 48.4229C76.8915 48.4495 76.9746 48.4628 77.0211 48.4628C77.2936 48.4628 77.4997 48.3365 77.6392 48.0839C77.7788 47.8314 77.8718 47.519 77.9184 47.1468C77.9649 46.7746 78.0048 46.2828 78.038 45.6713L78.1277 43.7971H81.966ZM84.028 49.0909C83.8818 49.0909 83.7555 49.0377 83.6492 48.9314C83.5495 48.825 83.4997 48.6954 83.4997 48.5425C83.4997 48.3897 83.5495 48.2634 83.6492 48.1637C83.7555 48.0574 83.8818 48.0042 84.028 48.0042C84.1743 48.0042 84.3005 48.0574 84.4069 48.1637C84.5132 48.2634 84.5664 48.3897 84.5664 48.5425C84.5664 48.6954 84.5132 48.825 84.4069 48.9314C84.3005 49.0377 84.1743 49.0909 84.028 49.0909ZM91.9202 49.1008C91.229 49.1008 90.6043 48.948 90.046 48.6422C89.4943 48.3365 89.059 47.9145 88.74 47.3761C88.4276 46.8311 88.2714 46.223 88.2714 45.5517C88.2714 44.8804 88.4276 44.2756 88.74 43.7372C89.059 43.1922 89.4976 42.7669 90.0559 42.4611C90.6142 42.1554 91.239 42.0025 91.9302 42.0025C92.4486 42.0025 92.9272 42.0889 93.3658 42.2618C93.8045 42.4346 94.1767 42.6871 94.4824 43.0194L94.0138 43.488C93.4688 42.9364 92.7809 42.6605 91.9501 42.6605C91.3985 42.6605 90.8967 42.7868 90.4447 43.0394C89.9928 43.2919 89.6372 43.6375 89.378 44.0762C89.1254 44.5149 88.9992 45.0067 88.9992 45.5517C88.9992 46.0967 89.1254 46.5885 89.378 47.0272C89.6372 47.4658 89.9928 47.8114 90.4447 48.064C90.8967 48.3166 91.3985 48.4428 91.9501 48.4428C92.7876 48.4428 93.4755 48.1637 94.0138 47.6054L94.4824 48.074C94.1767 48.4063 93.8011 48.6622 93.3558 48.8416C92.9172 49.0144 92.4386 49.1008 91.9202 49.1008ZM99.3791 44.4251H97.3952V49.041H96.6874V44.4251H94.7034V43.7971H99.3791V44.4251ZM102.207 43.7572C102.892 43.7572 103.417 43.93 103.782 44.2756C104.148 44.6146 104.331 45.1197 104.331 45.791V49.041H103.653V48.2235C103.493 48.496 103.257 48.7087 102.945 48.8616C102.639 49.0144 102.274 49.0909 101.848 49.0909C101.263 49.0909 100.798 48.9513 100.452 48.6721C100.107 48.393 99.934 48.0241 99.934 47.5655C99.934 47.1202 100.094 46.7613 100.413 46.4888C100.738 46.2163 101.253 46.0801 101.958 46.0801H103.623V45.761C103.623 45.3091 103.496 44.9668 103.244 44.7342C102.991 44.4949 102.622 44.3753 102.137 44.3753C101.805 44.3753 101.486 44.4318 101.18 44.5448C100.874 44.6511 100.612 44.8007 100.393 44.9934L100.074 44.465C100.339 44.239 100.658 44.0662 101.031 43.9466C101.403 43.8203 101.795 43.7572 102.207 43.7572ZM101.958 48.5326C102.357 48.5326 102.699 48.4428 102.985 48.2634C103.27 48.0773 103.483 47.8114 103.623 47.4658V46.6085H101.978C101.08 46.6085 100.632 46.9208 100.632 47.5456C100.632 47.8513 100.748 48.0939 100.981 48.2734C101.213 48.4462 101.539 48.5326 101.958 48.5326ZM106.215 43.7971H106.923V46.12H110.223V43.7971H110.93V49.041H110.223V46.7281H106.923V49.041H106.215V43.7971ZM112.942 43.7971H113.65V47.9643L117.149 43.7971H117.778V49.041H117.07V44.8738L113.58 49.041H112.942V43.7971ZM121.999 49.0909C121.481 49.0909 121.016 48.9779 120.604 48.7519C120.198 48.5259 119.879 48.2102 119.647 47.8048C119.414 47.3927 119.298 46.9308 119.298 46.419C119.298 45.9073 119.414 45.4487 119.647 45.0432C119.879 44.6378 120.198 44.3221 120.604 44.0961C121.016 43.8702 121.481 43.7572 121.999 43.7572C122.451 43.7572 122.853 43.8469 123.206 44.0264C123.565 44.1992 123.847 44.455 124.053 44.794L123.525 45.1529C123.352 44.8937 123.133 44.701 122.867 44.5747C122.601 44.4418 122.312 44.3753 121.999 44.3753C121.621 44.3753 121.278 44.4617 120.973 44.6345C120.673 44.8007 120.438 45.0399 120.265 45.3523C120.099 45.6647 120.015 46.0203 120.015 46.419C120.015 46.8245 120.099 47.1834 120.265 47.4957C120.438 47.8015 120.673 48.0407 120.973 48.2135C121.278 48.3797 121.621 48.4628 121.999 48.4628C122.312 48.4628 122.601 48.3996 122.867 48.2734C123.133 48.1471 123.352 47.9543 123.525 47.6951L124.053 48.054C123.847 48.393 123.565 48.6522 123.206 48.8317C122.847 49.0045 122.445 49.0909 121.999 49.0909ZM129.535 43.7971V49.041H128.827V44.4251H126.315L126.245 45.7212C126.192 46.8112 126.066 47.6486 125.867 48.2335C125.667 48.8184 125.312 49.1108 124.8 49.1108C124.66 49.1108 124.491 49.0842 124.291 49.031L124.341 48.4229C124.461 48.4495 124.544 48.4628 124.59 48.4628C124.863 48.4628 125.069 48.3365 125.209 48.0839C125.348 47.8314 125.441 47.519 125.488 47.1468C125.534 46.7746 125.574 46.2828 125.607 45.6713L125.697 43.7971H129.535ZM133.352 43.7572C134.037 43.7572 134.562 43.93 134.927 44.2756C135.293 44.6146 135.476 45.1197 135.476 45.791V49.041H134.798V48.2235C134.638 48.496 134.402 48.7087 134.09 48.8616C133.784 49.0144 133.418 49.0909 132.993 49.0909C132.408 49.0909 131.943 48.9513 131.597 48.6721C131.252 48.393 131.079 48.0241 131.079 47.5655C131.079 47.1202 131.238 46.7613 131.557 46.4888C131.883 46.2163 132.398 46.0801 133.103 46.0801H134.768V45.761C134.768 45.3091 134.641 44.9668 134.389 44.7342C134.136 44.4949 133.767 44.3753 133.282 44.3753C132.95 44.3753 132.631 44.4318 132.325 44.5448C132.019 44.6511 131.757 44.8007 131.538 44.9934L131.219 44.465C131.484 44.239 131.803 44.0662 132.176 43.9466C132.548 43.8203 132.94 43.7572 133.352 43.7572ZM133.103 48.5326C133.502 48.5326 133.844 48.4428 134.13 48.2634C134.415 48.0773 134.628 47.8114 134.768 47.4658V46.6085H133.123C132.225 46.6085 131.777 46.9208 131.777 47.5456C131.777 47.8513 131.893 48.0939 132.126 48.2734C132.358 48.4462 132.684 48.5326 133.103 48.5326ZM140.7 46.3293C141.411 46.4955 141.766 46.9242 141.766 47.6154C141.766 48.074 141.597 48.4262 141.258 48.6721C140.919 48.9181 140.414 49.041 139.743 49.041H137.36V43.7971H139.673C140.271 43.7971 140.739 43.9134 141.078 44.146C141.417 44.3786 141.587 44.7109 141.587 45.1429C141.587 45.4287 141.507 45.6746 141.348 45.8807C141.195 46.0801 140.979 46.2296 140.7 46.3293ZM138.048 46.1299H139.623C140.028 46.1299 140.337 46.0535 140.55 45.9006C140.769 45.7478 140.879 45.5251 140.879 45.2327C140.879 44.9402 140.769 44.7209 140.55 44.5747C140.337 44.4285 140.028 44.3553 139.623 44.3553H138.048V46.1299ZM139.713 48.4827C140.165 48.4827 140.504 48.4096 140.73 48.2634C140.955 48.1172 141.068 47.8879 141.068 47.5755C141.068 47.2631 140.965 47.0338 140.759 46.8876C140.553 46.7347 140.228 46.6583 139.782 46.6583H138.048V48.4827H139.713ZM145.619 49.0909C145.1 49.0909 144.635 48.9779 144.223 48.7519C143.817 48.5259 143.498 48.2102 143.266 47.8048C143.033 47.3927 142.917 46.9308 142.917 46.419C142.917 45.9073 143.033 45.4487 143.266 45.0432C143.498 44.6378 143.817 44.3221 144.223 44.0961C144.635 43.8702 145.1 43.7572 145.619 43.7572C146.07 43.7572 146.473 43.8469 146.825 44.0264C147.184 44.1992 147.466 44.455 147.672 44.794L147.144 45.1529C146.971 44.8937 146.752 44.701 146.486 44.5747C146.22 44.4418 145.931 44.3753 145.619 44.3753C145.24 44.3753 144.897 44.4617 144.592 44.6345C144.293 44.8007 144.057 45.0399 143.884 45.3523C143.718 45.6647 143.635 46.0203 143.635 46.419C143.635 46.8245 143.718 47.1834 143.884 47.4957C144.057 47.8015 144.293 48.0407 144.592 48.2135C144.897 48.3797 145.24 48.4628 145.619 48.4628C145.931 48.4628 146.22 48.3996 146.486 48.2734C146.752 48.1471 146.971 47.9543 147.144 47.6951L147.672 48.054C147.466 48.393 147.184 48.6522 146.825 48.8317C146.466 49.0045 146.064 49.0909 145.619 49.0909ZM150.947 46.7082H149.751V49.041H149.043V43.7971H149.751V46.1H150.957L152.801 43.7971H153.569L151.505 46.3393L153.719 49.041H152.881L150.947 46.7082ZM156.814 49.0909C156.309 49.0909 155.854 48.9779 155.448 48.7519C155.043 48.5193 154.724 48.2003 154.491 47.7948C154.259 47.3894 154.142 46.9308 154.142 46.419C154.142 45.9073 154.259 45.4487 154.491 45.0432C154.724 44.6378 155.043 44.3221 155.448 44.0961C155.854 43.8702 156.309 43.7572 156.814 43.7572C157.319 43.7572 157.774 43.8702 158.18 44.0961C158.585 44.3221 158.901 44.6378 159.127 45.0432C159.36 45.4487 159.476 45.9073 159.476 46.419C159.476 46.9308 159.36 47.3894 159.127 47.7948C158.901 48.2003 158.585 48.5193 158.18 48.7519C157.774 48.9779 157.319 49.0909 156.814 49.0909ZM156.814 48.4628C157.186 48.4628 157.519 48.3797 157.811 48.2135C158.11 48.0407 158.343 47.7982 158.509 47.4858C158.675 47.1734 158.758 46.8178 158.758 46.419C158.758 46.0203 158.675 45.6647 158.509 45.3523C158.343 45.0399 158.11 44.8007 157.811 44.6345C157.519 44.4617 157.186 44.3753 156.814 44.3753C156.442 44.3753 156.106 44.4617 155.807 44.6345C155.515 44.8007 155.282 45.0399 155.109 45.3523C154.943 45.6647 154.86 46.0203 154.86 46.419C154.86 46.8178 154.943 47.1734 155.109 47.4858C155.282 47.7982 155.515 48.0407 155.807 48.2135C156.106 48.3797 156.442 48.4628 156.814 48.4628ZM164.697 44.4251H161.697V49.041H160.989V43.7971H164.697V44.4251ZM167.64 49.0909C167.135 49.0909 166.68 48.9779 166.274 48.7519C165.869 48.5193 165.55 48.2003 165.317 47.7948C165.085 47.3894 164.968 46.9308 164.968 46.419C164.968 45.9073 165.085 45.4487 165.317 45.0432C165.55 44.6378 165.869 44.3221 166.274 44.0961C166.68 43.8702 167.135 43.7572 167.64 43.7572C168.145 43.7572 168.601 43.8702 169.006 44.0961C169.412 44.3221 169.727 44.6378 169.953 45.0432C170.186 45.4487 170.302 45.9073 170.302 46.419C170.302 46.9308 170.186 47.3894 169.953 47.7948C169.727 48.2003 169.412 48.5193 169.006 48.7519C168.601 48.9779 168.145 49.0909 167.64 49.0909ZM167.64 48.4628C168.013 48.4628 168.345 48.3797 168.637 48.2135C168.936 48.0407 169.169 47.7982 169.335 47.4858C169.501 47.1734 169.584 46.8178 169.584 46.419C169.584 46.0203 169.501 45.6647 169.335 45.3523C169.169 45.0399 168.936 44.8007 168.637 44.6345C168.345 44.4617 168.013 44.3753 167.64 44.3753C167.268 44.3753 166.932 44.4617 166.633 44.6345C166.341 44.8007 166.108 45.0399 165.936 45.3523C165.769 45.6647 165.686 46.0203 165.686 46.419C165.686 46.8178 165.769 47.1734 165.936 47.4858C166.108 47.7982 166.341 48.0407 166.633 48.2135C166.932 48.3797 167.268 48.4628 167.64 48.4628ZM175.87 42.0624V49.041H175.152V42.7004H173.507V42.0624H175.87ZM180.429 44.8638C180.888 44.8638 181.293 44.9502 181.645 45.123C182.004 45.2958 182.283 45.5417 182.483 45.8607C182.682 46.1731 182.782 46.5387 182.782 46.9574C182.782 47.3828 182.679 47.7583 182.473 48.0839C182.267 48.4096 181.981 48.6622 181.615 48.8416C181.257 49.0144 180.851 49.1008 180.399 49.1008C179.475 49.1008 178.768 48.7984 178.276 48.1936C177.784 47.5821 177.538 46.7214 177.538 45.6115C177.538 44.8339 177.671 44.1759 177.937 43.6375C178.203 43.0992 178.575 42.6938 179.053 42.4213C179.532 42.1421 180.09 42.0025 180.728 42.0025C181.419 42.0025 181.971 42.1288 182.383 42.3814L182.094 42.9596C181.762 42.7403 181.31 42.6306 180.738 42.6306C179.967 42.6306 179.362 42.8765 178.924 43.3684C178.485 43.8536 178.266 44.5614 178.266 45.4919C178.266 45.658 178.276 45.8475 178.296 46.0601C178.468 45.6813 178.744 45.3889 179.123 45.1828C179.502 44.9701 179.937 44.8638 180.429 44.8638ZM180.369 48.4927C180.874 48.4927 181.283 48.3564 181.596 48.0839C181.915 47.8048 182.074 47.4359 182.074 46.9773C182.074 46.5187 181.915 46.1532 181.596 45.8807C181.283 45.6082 180.858 45.4719 180.319 45.4719C179.967 45.4719 179.655 45.5384 179.382 45.6713C179.116 45.8042 178.907 45.987 178.754 46.2196C178.601 46.4523 178.525 46.7115 178.525 46.9973C178.525 47.2631 178.595 47.509 178.734 47.735C178.88 47.961 179.093 48.1438 179.372 48.2833C179.651 48.4229 179.984 48.4927 180.369 48.4927ZM186.233 40.6467H186.881L183.591 50.038H182.943L186.233 40.6467ZM189.286 42.0624V49.041H188.568V42.7004H186.923V42.0624H189.286Z" fill="black"/>
<g filter="url(#filter3_d_3_2)">
<line x1="166.211" y1="245.97" x2="90.157" y2="297.252" stroke="white" stroke-width="1.39286"/>
</g>
<g filter="url(#filter4_d_3_2)">
<circle cx="84.8928" cy="296.233" r="13.2321" fill="white"/>
<circle cx="84.8928" cy="296.233" r="12.1295" stroke="#0074C9" stroke-width="2.20536"/>
</g>
<g filter="url(#filter5_d_3_2)">
<rect x="128.768" y="234.25" width="183.509" height="43.1786" rx="21.5893" fill="white"/>
</g>
<g clip-path="url(#clip1_3_2)">
<path d="M157.856 253.458C157.504 253.458 157.16 253.562 156.867 253.758C156.574 253.953 156.346 254.231 156.211 254.557C156.076 254.882 156.041 255.24 156.11 255.585C156.179 255.93 156.348 256.248 156.597 256.497C156.846 256.746 157.163 256.915 157.509 256.984C157.854 257.053 158.212 257.017 158.537 256.883C158.863 256.748 159.141 256.52 159.336 256.227C159.532 255.934 159.636 255.59 159.636 255.238C159.636 254.766 159.449 254.313 159.115 253.979C158.781 253.645 158.328 253.458 157.856 253.458ZM157.856 256.128C157.68 256.128 157.508 256.076 157.361 255.978C157.215 255.88 157.101 255.741 157.034 255.578C156.966 255.416 156.949 255.237 156.983 255.064C157.017 254.891 157.102 254.733 157.227 254.608C157.351 254.484 157.51 254.399 157.682 254.365C157.855 254.33 158.034 254.348 158.197 254.415C158.359 254.483 158.498 254.597 158.596 254.743C158.694 254.89 158.746 255.062 158.746 255.238C158.746 255.474 158.652 255.7 158.485 255.867C158.318 256.034 158.092 256.128 157.856 256.128Z" fill="#0074C9"/>
<path d="M157.856 261.469C157.481 261.471 157.111 261.383 156.778 261.213C156.444 261.042 156.156 260.795 155.937 260.49C154.241 258.15 153.381 256.391 153.381 255.262C153.381 254.075 153.852 252.937 154.692 252.097C155.531 251.258 156.669 250.787 157.856 250.787C159.043 250.787 160.181 251.258 161.02 252.097C161.86 252.937 162.331 254.075 162.331 255.262C162.331 256.391 161.471 258.15 159.775 260.49C159.556 260.795 159.268 261.042 158.934 261.213C158.601 261.383 158.231 261.471 157.856 261.469ZM157.856 251.758C156.927 251.759 156.036 252.129 155.379 252.786C154.722 253.443 154.353 254.334 154.352 255.263C154.352 256.157 155.194 257.812 156.723 259.921C156.853 260.1 157.023 260.245 157.22 260.345C157.417 260.446 157.635 260.498 157.856 260.498C158.077 260.498 158.295 260.446 158.492 260.345C158.689 260.245 158.859 260.1 158.989 259.921C160.518 257.812 161.36 256.157 161.36 255.263C161.359 254.334 160.99 253.443 160.333 252.786C159.676 252.129 158.785 251.759 157.856 251.758Z" fill="#0074C9"/>
</g>
<path d="M172.22 254.119L169.598 259.991C169.385 260.483 169.14 260.832 168.86 261.038C168.581 261.244 168.246 261.347 167.853 261.347C167.601 261.347 167.365 261.307 167.146 261.228C166.926 261.148 166.737 261.028 166.577 260.869L166.906 260.34C167.172 260.606 167.491 260.739 167.863 260.739C168.103 260.739 168.305 260.673 168.472 260.54C168.644 260.407 168.804 260.181 168.95 259.862L169.179 259.353L166.837 254.119H167.574L169.548 258.576L171.522 254.119H172.22ZM177.376 254.119V259.363H176.668V254.747H174.156L174.086 256.043C174.033 257.133 173.907 257.971 173.707 258.556C173.508 259.141 173.152 259.433 172.641 259.433C172.501 259.433 172.332 259.406 172.132 259.353L172.182 258.745C172.302 258.772 172.385 258.785 172.431 258.785C172.704 258.785 172.91 258.659 173.049 258.406C173.189 258.154 173.282 257.841 173.329 257.469C173.375 257.097 173.415 256.605 173.448 255.994L173.538 254.119H177.376ZM179.438 259.413C179.292 259.413 179.166 259.36 179.059 259.254C178.96 259.147 178.91 259.018 178.91 258.865C178.91 258.712 178.96 258.586 179.059 258.486C179.166 258.38 179.292 258.326 179.438 258.326C179.584 258.326 179.711 258.38 179.817 258.486C179.923 258.586 179.977 258.712 179.977 258.865C179.977 259.018 179.923 259.147 179.817 259.254C179.711 259.36 179.584 259.413 179.438 259.413ZM187.33 259.423C186.639 259.423 186.014 259.27 185.456 258.965C184.904 258.659 184.469 258.237 184.15 257.698C183.838 257.153 183.682 256.545 183.682 255.874C183.682 255.203 183.838 254.598 184.15 254.06C184.469 253.515 184.908 253.089 185.466 252.783C186.024 252.478 186.649 252.325 187.34 252.325C187.859 252.325 188.337 252.411 188.776 252.584C189.215 252.757 189.587 253.009 189.893 253.342L189.424 253.81C188.879 253.259 188.191 252.983 187.36 252.983C186.809 252.983 186.307 253.109 185.855 253.362C185.403 253.614 185.047 253.96 184.788 254.398C184.536 254.837 184.409 255.329 184.409 255.874C184.409 256.419 184.536 256.911 184.788 257.349C185.047 257.788 185.403 258.134 185.855 258.386C186.307 258.639 186.809 258.765 187.36 258.765C188.198 258.765 188.886 258.486 189.424 257.928L189.893 258.396C189.587 258.729 189.211 258.984 188.766 259.164C188.327 259.337 187.849 259.423 187.33 259.423ZM194.789 254.747H192.805V259.363H192.098V254.747H190.114V254.119H194.789V254.747ZM197.617 254.079C198.302 254.079 198.827 254.252 199.192 254.598C199.558 254.937 199.741 255.442 199.741 256.113V259.363H199.063V258.546C198.903 258.818 198.667 259.031 198.355 259.184C198.049 259.337 197.684 259.413 197.258 259.413C196.673 259.413 196.208 259.274 195.863 258.994C195.517 258.715 195.344 258.346 195.344 257.888C195.344 257.442 195.504 257.084 195.823 256.811C196.148 256.539 196.663 256.402 197.368 256.402H199.033V256.083C199.033 255.631 198.907 255.289 198.654 255.056C198.401 254.817 198.033 254.698 197.547 254.698C197.215 254.698 196.896 254.754 196.59 254.867C196.285 254.973 196.022 255.123 195.803 255.316L195.484 254.787C195.75 254.561 196.069 254.388 196.441 254.269C196.813 254.143 197.205 254.079 197.617 254.079ZM197.368 258.855C197.767 258.855 198.109 258.765 198.395 258.586C198.681 258.4 198.893 258.134 199.033 257.788V256.931H197.388C196.491 256.931 196.042 257.243 196.042 257.868C196.042 258.174 196.158 258.416 196.391 258.596C196.624 258.768 196.949 258.855 197.368 258.855ZM201.625 254.119H202.333V256.442H205.633V254.119H206.341V259.363H205.633V257.05H202.333V259.363H201.625V254.119ZM208.352 254.119H209.06V258.287L212.56 254.119H213.188V259.363H212.48V255.196L208.991 259.363H208.352V254.119ZM217.41 259.413C216.891 259.413 216.426 259.3 216.014 259.074C215.608 258.848 215.289 258.532 215.057 258.127C214.824 257.715 214.708 257.253 214.708 256.741C214.708 256.23 214.824 255.771 215.057 255.366C215.289 254.96 215.608 254.644 216.014 254.418C216.426 254.192 216.891 254.079 217.41 254.079C217.861 254.079 218.264 254.169 218.616 254.349C218.975 254.521 219.257 254.777 219.463 255.116L218.935 255.475C218.762 255.216 218.543 255.023 218.277 254.897C218.011 254.764 217.722 254.698 217.41 254.698C217.031 254.698 216.688 254.784 216.383 254.957C216.084 255.123 215.848 255.362 215.675 255.675C215.509 255.987 215.426 256.343 215.426 256.741C215.426 257.147 215.509 257.506 215.675 257.818C215.848 258.124 216.084 258.363 216.383 258.536C216.688 258.702 217.031 258.785 217.41 258.785C217.722 258.785 218.011 258.722 218.277 258.596C218.543 258.469 218.762 258.277 218.935 258.017L219.463 258.376C219.257 258.715 218.975 258.974 218.616 259.154C218.257 259.327 217.855 259.413 217.41 259.413ZM224.945 254.119V259.363H224.238V254.747H221.725L221.656 256.043C221.602 257.133 221.476 257.971 221.277 258.556C221.077 259.141 220.722 259.433 220.21 259.433C220.07 259.433 219.901 259.406 219.702 259.353L219.751 258.745C219.871 258.772 219.954 258.785 220.001 258.785C220.273 258.785 220.479 258.659 220.619 258.406C220.758 258.154 220.851 257.841 220.898 257.469C220.944 257.097 220.984 256.605 221.017 255.994L221.107 254.119H224.945ZM228.762 254.079C229.447 254.079 229.972 254.252 230.337 254.598C230.703 254.937 230.886 255.442 230.886 256.113V259.363H230.208V258.546C230.048 258.818 229.812 259.031 229.5 259.184C229.194 259.337 228.829 259.413 228.403 259.413C227.818 259.413 227.353 259.274 227.008 258.994C226.662 258.715 226.489 258.346 226.489 257.888C226.489 257.442 226.649 257.084 226.968 256.811C227.293 256.539 227.808 256.402 228.513 256.402H230.178V256.083C230.178 255.631 230.052 255.289 229.799 255.056C229.546 254.817 229.178 254.698 228.692 254.698C228.36 254.698 228.041 254.754 227.735 254.867C227.43 254.973 227.167 255.123 226.948 255.316L226.629 254.787C226.895 254.561 227.214 254.388 227.586 254.269C227.958 254.143 228.35 254.079 228.762 254.079ZM228.513 258.855C228.912 258.855 229.254 258.765 229.54 258.586C229.826 258.4 230.038 258.134 230.178 257.788V256.931H228.533C227.636 256.931 227.187 257.243 227.187 257.868C227.187 258.174 227.303 258.416 227.536 258.596C227.769 258.768 228.094 258.855 228.513 258.855ZM236.11 256.652C236.821 256.818 237.177 257.246 237.177 257.938C237.177 258.396 237.007 258.748 236.668 258.994C236.329 259.24 235.824 259.363 235.153 259.363H232.77V254.119H235.083C235.681 254.119 236.15 254.236 236.489 254.468C236.828 254.701 236.997 255.033 236.997 255.465C236.997 255.751 236.917 255.997 236.758 256.203C236.605 256.402 236.389 256.552 236.11 256.652ZM233.458 256.452H235.033C235.438 256.452 235.748 256.376 235.96 256.223C236.18 256.07 236.289 255.847 236.289 255.555C236.289 255.262 236.18 255.043 235.96 254.897C235.748 254.751 235.438 254.678 235.033 254.678H233.458V256.452ZM235.123 258.805C235.575 258.805 235.914 258.732 236.14 258.586C236.366 258.439 236.479 258.21 236.479 257.898C236.479 257.585 236.376 257.356 236.17 257.21C235.964 257.057 235.638 256.981 235.193 256.981H233.458V258.805H235.123ZM241.029 259.413C240.51 259.413 240.045 259.3 239.633 259.074C239.228 258.848 238.909 258.532 238.676 258.127C238.443 257.715 238.327 257.253 238.327 256.741C238.327 256.23 238.443 255.771 238.676 255.366C238.909 254.96 239.228 254.644 239.633 254.418C240.045 254.192 240.51 254.079 241.029 254.079C241.481 254.079 241.883 254.169 242.235 254.349C242.594 254.521 242.876 254.777 243.082 255.116L242.554 255.475C242.381 255.216 242.162 255.023 241.896 254.897C241.63 254.764 241.341 254.698 241.029 254.698C240.65 254.698 240.308 254.784 240.002 254.957C239.703 255.123 239.467 255.362 239.294 255.675C239.128 255.987 239.045 256.343 239.045 256.741C239.045 257.147 239.128 257.506 239.294 257.818C239.467 258.124 239.703 258.363 240.002 258.536C240.308 258.702 240.65 258.785 241.029 258.785C241.341 258.785 241.63 258.722 241.896 258.596C242.162 258.469 242.381 258.277 242.554 258.017L243.082 258.376C242.876 258.715 242.594 258.974 242.235 259.154C241.876 259.327 241.474 259.413 241.029 259.413ZM246.357 257.03H245.161V259.363H244.453V254.119H245.161V256.422H246.367L248.211 254.119H248.979L246.915 256.662L249.129 259.363H248.291L246.357 257.03ZM252.224 259.413C251.719 259.413 251.264 259.3 250.858 259.074C250.453 258.842 250.134 258.523 249.901 258.117C249.669 257.712 249.552 257.253 249.552 256.741C249.552 256.23 249.669 255.771 249.901 255.366C250.134 254.96 250.453 254.644 250.858 254.418C251.264 254.192 251.719 254.079 252.224 254.079C252.729 254.079 253.185 254.192 253.59 254.418C253.995 254.644 254.311 254.96 254.537 255.366C254.77 255.771 254.886 256.23 254.886 256.741C254.886 257.253 254.77 257.712 254.537 258.117C254.311 258.523 253.995 258.842 253.59 259.074C253.185 259.3 252.729 259.413 252.224 259.413ZM252.224 258.785C252.596 258.785 252.929 258.702 253.221 258.536C253.52 258.363 253.753 258.12 253.919 257.808C254.085 257.496 254.168 257.14 254.168 256.741C254.168 256.343 254.085 255.987 253.919 255.675C253.753 255.362 253.52 255.123 253.221 254.957C252.929 254.784 252.596 254.698 252.224 254.698C251.852 254.698 251.516 254.784 251.217 254.957C250.925 255.123 250.692 255.362 250.519 255.675C250.353 255.987 250.27 256.343 250.27 256.741C250.27 257.14 250.353 257.496 250.519 257.808C250.692 258.12 250.925 258.363 251.217 258.536C251.516 258.702 251.852 258.785 252.224 258.785ZM260.108 254.747H257.107V259.363H256.399V254.119H260.108V254.747ZM263.05 259.413C262.545 259.413 262.09 259.3 261.685 259.074C261.279 258.842 260.96 258.523 260.728 258.117C260.495 257.712 260.379 257.253 260.379 256.741C260.379 256.23 260.495 255.771 260.728 255.366C260.96 254.96 261.279 254.644 261.685 254.418C262.09 254.192 262.545 254.079 263.05 254.079C263.556 254.079 264.011 254.192 264.416 254.418C264.822 254.644 265.137 254.96 265.363 255.366C265.596 255.771 265.712 256.23 265.712 256.741C265.712 257.253 265.596 257.712 265.363 258.117C265.137 258.523 264.822 258.842 264.416 259.074C264.011 259.3 263.556 259.413 263.05 259.413ZM263.05 258.785C263.423 258.785 263.755 258.702 264.047 258.536C264.347 258.363 264.579 258.12 264.745 257.808C264.911 257.496 264.995 257.14 264.995 256.741C264.995 256.343 264.911 255.987 264.745 255.675C264.579 255.362 264.347 255.123 264.047 254.957C263.755 254.784 263.423 254.698 263.05 254.698C262.678 254.698 262.343 254.784 262.044 254.957C261.751 255.123 261.518 255.362 261.346 255.675C261.18 255.987 261.096 256.343 261.096 256.741C261.096 257.14 261.18 257.496 261.346 257.808C261.518 258.12 261.751 258.363 262.044 258.536C262.343 258.702 262.678 258.785 263.05 258.785ZM271.28 252.385V259.363H270.562V253.023H268.917V252.385H271.28ZM275.839 255.186C276.298 255.186 276.703 255.272 277.056 255.445C277.414 255.618 277.694 255.864 277.893 256.183C278.092 256.495 278.192 256.861 278.192 257.28C278.192 257.705 278.089 258.081 277.883 258.406C277.677 258.732 277.391 258.984 277.026 259.164C276.667 259.337 276.261 259.423 275.809 259.423C274.886 259.423 274.178 259.121 273.686 258.516C273.194 257.904 272.948 257.044 272.948 255.934C272.948 255.156 273.081 254.498 273.347 253.96C273.613 253.421 273.985 253.016 274.463 252.744C274.942 252.464 275.5 252.325 276.138 252.325C276.83 252.325 277.381 252.451 277.793 252.704L277.504 253.282C277.172 253.063 276.72 252.953 276.148 252.953C275.377 252.953 274.773 253.199 274.334 253.691C273.895 254.176 273.676 254.884 273.676 255.814C273.676 255.98 273.686 256.17 273.706 256.382C273.879 256.004 274.154 255.711 274.533 255.505C274.912 255.292 275.347 255.186 275.839 255.186ZM275.779 258.815C276.285 258.815 276.693 258.679 277.006 258.406C277.325 258.127 277.484 257.758 277.484 257.3C277.484 256.841 277.325 256.475 277.006 256.203C276.693 255.93 276.268 255.794 275.73 255.794C275.377 255.794 275.065 255.861 274.792 255.994C274.527 256.127 274.317 256.309 274.164 256.542C274.012 256.775 273.935 257.034 273.935 257.32C273.935 257.585 274.005 257.831 274.144 258.057C274.291 258.283 274.503 258.466 274.782 258.606C275.062 258.745 275.394 258.815 275.779 258.815ZM281.643 250.969H282.291L279.001 260.36H278.353L281.643 250.969ZM284.696 252.385V259.363H283.978V253.023H282.333V252.385H284.696Z" fill="black"/>
<defs>
<filter id="filter0_d_3_2" x="175.89" y="44.8218" width="80.3235" height="73.4646" filterUnits="userSpaceOnUse" color-interpolation-filters="sRGB">
<feFlood flood-opacity="0" result="BackgroundImageFix"/>
<feColorMatrix in="SourceAlpha" type="matrix" values="0 0 0 0 0 0 0 0 0 0 0 0 0 0 0 0 0 0 127 0" result="hardAlpha"/>
<feOffset dy="5.57143"/>
<feGaussianBlur stdDeviation="2.78571"/>
<feColorMatrix type="matrix" values="0 0 0 0 0 0 0 0 0 0 0 0 0 0 0 0 0 0 0.25 0"/>
<feBlend mode="normal" in2="BackgroundImageFix" result="effect1_dropShadow_3_2"/>
<feBlend mode="normal" in="SourceGraphic" in2="effect1_dropShadow_3_2" result="shape"/>
</filter>
<filter id="filter1_d_3_2" x="226.5" y="94.9648" width="44.1072" height="44.1072" filterUnits="userSpaceOnUse" color-interpolation-filters="sRGB">
<feFlood flood-opacity="0" result="BackgroundImageFix"/>
<feColorMatrix in="SourceAlpha" type="matrix" values="0 0 0 0 0 0 0 0 0 0 0 0 0 0 0 0 0 0 127 0" result="hardAlpha"/>
<feOffset dy="8.82143"/>
<feGaussianBlur stdDeviation="4.41071"/>
<feColorMatrix type="matrix" values="0 0 0 0 0 0 0 0 0 0 0 0 0 0 0 0 0 0 0.25 0"/>
<feBlend mode="normal" in2="BackgroundImageFix" result="effect1_dropShadow_3_2"/>
<feBlend mode="normal" in="SourceGraphic" in2="effect1_dropShadow_3_2" result="shape"/>
</filter>
<filter id="filter2_d_3_2" x="0.972516" y="0.180496" width="248.277" height="107.947" filterUnits="userSpaceOnUse" color-interpolation-filters="sRGB">
<feFlood flood-opacity="0" result="BackgroundImageFix"/>
<feColorMatrix in="SourceAlpha" type="matrix" values="0 0 0 0 0 0 0 0 0 0 0 0 0 0 0 0 0 0 127 0" result="hardAlpha"/>
<feMorphology radius="4.31786" operator="dilate" in="SourceAlpha" result="effect1_dropShadow_3_2"/>
<feOffset dy="8.63571"/>
<feGaussianBlur stdDeviation="14.033"/>
<feComposite in2="hardAlpha" operator="out"/>
<feColorMatrix type="matrix" values="0 0 0 0 0 0 0 0 0 0.454902 0 0 0 0 0.788235 0 0 0 0.22 0"/>
<feBlend mode="normal" in2="BackgroundImageFix" result="effect1_dropShadow_3_2"/>
<feBlend mode="normal" in="SourceGraphic" in2="effect1_dropShadow_3_2" result="shape"/>
</filter>
<filter id="filter3_d_3_2" x="84.1961" y="245.393" width="87.9759" height="63.5789" filterUnits="userSpaceOnUse" color-interpolation-filters="sRGB">
<feFlood flood-opacity="0" result="BackgroundImageFix"/>
<feColorMatrix in="SourceAlpha" type="matrix" values="0 0 0 0 0 0 0 0 0 0 0 0 0 0 0 0 0 0 127 0" result="hardAlpha"/>
<feOffset dy="5.57143"/>
<feGaussianBlur stdDeviation="2.78571"/>
<feColorMatrix type="matrix" values="0 0 0 0 0 0 0 0 0 0 0 0 0 0 0 0 0 0 0.25 0"/>
<feBlend mode="normal" in2="BackgroundImageFix" result="effect1_dropShadow_3_2"/>
<feBlend mode="normal" in="SourceGraphic" in2="effect1_dropShadow_3_2" result="shape"/>
</filter>
<filter id="filter4_d_3_2" x="62.8392" y="283" width="44.1072" height="44.1072" filterUnits="userSpaceOnUse" color-interpolation-filters="sRGB">
<feFlood flood-opacity="0" result="BackgroundImageFix"/>
<feColorMatrix in="SourceAlpha" type="matrix" values="0 0 0 0 0 0 0 0 0 0 0 0 0 0 0 0 0 0 127 0" result="hardAlpha"/>
<feOffset dy="8.82143"/>
<feGaussianBlur stdDeviation="4.41071"/>
<feColorMatrix type="matrix" values="0 0 0 0 0 0 0 0 0 0 0 0 0 0 0 0 0 0 0.25 0"/>
<feBlend mode="normal" in2="BackgroundImageFix" result="effect1_dropShadow_3_2"/>
<feBlend mode="normal" in="SourceGraphic" in2="effect1_dropShadow_3_2" result="shape"/>
</filter>
<filter id="filter5_d_3_2" x="96.3836" y="210.502" width="248.277" height="107.947" filterUnits="userSpaceOnUse" color-interpolation-filters="sRGB">
<feFlood flood-opacity="0" result="BackgroundImageFix"/>
<feColorMatrix in="SourceAlpha" type="matrix" values="0 0 0 0 0 0 0 0 0 0 0 0 0 0 0 0 0 0 127 0" result="hardAlpha"/>
<feMorphology radius="4.31786" operator="dilate" in="SourceAlpha" result="effect1_dropShadow_3_2"/>
<feOffset dy="8.63571"/>
<feGaussianBlur stdDeviation="14.033"/>
<feComposite in2="hardAlpha" operator="out"/>
<feColorMatrix type="matrix" values="0 0 0 0 0 0 0 0 0 0.454902 0 0 0 0 0.788235 0 0 0 0.22 0"/>
<feBlend mode="normal" in2="BackgroundImageFix" result="effect1_dropShadow_3_2"/>
<feBlend mode="normal" in="SourceGraphic" in2="effect1_dropShadow_3_2" result="shape"/>
</filter>
<clipPath id="clip0_3_2">
<rect width="10.6816" height="10.6816" fill="white" transform="translate(57.1045 40.4648)"/>
</clipPath>
<clipPath id="clip1_3_2">
<rect width="10.6816" height="10.6816" fill="white" transform="translate(152.515 250.787)"/>
</clipPath>
</defs>
</svg>
