<svg width="54" height="55" fill="none" xmlns="http://www.w3.org/2000/svg"><circle cx="26.852" cy="27.447" r="26.808" fill="#fff"/><g clip-path="url(#a)" fill="#F83A16"><path d="M35.535 40.772a4.372 4.372 0 0 1 0-8.741 4.372 4.372 0 0 1 0 8.741Zm0-7.284a2.922 2.922 0 0 0-2.914 2.913 2.922 2.922 0 0 0 2.914 2.914 2.922 2.922 0 0 0 2.914-2.913 2.922 2.922 0 0 0-2.914-2.914Zm-16.027 7.284a4.372 4.372 0 0 1 0-8.741 4.372 4.372 0 0 1 0 8.741Zm0-7.284a2.923 2.923 0 0 0-2.914 2.913 2.923 2.923 0 0 0 2.914 2.914 2.923 2.923 0 0 0 2.914-2.913 2.923 2.923 0 0 0-2.914-2.914Z"/><path d="M23.078 36.401h8.887v1.458h-8.887V36.4ZM11.494 25.474h32.054v1.457H11.494v-1.457Z"/><path d="M44.277 37.858h-5.172v-1.457h3.715V18.19c0-.801-.656-1.457-1.457-1.457h-29.14v19.67h3.715v1.456h-5.172V15.276h30.597a2.923 2.923 0 0 1 2.914 2.914v19.67Z"/><path d="m24.684 11.408 4.082 4.082-1.03 1.03-4.083-4.082 1.03-1.03Z"/></g><defs><clipPath id="a"><path fill="#fff" transform="translate(10.767 11.362)" d="M0 0h33.511v33.511H0z"/></clipPath></defs></svg>