<svg width="54" height="54" fill="none" xmlns="http://www.w3.org/2000/svg"><circle cx="26.852" cy="26.873" r="26.808" fill="#fff"/><g clip-path="url(#a)" fill="#F83A16"><path d="M14.285 31.062a4.194 4.194 0 0 0-4.189 4.188 4.194 4.194 0 0 0 4.189 4.19c2.31 0 4.189-1.88 4.189-4.19a4.194 4.194 0 0 0-4.189-4.188Zm0 6.702a2.516 2.516 0 0 1-2.513-2.514 2.516 2.516 0 0 1 2.513-2.513 2.516 2.516 0 0 1 2.513 2.514 2.516 2.516 0 0 1-2.513 2.513Zm25.132-6.702a4.194 4.194 0 0 0-4.189 4.188 4.194 4.194 0 0 0 4.189 4.19c2.31 0 4.189-1.88 4.189-4.19a4.194 4.194 0 0 0-4.19-4.188Zm0 6.702a2.516 2.516 0 0 1-2.514-2.514 2.516 2.516 0 0 1 2.514-2.513 2.516 2.516 0 0 1 2.513 2.514 2.516 2.516 0 0 1-2.513 2.513ZM32.715 27.71h-1.676a.838.838 0 0 0 0 1.676h1.675a.838.838 0 0 0 0-1.676Z"/><path d="M45.053 24.904a6.904 6.904 0 0 1-3.208-1.818l-7.555-7.553a4.165 4.165 0 0 0-2.962-1.227H10.933a4.194 4.194 0 0 0-4.189 4.189v13.404a4.194 4.194 0 0 0 4.189 4.189.838.838 0 0 0 0-1.675 2.516 2.516 0 0 1-2.513-2.514V18.495a2.516 2.516 0 0 1 2.513-2.513h20.395c.66 0 1.308.268 1.775.737l7.555 7.553a8.561 8.561 0 0 0 3.988 2.259.837.837 0 0 1 .635.813v4.555a2.516 2.516 0 0 1-2.513 2.514.838.838 0 0 0 0 1.675c2.31 0 4.189-1.88 4.189-4.189v-4.556a2.513 2.513 0 0 0-1.904-2.44Z"/><path d="M36.066 34.412h-18.43a.838.838 0 0 0 0 1.676h18.43a.838.838 0 0 0 0-1.676Zm1.675-10.052h-9.215v-5.865a.838.838 0 0 0-1.676 0v6.702c0 .463.375.838.838.838H37.74a.838.838 0 0 0 0-1.675Zm-13.403 0h-4.189v-5.865a.838.838 0 0 0-1.675 0v6.702c0 .463.375.838.837.838h5.027a.838.838 0 0 0 0-1.675Zm-8.378 0h-4.188v-5.865a.838.838 0 0 0-1.676 0v6.702c0 .463.376.838.838.838h5.027a.838.838 0 0 0 0-1.675Z"/></g><defs><clipPath id="a"><path fill="#fff" transform="translate(6.745 6.766)" d="M0 0h40.213v40.213H0z"/></clipPath></defs></svg>