<svg width="95" height="93" fill="none" xmlns="http://www.w3.org/2000/svg"><g filter="url(#a)"><ellipse cx="47.609" cy="46.431" rx="47.108" ry="45.924" fill="#fff" fill-opacity=".2"/><path d="M94.288 46.431c0 25.116-20.888 45.496-46.68 45.496C21.819 91.927.93 71.547.93 46.43.93 21.315 21.818.936 47.609.936c25.79 0 46.68 20.38 46.68 45.495Z" stroke="url(#b)" stroke-opacity=".4" stroke-width=".857"/></g><ellipse cx="48.105" cy="46.542" rx="22.81" ry="22.237" fill="#fff"/><g clip-path="url(#c)" fill="#0074C9"><path d="M44.663 52.84a.301.301 0 0 1-.147-.037.292.292 0 0 1-.16-.257V39.862a.29.29 0 0 1 .16-.257.315.315 0 0 1 .311.01l10.349 6.342a.29.29 0 0 1 0 .496l-10.349 6.342a.32.32 0 0 1-.164.044Zm.306-12.441V52.01l9.474-5.806-9.474-5.805Zm.754 18.237a.355.355 0 0 1-.057-.004 13.425 13.425 0 0 1-3.748-1.262 13.217 13.217 0 0 1-3.13-2.226 12.73 12.73 0 0 1-2.32-3.006 12.207 12.207 0 0 1-1.315-3.598.295.295 0 0 1 .245-.343.305.305 0 0 1 .357.235c.946 4.849 4.975 8.716 10.026 9.623.166.03.275.183.245.343a.309.309 0 0 1-.303.238Zm4.764 0a.303.303 0 0 1-.3-.24.295.295 0 0 1 .244-.343c5.051-.907 9.08-4.774 10.026-9.623.03-.16.19-.264.357-.235a.295.295 0 0 1 .245.343 12.212 12.212 0 0 1-1.315 3.598 12.76 12.76 0 0 1-2.32 3.005 13.217 13.217 0 0 1-3.13 2.229 13.426 13.426 0 0 1-3.748 1.261.399.399 0 0 1-.059.005ZM35.452 44.204a.295.295 0 0 1-.301-.348 12.212 12.212 0 0 1 1.314-3.598 12.758 12.758 0 0 1 2.32-3.005 13.195 13.195 0 0 1 3.131-2.227 13.427 13.427 0 0 1 3.748-1.261.305.305 0 0 1 .358.235.295.295 0 0 1-.245.343c-5.051.907-9.08 4.774-10.026 9.623a.301.301 0 0 1-.299.238Zm25.306 0a.303.303 0 0 1-.302-.24c-.945-4.848-4.974-8.715-10.025-9.622a.295.295 0 0 1-.245-.343.306.306 0 0 1 .358-.235c1.309.235 2.57.659 3.748 1.261a13.218 13.218 0 0 1 3.13 2.227 12.73 12.73 0 0 1 2.32 3.005 12.204 12.204 0 0 1 1.315 3.598.295.295 0 0 1-.245.343.208.208 0 0 1-.054.006Z"/></g><defs><linearGradient id="b" x1="47.609" y1=".508" x2="47.609" y2="92.355" gradientUnits="userSpaceOnUse"><stop stop-color="#0074C9"/><stop offset=".505" stop-color="#30A8FF"/><stop offset="1" stop-color="#0074C9"/></linearGradient><clipPath id="c"><path fill="#fff" transform="translate(34.22 32.873)" d="M0 0h27.769v26.654H0z"/></clipPath><filter id="a" x="-13.784" y="-13.777" width="122.786" height="120.418" filterUnits="userSpaceOnUse" color-interpolation-filters="sRGB"><feFlood flood-opacity="0" result="BackgroundImageFix"/><feGaussianBlur in="BackgroundImage" stdDeviation="7.143"/><feComposite in2="SourceAlpha" operator="in" result="effect1_backgroundBlur_233_3487"/><feBlend in="SourceGraphic" in2="effect1_backgroundBlur_233_3487" result="shape"/></filter></defs></svg>