<?xml version="1.0" standalone="no"?>
<!DOCTYPE svg PUBLIC "-//W3C//DTD SVG 20010904//EN"
 "http://www.w3.org/TR/2001/REC-SVG-20010904/DTD/svg10.dtd">
<svg version="1.0" xmlns="http://www.w3.org/2000/svg"
 width="928.000000pt" height="928.000000pt" viewBox="0 0 928.000000 928.000000"
 preserveAspectRatio="xMidYMid meet">
<metadata>
Created by potrace 1.14, written by Peter Selinger 2001-2017
</metadata>
<g transform="translate(0.000000,928.000000) scale(0.100000,-0.100000)"
fill="#000000" stroke="none">
<path d="M4987 9274 c-1 -1 -33 -5 -72 -8 -130 -11 -170 -15 -215 -22 -25 -4
-49 -8 -55 -8 -21 -3 -121 -18 -140 -22 -11 -2 -33 -7 -49 -10 -16 -2 -33 -7
-38 -10 -4 -3 -8 -1 -8 4 0 6 -14 7 -37 2 -20 -5 -39 -8 -42 -8 -3 0 -8 -1
-11 -2 -14 -5 -105 -27 -155 -36 -16 -3 -38 -10 -47 -15 -10 -5 -18 -7 -18 -3
0 3 -7 1 -15 -6 -8 -7 -15 -10 -15 -7 0 13 -408 -117 -453 -143 -18 -11 -51
-26 -73 -34 -39 -13 -110 -44 -168 -72 -16 -8 -35 -14 -43 -14 -7 0 -13 -4
-13 -10 0 -5 -9 -10 -20 -10 -11 0 -20 -5 -20 -10 0 -6 -3 -9 -7 -8 -21 5
-436 -220 -479 -261 -12 -11 -25 -17 -28 -14 -3 4 -6 1 -6 -5 0 -7 -5 -12 -10
-12 -6 0 -35 -18 -65 -40 -30 -22 -57 -40 -60 -40 -9 0 -253 -187 -325 -249
-64 -54 -75 -64 -135 -117 -157 -138 -435 -441 -564 -614 -14 -19 -29 -36 -33
-38 -5 -2 -8 -10 -8 -17 0 -7 -4 -15 -9 -17 -5 -1 -48 -61 -97 -133 -48 -71
-98 -139 -110 -151 -12 -11 -25 -31 -29 -42 -3 -12 -11 -22 -16 -22 -5 0 -9
-5 -9 -11 0 -6 -23 -49 -51 -97 -59 -100 -219 -421 -219 -439 0 -7 -4 -13 -10
-13 -5 0 -10 -7 -10 -15 0 -8 -4 -23 -9 -33 -26 -47 -130 -320 -147 -382 -2
-8 -22 -78 -44 -155 -34 -115 -68 -250 -85 -335 -15 -76 -20 -116 -21 -180 -1
-41 -4 -84 -7 -95 -7 -31 -20 -147 -33 -315 -10 -124 -11 -564 -1 -665 3 -38
9 -97 12 -130 12 -129 15 -157 19 -163 2 -4 6 -34 10 -67 7 -66 27 -191 42
-254 3 -13 7 -44 10 -70 6 -64 8 -74 17 -89 5 -6 6 -12 3 -12 -3 0 2 -23 10
-52 9 -28 17 -59 19 -67 2 -9 10 -37 18 -64 8 -26 13 -47 10 -47 -3 0 0 -7 7
-15 7 -8 9 -15 5 -15 -4 0 -3 -6 3 -12 6 -7 13 -30 17 -51 4 -20 11 -40 16
-43 5 -3 7 -9 4 -14 -3 -5 -1 -11 5 -15 5 -3 10 -13 10 -21 0 -16 63 -182 87
-227 8 -16 16 -38 19 -50 2 -11 9 -24 15 -27 6 -4 11 -11 11 -16 2 -34 122
-283 201 -419 23 -38 42 -72 42 -75 3 -18 244 -384 256 -388 5 -2 9 -8 9 -13
0 -8 91 -131 110 -149 3 -3 17 -21 31 -40 15 -19 37 -46 49 -60 12 -14 44 -52
73 -85 83 -97 347 -356 357 -350 4 3 21 -7 37 -22 16 -16 42 -39 59 -53 16
-14 54 -46 84 -71 123 -102 267 -208 430 -316 52 -35 101 -68 108 -74 24 -20
136 -86 222 -130 47 -24 87 -47 88 -51 2 -5 7 -8 12 -8 4 0 50 -20 102 -44 51
-24 156 -69 233 -100 77 -32 148 -62 157 -67 10 -5 26 -9 36 -9 10 0 22 -3 26
-7 4 -5 11 -8 14 -9 4 0 14 -4 22 -7 62 -27 392 -122 455 -132 11 -1 40 -7 65
-13 25 -6 65 -14 90 -17 24 -4 47 -8 50 -10 3 -1 32 -6 65 -10 33 -4 70 -9 83
-11 54 -9 81 -13 137 -19 33 -3 74 -8 90 -10 177 -24 686 -24 870 -1 17 2 57
7 90 10 77 8 107 13 239 37 59 11 110 18 113 16 2 -3 41 4 86 15 45 10 91 20
102 22 18 3 98 22 135 32 8 2 35 8 60 14 25 6 62 17 83 25 20 8 38 14 40 13 6
-4 198 61 272 93 11 5 45 18 75 29 30 12 69 27 85 35 34 15 77 32 85 33 12 1
411 206 470 242 36 21 84 49 107 61 24 12 43 26 43 31 0 4 6 8 13 8 7 0 23 9
35 20 12 11 26 20 32 20 5 0 10 4 10 8 0 5 10 14 23 19 12 6 69 46 126 89 57
44 114 86 128 95 13 9 32 25 42 35 10 11 29 28 42 38 41 33 152 129 193 167
l40 37 -45 45 c-24 24 -100 104 -169 177 -69 74 -148 158 -177 187 -28 30
-102 108 -165 175 -125 133 -141 150 -378 398 -174 183 -177 186 -390 410 -74
79 -157 166 -185 195 -49 51 -244 258 -325 345 -87 94 -143 150 -149 150 -3 0
-25 -18 -49 -40 -23 -22 -83 -68 -132 -102 -52 -36 -88 -68 -86 -75 3 -7 -1
-10 -9 -7 -8 3 -27 -3 -42 -13 -27 -19 -186 -98 -228 -114 -11 -4 -29 -11 -40
-15 -23 -9 -16 -6 -86 -28 -31 -9 -66 -18 -78 -21 -11 -2 -25 -6 -30 -9 -10
-6 -73 -17 -108 -19 -13 -1 -23 -3 -23 -6 0 -4 -10 -7 -22 -7 -13 -1 -63 -4
-113 -7 -123 -7 -119 -5 -126 -57 l-6 -45 -1 46 c-2 41 -5 47 -27 51 -14 3
-25 1 -25 -4 0 -5 -4 -7 -9 -4 -5 4 -45 8 -88 11 -81 6 -131 12 -173 21 -14 3
-38 7 -55 9 -48 7 -74 13 -83 19 -5 3 -24 8 -43 11 -45 9 -50 10 -79 22 -14 6
-59 24 -100 41 -90 36 -224 103 -228 114 -2 4 -8 8 -13 8 -17 0 -163 101 -238
165 -35 30 -165 165 -197 205 -16 19 -31 37 -34 40 -27 24 -134 181 -160 235
-8 17 -20 37 -28 47 -7 9 -15 22 -16 30 -2 7 -16 42 -33 78 -16 36 -36 83 -43
105 -7 22 -19 54 -26 70 -6 17 -17 56 -24 88 -6 31 -16 57 -21 57 -5 0 -8 3
-7 8 1 7 -9 79 -18 132 -7 34 -17 148 -17 185 0 92 16 275 28 333 4 15 1 22
-10 22 -8 0 -15 4 -15 10 0 5 7 7 15 4 10 -4 15 0 16 12 1 31 8 67 24 125 9
30 17 61 19 70 2 8 11 32 20 53 9 21 14 42 11 46 -3 4 7 34 22 66 15 33 27 61
28 64 0 3 10 23 21 45 52 101 76 141 92 155 10 8 28 32 41 53 13 21 30 44 38
52 8 8 11 15 6 15 -4 0 -3 4 2 8 6 4 30 32 55 62 75 94 239 247 327 307 46 32
82 62 79 69 -3 7 -30 51 -60 98 -31 48 -56 91 -56 96 0 6 -5 10 -11 10 -5 0
-7 5 -4 10 3 6 2 10 -3 10 -5 0 -15 12 -23 28 -8 15 -18 32 -22 37 -26 32
-227 355 -222 355 3 0 21 -24 40 -52 19 -29 41 -62 49 -73 7 -11 58 -90 111
-175 119 -187 163 -256 187 -292 10 -15 18 -32 18 -38 0 -13 37 -13 45 0 6 10
186 100 199 100 2 0 17 5 33 12 15 6 37 13 47 15 11 2 25 8 33 14 7 6 13 9 13
6 0 -3 25 3 55 13 30 10 55 17 55 15 0 -1 20 3 45 11 25 7 45 11 45 8 0 -3 9
0 21 6 33 18 75 25 224 37 146 12 367 5 395 -12 3 -2 21 -6 40 -9 67 -11 95
-17 165 -37 83 -23 245 -84 295 -112 19 -10 53 -29 75 -40 22 -12 46 -28 53
-34 7 -7 17 -13 22 -13 5 0 15 -6 22 -12 7 -7 36 -28 63 -47 28 -19 83 -61
123 -94 39 -32 72 -55 72 -50 0 4 24 33 53 63 46 49 164 178 267 294 19 21 44
49 55 60 57 61 60 67 45 77 -13 8 -13 9 1 7 17 -3 49 28 163 156 33 37 77 85
96 105 19 21 66 73 105 117 38 43 113 124 166 179 53 55 121 127 150 159 30
33 68 74 84 92 17 17 59 65 95 105 36 40 108 117 160 170 52 54 127 132 165
175 39 42 86 94 105 115 84 89 196 214 209 232 16 22 12 26 -118 137 -29 25
-58 50 -65 55 -6 6 -49 40 -96 75 -47 36 -89 69 -95 73 -38 30 -167 117 -174
117 -5 0 -11 3 -13 8 -4 10 -86 62 -98 62 -5 0 -10 5 -10 10 0 6 -7 10 -15 10
-8 0 -15 3 -15 8 0 4 -14 13 -31 21 -18 8 -61 32 -98 54 -65 40 -387 200 -452
225 -19 7 -45 19 -59 27 -14 7 -27 13 -30 13 -5 1 -22 7 -130 48 -36 14 -78
31 -95 37 -16 6 -32 14 -35 17 -4 5 -82 33 -102 36 -5 1 -9 2 -10 4 -2 1 -10
3 -18 5 -8 1 -46 12 -85 23 -82 25 -222 60 -305 77 -177 37 -219 45 -240 44
-14 -1 -47 1 -75 5 -27 3 -64 8 -82 10 -120 16 -235 23 -454 31 l-177 7 5 -44
c3 -23 3 -41 0 -38 -3 3 -7 21 -9 40 l-4 35 -108 0 c-59 0 -108 -1 -109 -1z
m233 -94 c0 -5 -2 -10 -4 -10 -3 0 -8 5 -11 10 -3 6 -1 10 4 10 6 0 11 -4 11
-10z m-2 -147 c-2 -131 -6 -116 -10 40 -2 48 0 87 5 87 4 0 6 -57 5 -127z m6
-178 c-4 -8 -8 -15 -10 -15 -2 0 -4 7 -4 15 0 8 4 15 10 15 5 0 7 -7 4 -15z
m1 -34 c3 -5 1 -12 -5 -16 -5 -3 -10 1 -10 9 0 18 6 21 15 7z m1 -51 c0 -11
-4 -20 -8 -20 -4 0 -8 9 -8 20 0 11 4 20 8 20 4 0 8 -9 8 -20z m-1 -130 c0
-49 -2 -90 -5 -90 -3 0 -6 41 -6 90 0 50 3 90 6 90 3 0 5 -40 5 -90z m2 -125
c0 -8 -4 -12 -9 -9 -4 3 -8 9 -8 15 0 5 4 9 8 9 5 0 9 -7 9 -15z m2 -81 c-1
-30 -5 -51 -8 -45 -7 10 -2 101 5 101 3 0 4 -25 3 -56z m1 -79 c0 -8 -4 -15
-10 -15 -5 0 -7 7 -4 15 4 8 8 15 10 15 2 0 4 -7 4 -15z m-3 -102 c-2 -16 -4
-3 -4 27 0 30 2 43 4 28 2 -16 2 -40 0 -55z m2 -75 l-2 -43 -6 35 c-7 33 -5
50 5 50 2 0 3 -19 3 -42z m3 -93 c3 -13 1 -22 -3 -19 -9 5 -13 44 -5 44 2 0 6
-11 8 -25z m-1922 -29 c0 -2 -29 -22 -65 -45 -36 -22 -65 -37 -65 -33 0 4 28
24 63 44 67 40 67 40 67 34z m1924 -21 c3 -8 1 -15 -4 -15 -6 0 -10 7 -10 15
0 8 2 15 4 15 2 0 6 -7 10 -15z m2066 -8 c0 -2 -10 -12 -22 -23 l-23 -19 19
23 c18 21 26 27 26 19z m-2066 -61 c2 -20 1 -36 -3 -36 -4 0 -7 18 -8 41 -1
49 6 46 11 -5z m-2024 -26 c6 -11 8 -20 6 -20 -3 0 -10 9 -16 20 -6 11 -8 20
-6 20 3 0 10 -9 16 -20z m2025 -155 c1 -74 -1 -132 -4 -129 -11 10 -9 264 2
264 1 0 2 -61 2 -135z m-1994 108 c13 -16 12 -17 -3 -4 -10 7 -18 15 -18 17 0
8 8 3 21 -13z m29 -43 c6 -11 8 -20 6 -20 -3 0 -10 9 -16 20 -6 11 -8 20 -6
20 3 0 10 -9 16 -20z m2524 -39 c4 -5 -3 -7 -14 -4 -23 6 -26 13 -6 13 8 0 17
-4 20 -9z m-2474 -41 c6 -11 8 -20 6 -20 -3 0 -10 9 -16 20 -6 11 -8 20 -6 20
3 0 10 -9 16 -20z m-935 -98 c-3 -3 -11 0 -18 7 -9 10 -8 11 6 5 10 -3 15 -9
12 -12z m1778 -19 c-7 -2 -19 -2 -25 0 -7 3 -2 5 12 5 14 0 19 -2 13 -5z
m1074 -32 c0 -11 -5 -18 -9 -15 -4 3 -5 11 -1 19 7 21 12 19 10 -4z m6 -50 c2
-10 1 -24 -3 -31 -5 -7 -9 0 -12 19 -5 34 7 43 15 12z m-2745 -26 c-3 -3 -9 2
-12 12 -6 14 -5 15 5 6 7 -7 10 -15 7 -18z m112 -9 c0 -2 -8 -10 -17 -17 -16
-13 -17 -12 -4 4 13 16 21 21 21 13z m2627 -38 c-3 -8 -6 -5 -6 6 -1 11 2 17
5 13 3 -3 4 -12 1 -19z m1 -42 c-1 -14 -5 -23 -9 -20 -7 4 0 44 7 44 2 0 3
-11 2 -24z m-1478 4 c-8 -5 -19 -10 -25 -10 -5 0 -3 5 5 10 8 5 20 10 25 10 6
0 3 -5 -5 -10z m1482 -65 c-2 -14 -6 -25 -8 -25 -2 0 -4 11 -4 25 0 14 4 25 9
25 4 0 6 -11 3 -25z m3 -44 c3 -5 1 -12 -5 -16 -5 -3 -10 1 -10 9 0 18 6 21
15 7z m-1634 -56 l10 -20 -16 20 c-9 11 -21 29 -26 40 l-10 20 16 -20 c9 -11
21 -29 26 -40z m1630 -28 c2 -25 0 -50 -4 -53 -4 -4 -7 19 -7 51 0 69 8 70 11
2z m-1606 -7 c3 -5 1 -10 -4 -10 -6 0 -11 5 -11 10 0 6 2 10 4 10 3 0 8 -4 11
-10z m65 -102 c26 -47 19 -51 -8 -5 -11 19 -27 47 -37 63 l-17 29 20 -25 c12
-14 31 -42 42 -62z m1544 27 c-4 -8 -8 -15 -10 -15 -2 0 -4 7 -4 15 0 8 4 15
10 15 5 0 7 -7 4 -15z m6 -59 c0 -3 -4 -8 -10 -11 -5 -3 -10 -1 -10 4 0 6 5
11 10 11 6 0 10 -2 10 -4z m-1479 -83 c24 -38 45 -72 48 -78 5 -15 -52 65 -78
108 -38 63 -16 41 30 -30z m1475 22 c0 -19 -4 -35 -8 -35 -4 0 -8 16 -8 35 0
19 4 35 8 35 4 0 8 -16 8 -35z m-436 -55 c0 -5 -8 -10 -17 -10 -15 0 -16 2 -3
10 19 12 20 12 20 0z m435 -55 c0 -29 -2 -51 -5 -48 -3 2 -5 29 -5 58 0 29 2
51 5 48 3 -2 5 -29 5 -58z m-1405 -20 c7 -9 8 -15 2 -15 -5 0 -12 7 -16 15 -3
8 -4 15 -2 15 2 0 9 -7 16 -15z m2263 -21 c4 -1 12 -2 17 -3 6 0 10 -6 10 -12
0 -6 -5 -7 -12 -2 -13 8 -18 9 -38 12 -5 0 -10 6 -10 12 0 6 5 7 13 2 6 -4 15
-8 20 -9z m-2239 -20 c3 -8 2 -12 -4 -9 -6 3 -10 10 -10 16 0 14 7 11 14 -7z
m2322 -15 c8 -14 -10 -11 -32 6 -18 13 -18 14 4 8 12 -3 25 -9 28 -14z m-2281
-50 c22 -41 11 -36 -14 7 -12 19 -16 32 -11 29 6 -3 17 -19 25 -36z m2358 22
c25 -11 48 -24 52 -30 6 -11 -14 -4 -85 31 -48 23 -22 23 33 -1z m-1013 -16
c0 -8 -4 -15 -8 -15 -5 0 -9 7 -9 15 0 8 4 15 9 15 4 0 8 -7 8 -15z m1116 -36
c19 -22 19 -22 -3 -10 -24 12 -39 31 -25 31 5 0 17 -10 28 -21z m-1116 1 c0
-5 -5 -10 -11 -10 -5 0 -7 5 -4 10 3 6 8 10 11 10 2 0 4 -4 4 -10z m1246 -71
c6 -5 14 -7 17 -4 4 3 5 2 2 -1 -2 -4 16 -18 42 -32 25 -13 51 -28 57 -33 6
-5 57 -44 114 -85 56 -42 102 -81 102 -88 0 -8 -2 -8 -8 1 -4 6 -39 35 -77 63
-39 28 -77 56 -85 63 -13 10 -52 36 -145 95 -11 6 -44 24 -72 39 -29 15 -53
31 -53 35 0 7 81 -34 106 -53z m-1248 22 c-1 -16 -5 -28 -9 -26 -6 5 0 55 7
55 3 0 3 -13 2 -29z m0 -188 l-2 -148 -6 135 c-5 126 -3 160 6 160 2 0 3 -66
2 -147z m1626 -112 c-2 -3 -12 3 -22 13 -16 17 -16 18 5 5 12 -7 20 -15 17
-18z m-3614 -481 c-6 -11 -13 -20 -16 -20 -2 0 0 9 6 20 6 11 13 20 16 20 2 0
0 -9 -6 -20z m65 -90 c3 -5 1 -10 -4 -10 -6 0 -11 5 -11 10 0 6 2 10 4 10 3 0
8 -4 11 -10z m-1032 -75 c-3 -9 -8 -14 -10 -11 -3 3 -2 9 2 15 9 16 15 13 8
-4z m-16 -40 c0 -8 -4 -12 -9 -9 -5 3 -6 10 -3 15 9 13 12 11 12 -6z m1298
-45 c3 -6 -1 -7 -9 -4 -18 7 -21 14 -7 14 6 0 13 -4 16 -10z m-565 -245 c0 -8
-2 -15 -4 -15 -2 0 -6 7 -10 15 -3 8 -1 15 4 15 6 0 10 -7 10 -15z m-1622
-159 c-1 -14 -5 -23 -9 -20 -7 4 0 44 7 44 2 0 3 -11 2 -24z m1529 -165 c0
-11 -5 -18 -9 -15 -4 3 -5 11 -1 19 7 21 12 19 10 -4z m-3 -113 c7 -5 5 -8 -6
-8 -13 0 -18 7 -17 28 1 21 2 22 6 7 3 -11 10 -23 17 -27z m84 -10 c17 -1 32
-6 32 -9 0 -10 -70 1 -90 13 -11 7 -10 8 5 4 11 -3 35 -7 53 -8z m132 -25 c3
-3 -12 -3 -33 0 -21 3 -41 8 -45 11 -3 4 12 4 34 0 21 -3 41 -8 44 -11z m25
-3 c3 -5 1 -10 -4 -10 -6 0 -11 5 -11 10 0 6 2 10 4 10 3 0 8 -4 11 -10z m83
-15 c4 -3 -9 -3 -28 0 -45 8 -55 18 -12 12 19 -3 37 -8 40 -12z m47 -5 c17 -8
16 -8 -7 -7 -16 1 -28 5 -28 9 0 10 9 9 35 -2z m95 -16 c3 -3 -10 -4 -28 -1
-19 3 -37 8 -40 12 -4 3 9 3 28 0 19 -3 37 -8 40 -11z m30 -4 c0 -5 -4 -10
-10 -10 -5 0 -10 5 -10 10 0 6 5 10 10 10 6 0 10 -4 10 -10z m76 -18 c-10 -2
-22 0 -28 6 -6 6 0 7 19 4 21 -5 23 -7 9 -10z m-1501 -342 c3 -5 -1 -10 -10
-10 -9 0 -13 5 -10 10 3 6 8 10 10 10 2 0 7 -4 10 -10z m75 -2 c0 -4 -12 -8
-27 -8 -19 0 -24 3 -15 8 17 11 42 11 42 0z m-890 -8 c0 -5 -5 -10 -11 -10 -5
0 -7 5 -4 10 3 6 8 10 11 10 2 0 4 -4 4 -10z m135 0 c3 -5 1 -10 -4 -10 -6 0
-11 5 -11 10 0 6 2 10 4 10 3 0 8 -4 11 -10z m638 3 c-7 -2 -19 -2 -25 0 -7 3
-2 5 12 5 14 0 19 -2 13 -5z m-690 -10 c-7 -2 -21 -2 -30 0 -10 3 -4 5 12 5
17 0 24 -2 18 -5z m1642 -472 c-6 -5 -23 -12 -40 -15 -28 -6 -28 -5 5 8 43 18
46 18 35 7z m38 -28 c7 -39 1 -40 -11 -4 -6 17 -7 31 -3 31 5 0 11 -12 14 -27z
m-120 0 c-7 -2 -19 -2 -25 0 -7 3 -2 5 12 5 14 0 19 -2 13 -5z m-78 -13 c-3
-5 -14 -10 -23 -10 -15 0 -15 2 -2 10 20 13 33 13 25 0z m-49 -7 c-4 -5 -30
-13 -58 -19 -27 -6 -46 -8 -41 -4 4 5 28 13 53 18 25 5 47 10 49 11 2 1 1 -2
-3 -6z m-116 -35 c0 -6 -3 -9 -6 -6 -3 4 -19 2 -37 -3 -17 -5 -27 -5 -21 0 8
8 31 16 57 20 4 0 7 -4 7 -11z m-80 -7 c0 -8 -22 -15 -84 -27 -11 -3 -17 -2
-14 1 3 3 14 7 24 9 11 3 30 9 44 15 14 5 26 10 28 10 1 1 2 -3 2 -8z m-110
-30 c0 -13 -49 -20 -57 -8 -3 5 -2 8 3 5 5 -3 18 -2 29 3 11 4 21 8 23 8 1 1
2 -3 2 -8z m-70 -10 c0 -5 -7 -12 -16 -15 -14 -5 -15 -4 -4 9 14 17 20 19 20
6z m-55 -21 c-11 -5 -27 -9 -35 -9 -13 -1 -13 0 0 9 8 5 24 9 35 9 l20 0 -20
-9z m-55 -14 c0 -7 -40 -14 -44 -7 -3 4 6 8 20 9 13 1 24 0 24 -2z m1071 -669
c-10 -9 -11 -8 -5 6 3 10 9 15 12 12 3 -3 0 -11 -7 -18z m-41 -31 c0 -3 -4 -8
-10 -11 -5 -3 -10 -1 -10 4 0 6 5 11 10 11 6 0 10 -2 10 -4z m-186 -131 c-10
-8 -23 -15 -28 -15 -6 0 -1 7 10 15 10 8 23 15 28 15 6 0 1 -7 -10 -15z m-174
-108 c0 -2 -10 -12 -22 -23 l-23 -19 19 23 c18 21 26 27 26 19z m2432 -252 c3
-14 1 -25 -3 -25 -5 0 -9 11 -9 25 0 14 2 25 4 25 2 0 6 -11 8 -25z m0 -117
c2 -42 1 -75 -2 -73 -3 2 -7 39 -8 81 -3 100 5 93 10 -8z m5 -108 c1 -11 -2
-20 -5 -20 -4 0 -8 9 -9 20 -1 11 2 20 5 20 4 0 8 -9 9 -20z m1168 10 c-3 -5
-12 -10 -18 -10 -7 0 -6 4 3 10 19 12 23 12 15 0z m-1170 -114 c0 -36 -2 -62
-5 -60 -7 8 -8 124 -1 124 4 0 7 -29 6 -64z m-3250 -46 c3 -6 -1 -7 -9 -4 -18
7 -21 14 -7 14 6 0 13 -4 16 -10z m3252 -50 c1 -11 -1 -22 -5 -24 -4 -2 -8 7
-8 20 -1 13 1 24 5 24 4 0 7 -9 8 -20z m1 -57 c-1 -10 1 -23 4 -29 4 -6 2 -11
-5 -11 -7 0 -13 13 -12 29 0 15 4 28 8 28 5 0 7 -8 5 -17z m-398 -22 c0 -5 -9
-7 -20 -4 -11 3 -20 7 -20 9 0 2 9 4 20 4 11 0 20 -4 20 -9z m-10 -68 c-11
-17 -11 -17 -6 0 3 10 7 26 7 35 1 15 2 15 6 0 2 -10 -1 -25 -7 -35z m-7 -68
c-3 -9 -8 -14 -10 -11 -3 3 -2 9 2 15 9 16 15 13 8 -4z m-7 -51 c-3 -15 -8
-29 -11 -32 -3 -3 -3 5 -1 19 2 13 5 27 5 32 1 4 3 7 6 7 3 0 3 -12 1 -26z
m-2530 -66 l29 -33 -32 29 c-18 17 -33 31 -33 33 0 8 8 1 36 -29z m2511 -30
c-3 -8 -6 -5 -6 6 -1 11 2 17 5 13 3 -3 4 -12 1 -19z m-2459 -33 c-3 -3 -9 2
-12 12 -6 14 -5 15 5 6 7 -7 10 -15 7 -18z m2453 -21 c-5 -16 -10 -21 -10 -12
-1 18 10 51 15 45 2 -1 -1 -16 -5 -33z m-2247 -183 c-5 -6 -194 180 -194 190
0 3 45 -37 99 -90 55 -53 97 -98 95 -100z m1006 155 c0 -2 -8 -10 -17 -17 -16
-13 -17 -12 -4 4 13 16 21 21 21 13z m1222 -126 c-2 -17 -8 -32 -12 -35 -7 -5
-5 18 6 53 7 23 11 12 6 -18z m-12 -70 c0 -11 -4 -20 -9 -20 -5 0 -7 9 -4 20
3 11 7 20 9 20 2 0 4 -9 4 -20z m1580 -48 c0 -4 -18 -13 -40 -19 -23 -6 -38
-8 -35 -4 5 5 49 23 73 30 1 1 2 -3 2 -7z m-1593 -24 c-3 -8 -6 -5 -6 6 -1 11
2 17 5 13 3 -3 4 -12 1 -19z m-11 -78 c0 -16 -4 -30 -8 -30 -4 0 -6 10 -4 23
3 12 5 25 5 30 1 4 3 7 5 7 2 0 3 -13 2 -30z m1331 14 c-3 -3 -12 -4 -19 -1
-8 3 -5 6 6 6 11 1 17 -2 13 -5z m-1340 -76 c-3 -8 -6 -5 -6 6 -1 11 2 17 5
13 3 -3 4 -12 1 -19z m1076 -17 c3 -16 9 -42 13 -57 4 -16 4 -26 0 -22 -4 3
-8 10 -8 15 0 4 -6 27 -13 51 -7 23 -10 42 -5 42 4 0 10 -13 13 -29z m27 -136
c0 -8 -2 -15 -4 -15 -2 0 -6 7 -10 15 -3 8 -1 15 4 15 6 0 10 -7 10 -15z
m-2695 -25 c3 -6 -1 -7 -9 -4 -18 7 -21 14 -7 14 6 0 13 -4 16 -10z m2705 -20
c6 -11 8 -20 6 -20 -3 0 -10 9 -16 20 -6 11 -8 20 -6 20 3 0 10 -9 16 -20z
m-2660 -4 c-7 -7 -13 -7 -20 0 -6 6 -3 10 10 10 13 0 16 -4 10 -10z m2674 -68
c4 -19 2 -28 -5 -28 -7 0 -10 3 -7 6 4 3 2 19 -3 37 -5 17 -5 26 0 21 5 -5 11
-21 15 -36z m16 -95 c6 -32 13 -69 16 -83 3 -14 3 -22 -1 -18 -4 4 -13 40 -21
80 -16 84 -15 78 -10 78 3 0 10 -26 16 -57z m25 -123 c3 -5 1 -10 -4 -10 -6 0
-11 5 -11 10 0 6 2 10 4 10 3 0 8 -4 11 -10z m11 -71 c3 -24 4 -42 1 -39 -3 3
-8 25 -12 50 -4 25 -4 42 -1 39 3 -3 9 -26 12 -50z m20 -94 c6 -25 7 -45 4
-45 -4 0 -11 20 -17 45 -6 25 -7 45 -4 45 4 0 11 -20 17 -45z m-1276 -85 c0
-5 -7 -7 -15 -4 -8 4 -15 8 -15 10 0 2 7 4 15 4 8 0 15 -4 15 -10z m99 -5 c24
-2 47 -7 50 -11 3 -3 -15 -3 -39 1 -25 3 -57 6 -72 7 -16 1 -28 6 -28 10 0 5
10 6 23 4 12 -3 42 -8 66 -11z m88 -11 c-3 -3 -12 -4 -19 -1 -8 3 -5 6 6 6 11
1 17 -2 13 -5z m69 -7 c4 -4 -2 -7 -14 -7 -12 0 -22 4 -22 9 0 10 26 9 36 -2z
m194 -15 c3 -2 -35 -2 -84 1 -48 3 -91 8 -94 12 -3 3 35 2 84 -1 49 -4 91 -9
94 -12z m30 -2 c0 -5 -2 -10 -4 -10 -3 0 -8 5 -11 10 -3 6 -1 10 4 10 6 0 11
-4 11 -10z m50 6 c0 -2 -9 -6 -20 -9 -11 -3 -20 -1 -20 4 0 5 9 9 20 9 11 0
20 -2 20 -4z m78 -23 c2 -13 -1 -23 -6 -23 -5 0 -9 8 -8 18 1 12 -6 17 -26 16
-15 -1 -25 2 -23 6 2 4 17 7 32 6 21 -1 29 -7 31 -23z m0 -68 c0 -19 -3 -35
-7 -35 -4 0 -7 10 -5 23 1 12 3 28 3 35 2 27 9 10 9 -23z m-1 -82 c-3 -10 -5
-4 -5 12 0 17 2 24 5 18 2 -7 2 -21 0 -30z m1 -100 l-2 -78 -5 70 c-3 39 -5
73 -3 78 9 20 12 0 10 -70z m4 -113 c3 -16 1 -30 -4 -30 -4 0 -8 14 -8 30 0
17 2 30 4 30 2 0 6 -13 8 -30z m4 -90 c0 -11 -4 -20 -8 -20 -4 0 -8 9 -8 20 0
11 4 20 8 20 4 0 8 -9 8 -20z m-1 -114 c0 -47 -2 -87 -5 -90 -4 -4 -5 163 -1
172 5 10 6 -9 6 -82z"/>
</g>
</svg>
