<?xml version="1.0" standalone="no"?>
<!DOCTYPE svg PUBLIC "-//W3C//DTD SVG 20010904//EN"
 "http://www.w3.org/TR/2001/REC-SVG-20010904/DTD/svg10.dtd">
<svg version="1.0" xmlns="http://www.w3.org/2000/svg"
 width="85.000000pt" height="85.000000pt" viewBox="0 0 85.000000 85.000000"
 preserveAspectRatio="xMidYMid meet">
<metadata>
Created by potrace 1.14, written by Peter Selinger 2001-2017
</metadata>
<g transform="translate(0.000000,85.000000) scale(0.100000,-0.100000)"
fill="#000000" stroke="none">
<path d="M323 771 c-120 -64 -146 -82 -255 -181 l-50 -44 6 -57 c11 -93 44
-197 96 -305 45 -92 52 -102 82 -108 124 -27 324 -27 459 0 53 10 155 252 175
417 6 47 5 49 -43 95 -53 51 -136 114 -196 151 -54 33 -155 81 -170 81 -6 0
-54 -22 -104 -49z m180 -27 c83 -41 170 -102 243 -169 l51 -46 -13 -77 c-8
-42 -23 -104 -35 -137 -29 -82 -88 -192 -105 -199 -74 -28 -380 -24 -437 6
-30 16 -114 204 -132 299 -20 102 -19 106 27 150 69 65 147 120 236 166 46 24
85 43 88 43 3 0 38 -16 77 -36z"/>
<path d="M407 632 c-10 -2 -29 -10 -43 -17 -21 -11 -36 -10 -86 1 l-61 14 -43
-35 c-24 -20 -44 -39 -44 -43 0 -12 175 -53 178 -42 11 33 83 -8 121 -70 12
-20 21 -27 26 -20 4 6 1 19 -6 28 -12 14 -10 14 8 -1 25 -22 42 -6 22 21 -12
15 -12 15 7 -1 25 -21 37 -12 22 17 -9 17 -8 19 3 9 16 -16 29 -17 29 -1 0 6
-17 26 -37 44 -35 31 -38 32 -64 18 -32 -16 -59 -9 -59 15 0 19 18 41 34 41 5
0 1 -9 -10 -21 -28 -31 0 -44 42 -19 l31 20 37 -36 c20 -19 44 -36 54 -37 10
0 46 10 80 22 67 25 68 31 12 71 -24 17 -31 18 -71 6 -41 -13 -47 -12 -68 5
-28 23 -44 24 -61 4 -15 -18 -27 -19 -32 -2 -2 7 -11 11 -21 9z"/>
<path d="M322 497 c-9 -10 -2 -22 29 -50 42 -39 54 -44 65 -26 4 6 -12 28 -35
50 -47 44 -45 43 -59 26z"/>
<path d="M404 357 c-10 -12 -57 -67 -104 -122 -78 -92 -82 -98 -45 -76 22 14
47 30 55 36 8 6 39 26 67 43 l53 32 82 -52 c46 -28 91 -58 101 -66 28 -24 19
0 -14 38 -17 19 -61 70 -97 113 -36 42 -68 77 -72 77 -3 0 -15 -10 -26 -23z"/>
</g>
</svg>
