<svg width="25" height="29" viewBox="0 0 25 29" fill="none" xmlns="http://www.w3.org/2000/svg">
<path d="M14.2996 2.17787L14.2709 0C13.4112 0 12.5802 0.114623 11.7778 0.257903L12.179 2.40711C12.8668 2.26383 13.5832 2.17787 14.2996 2.17787Z" fill="#E5E572"/>
<path d="M18.426 2.80821L19.1424 0.744969C18.3687 0.487064 17.5377 0.286469 16.7067 0.143188L16.3628 2.2924C17.0792 2.43568 17.7669 2.60761 18.426 2.80821Z" fill="#B8D066"/>
<path d="M12.1791 2.37858L11.7779 0.22937C10.9182 0.401307 10.1158 0.630554 9.31348 0.917115L10.0872 2.9517C10.7749 2.72245 11.4627 2.52186 12.1791 2.37858Z" fill="#F9EC8A"/>
<path d="M7.93809 4.06919L6.79185 2.20654C5.96082 2.72235 5.18711 3.32413 4.4707 4.01188L5.98948 5.58796C6.5626 5.01484 7.22169 4.49903 7.93809 4.06919Z" fill="#F0DA7B"/>
<path d="M4.47004 4.01172C3.61036 4.84275 2.8653 5.75974 2.23486 6.76271L4.09751 7.9376C4.64198 7.07792 5.27241 6.30421 5.98882 5.61646L4.47004 4.01172Z" fill="#DFA461"/>
<path d="M10.0868 2.98002L9.31309 0.945435C8.42475 1.28931 7.56507 1.71915 6.7627 2.2063L7.90894 4.06895C8.59669 3.63911 9.34175 3.26658 10.0868 2.98002Z" fill="#F8E47E"/>
<path d="M20.8042 3.92573L21.9218 2.06308C21.0621 1.54727 20.1165 1.11743 19.1422 0.77356L18.4258 2.8368C19.2568 3.0947 20.0592 3.46723 20.8042 3.92573Z" fill="#91C274"/>
<path d="M14.328 2.17787C15.0157 2.17787 15.7035 2.20652 16.3626 2.32115L16.7064 0.171938C15.9327 0.057314 15.1303 0 14.2993 0L14.328 2.17787C14.2993 2.17787 14.2993 2.17787 14.328 2.17787Z" fill="#D7E067"/>
<path d="M22.8106 5.41612L24.2721 3.81138C23.5557 3.15229 22.7533 2.55051 21.9223 2.06335L20.8047 3.926C21.5211 4.35584 22.1802 4.843 22.8106 5.41612Z" fill="#7DB96C"/>
<path d="M16.7349 26.593L17.136 28.7422C17.9957 28.5703 18.7981 28.3697 19.6005 28.0545L18.8268 26.0199C18.1677 26.2778 17.4799 26.4497 16.7349 26.593Z" fill="#70A8C7"/>
<path d="M14.6431 26.7933L14.6717 28.9712C15.5314 28.9712 16.3338 28.8852 17.1361 28.7133L16.735 26.5641C16.0759 26.7074 15.3595 26.7933 14.6431 26.7933Z" fill="#748EC7"/>
<path d="M18.8271 26.0197L19.6009 28.0543C20.4892 27.7105 21.3202 27.3093 22.1226 26.8221L20.9764 24.9595C20.3173 25.3607 19.6009 25.7332 18.8271 26.0197Z" fill="#7BC2DE"/>
<path d="M12.6373 26.679L12.2935 28.8282C13.0672 28.9428 13.8409 29.0001 14.6433 29.0001L14.6146 26.8222C13.9555 26.8222 13.2964 26.7649 12.6373 26.679Z" fill="#888BC3"/>
<path d="M4.06983 7.90903L2.20719 6.73413C1.69138 7.56516 1.23288 8.48215 0.860352 9.4278L2.92359 10.2015C3.23881 9.39915 3.61134 8.62544 4.06983 7.90903Z" fill="#E49C6D"/>
<path d="M10.5167 26.1631L9.80029 28.2263C10.6027 28.5129 11.4337 28.7135 12.2934 28.8281L12.6372 26.6789C11.8922 26.5643 11.2044 26.3923 10.5167 26.1631Z" fill="#9471AE"/>
<path d="M22.9242 23.469C22.3224 24.0421 21.692 24.5293 20.9756 24.9591L22.1218 26.8218C22.9529 26.306 23.6979 25.7042 24.4143 25.0451L22.9242 23.469Z" fill="#8BC7D3"/>
<path d="M8.10929 25.0457L6.9917 26.9083C7.88004 27.4528 8.82569 27.8826 9.8 28.2265L10.5164 26.1632C9.65672 25.8767 8.883 25.4755 8.10929 25.0457Z" fill="#B069A5"/>
<path d="M2.17786 14.6719L0 14.7005C0.0286561 15.7322 0.14328 16.7065 0.343872 17.6808L2.49308 17.1936C2.29249 16.3912 2.17786 15.5316 2.17786 14.6719Z" fill="#DD7B73"/>
<path d="M2.92271 10.2016L0.859469 9.42786C0.544252 10.2875 0.286347 11.2045 0.143066 12.1215L2.29227 12.4654C2.46421 11.6917 2.6648 10.9466 2.92271 10.2016Z" fill="#E49C75"/>
<path d="M2.46464 17.1936L0.31543 17.6808C0.516022 18.5404 0.773928 19.3715 1.1178 20.1452L3.12373 19.2855C2.86582 18.6264 2.63657 17.91 2.46464 17.1936Z" fill="#D76D69"/>
<path d="M2.17786 14.6432C2.17786 13.8981 2.23518 13.1817 2.3498 12.4653L0.200592 12.1215C0.0573113 12.9525 0 13.8122 0 14.6719V14.7005L2.17786 14.6432C2.17786 14.6719 2.17786 14.6719 2.17786 14.6432Z" fill="#DD827E"/>
<path d="M4.2985 21.4348L2.49316 22.667C3.1236 23.6127 3.86866 24.4724 4.69968 25.2174L6.16115 23.6127C5.4734 22.9536 4.84297 22.2085 4.2985 21.4348Z" fill="#DB7FAF"/>
<path d="M3.1236 19.2853L1.11768 20.145C1.49021 21.0333 1.9487 21.8643 2.49317 22.6667L4.29851 21.4345C3.84001 20.7467 3.46748 20.0303 3.1236 19.2853Z" fill="#D8728F"/>
<path d="M6.18949 23.584L4.72803 25.1887C5.44443 25.8192 6.18949 26.3923 7.02052 26.9081L8.1381 25.0454C7.4217 24.6156 6.79126 24.1285 6.18949 23.584Z" fill="#BA6FA7"/>
<path d="M14.3279 4.47035L14.2993 2.17786C13.5829 2.17786 12.8665 2.26382 12.1787 2.4071L12.6086 4.67094C13.1817 4.52766 13.7548 4.47035 14.3279 4.47035Z" fill="#DCE266"/>
<path d="M14.3563 4.47035C14.9294 4.47035 15.4739 4.499 16.0183 4.58497L16.3622 2.32114C15.7031 2.20651 15.0154 2.17786 14.3276 2.17786L14.3563 4.47035C14.3276 4.47035 14.3563 4.47035 14.3563 4.47035Z" fill="#C8D660"/>
<path d="M12.6087 4.64237L12.1788 2.37854C11.4624 2.52182 10.746 2.72241 10.0869 2.95166L10.8893 5.10087C11.4624 4.90028 12.0355 4.757 12.6087 4.64237Z" fill="#F9ED77"/>
<path d="M7.93787 4.06921C7.22147 4.52771 6.56238 5.01487 5.98926 5.61665L7.56534 7.2787C8.0525 6.8202 8.59697 6.39036 9.17009 6.01783L7.93787 4.06921Z" fill="#F4D665"/>
<path d="M4.15497 7.96647L6.01762 9.14137C6.44746 8.45362 6.96327 7.82319 7.56505 7.25007L5.98896 5.58801C5.27256 6.27576 4.61347 7.04948 4.09766 7.90916L4.15497 7.96647Z" fill="#DFA358"/>
<path d="M10.9184 5.12931L10.116 2.9801C9.34229 3.26666 8.62589 3.63919 7.9668 4.06904L9.17036 6.01765C9.68617 5.64512 10.2879 5.35856 10.9184 5.12931Z" fill="#F8E670"/>
<path d="M17.6806 4.98603L18.4257 2.80817C17.7666 2.57892 17.0788 2.40698 16.3624 2.29236L16.0186 4.55619C16.5917 4.67081 17.1648 4.81409 17.6806 4.98603Z" fill="#A9CA5F"/>
<path d="M19.6006 5.8748L20.7755 3.89753C20.0305 3.46769 19.2568 3.09515 18.4257 2.80859L17.6807 4.98646C18.3684 5.2157 18.9988 5.53092 19.6006 5.8748Z" fill="#87BE6E"/>
<path d="M6.0182 9.14127L4.15555 7.96637L4.06958 7.90906C3.61109 8.62546 3.23856 9.39918 2.92334 10.2015L5.07255 11.0039C5.33045 10.3448 5.64567 9.71439 6.0182 9.14127Z" fill="#E2915C"/>
<path d="M4.06934 7.90906L4.15531 7.96637L4.06934 7.90906Z" fill="#E2915C"/>
<path d="M19.6011 5.87415C20.2029 6.21803 20.7473 6.64787 21.2345 7.10637L22.7819 5.41565C22.1801 4.84253 21.4924 4.35538 20.776 3.92554L19.6011 5.87415Z" fill="#71B463"/>
<path d="M7.73737 21.8932L6.18994 23.5839C6.79172 24.1284 7.42215 24.6155 8.13856 25.0167L9.31346 23.0394C8.74034 22.7242 8.22453 22.323 7.73737 21.8932Z" fill="#BA65A2"/>
<path d="M18.0244 23.8703L18.8268 26.0195C19.5718 25.733 20.2882 25.3891 20.976 24.9592L19.7724 23.0106C19.228 23.3545 18.6262 23.6411 18.0244 23.8703Z" fill="#6EB1D0"/>
<path d="M20.976 24.9592C21.6638 24.5293 22.3229 24.0135 22.9246 23.4691L21.3485 21.807C20.8614 22.2655 20.3456 22.6667 19.7725 23.0106L20.976 24.9592Z" fill="#7CC1CB"/>
<path d="M16.3345 24.3289L16.7643 26.5927C17.4807 26.4494 18.1971 26.2775 18.8562 26.0196L18.0538 23.8704C17.4807 24.071 16.9076 24.2429 16.3345 24.3289Z" fill="#618BB2"/>
<path d="M12.9811 24.3862L12.6372 26.6501C13.2963 26.736 13.9554 26.7933 14.6431 26.7933L14.6145 24.5009C14.0414 24.5295 13.4969 24.4722 12.9811 24.3862Z" fill="#6D73B1"/>
<path d="M4.58464 12.8378C4.69926 12.2073 4.84254 11.5769 5.07179 11.0038L2.92258 10.2014C2.66468 10.9178 2.43543 11.6915 2.3208 12.4939L4.58464 12.8378Z" fill="#DD7E62"/>
<path d="M14.6147 24.501L14.6434 26.7935C15.3598 26.7935 16.0475 26.7076 16.7353 26.5929L16.3055 24.3291C15.761 24.4437 15.1879 24.501 14.6147 24.501Z" fill="#5F74B3"/>
<path d="M5.24409 18.3972L3.12354 19.2856C3.43875 20.0306 3.83994 20.747 4.29844 21.4348L6.18974 20.1452C5.81721 19.5721 5.50199 18.999 5.24409 18.3972Z" fill="#D56073"/>
<path d="M4.69904 16.6779L2.46387 17.1937C2.6358 17.9101 2.86505 18.6265 3.12296 19.2856L5.24351 18.3972C5.01426 17.8528 4.84232 17.2796 4.69904 16.6779Z" fill="#D35C56"/>
<path d="M4.46974 14.6432L2.17725 14.6718C2.17725 15.5315 2.29187 16.3912 2.46381 17.1936L4.69898 16.6778C4.5557 16.0187 4.46974 15.3596 4.46974 14.6432Z" fill="#D46D5D"/>
<path d="M4.46973 14.6145C4.46973 14.0128 4.49839 13.411 4.61302 12.8379L2.34918 12.4653C2.23456 13.1817 2.17725 13.8981 2.17725 14.6432V14.6719L4.46973 14.6145C4.46973 14.6432 4.46973 14.6432 4.46973 14.6145Z" fill="#D97267"/>
<path d="M9.31357 23.0681L8.13867 25.0454C8.88373 25.5039 9.6861 25.8764 10.5171 26.163L11.2622 23.9851C10.5744 23.7559 9.91535 23.4406 9.31357 23.0681Z" fill="#9D5E94"/>
<path d="M11.2626 23.9852L10.5176 26.1631C11.2053 26.3923 11.9217 26.5643 12.6381 26.6789L12.982 24.4151C12.3802 24.3004 11.8071 24.1572 11.2626 23.9852Z" fill="#8266A7"/>
<path d="M6.18964 20.1167L4.29834 21.4062C4.84281 22.2086 5.47324 22.925 6.18964 23.5841L7.73707 21.8934C7.16395 21.3776 6.64814 20.7758 6.18964 20.1167Z" fill="#D76692"/>
<path d="M10.9179 5.12915C10.2875 5.3584 9.71439 5.67362 9.16992 6.01749L10.4881 8.10939C10.9179 7.85148 11.3478 7.62223 11.8063 7.4503L10.9179 5.12915Z" fill="#F8E763"/>
<path d="M13.0675 7.07786L12.609 4.64209C12.0072 4.75671 11.4628 4.89999 10.8896 5.12924L11.778 7.45039C12.2078 7.27845 12.6377 7.16383 13.0675 7.07786Z" fill="#F4EB69"/>
<path d="M14.3564 6.935L14.3278 4.47058C13.726 4.47058 13.1529 4.52789 12.6084 4.64252L13.0669 7.07828C13.4967 6.99232 13.9266 6.96366 14.3564 6.935Z" fill="#D2DD63"/>
<path d="M14.3856 6.935C14.8154 6.935 15.2453 6.96366 15.6465 7.02097L16.019 4.5852C15.4745 4.49924 14.9301 4.47058 14.3569 4.47058L14.3856 6.935Z" fill="#B4CA5B"/>
<path d="M8.10997 10.4592L6.01807 9.14099C5.64554 9.71411 5.33032 10.3445 5.10107 11.0036L7.42222 11.8633C7.59416 11.3762 7.8234 10.889 8.10997 10.4592Z" fill="#DF8C51"/>
<path d="M6.01807 9.14099C5.64554 9.71411 5.33032 10.3445 5.10107 11.0036C5.33032 10.3445 5.64554 9.71411 6.01807 9.14099Z" fill="#DF8C51"/>
<path d="M10.4595 8.1096L9.14137 6.0177C8.56824 6.39023 8.02377 6.79141 7.53662 7.27857L9.25599 9.0839C9.62852 8.71137 10.0297 8.3675 10.4595 8.1096Z" fill="#F4D25A"/>
<path d="M9.25605 9.05534L7.53669 7.25C6.96356 7.82312 6.44776 8.45355 5.98926 9.1413L8.08115 10.4595C8.42503 9.94367 8.82621 9.48518 9.25605 9.05534Z" fill="#E6A14E"/>
<path d="M7.39277 11.8637L5.07163 11.004C4.84238 11.6058 4.6991 12.2076 4.58447 12.838L7.02024 13.2392C7.10621 12.7807 7.24949 12.3222 7.39277 11.8637Z" fill="#D77154"/>
<path d="M16.9064 7.33607L17.7087 4.98627C17.1643 4.81433 16.5912 4.67105 16.018 4.58508L15.6455 7.02085C16.0753 7.10682 16.4765 7.19279 16.9064 7.33607Z" fill="#A0C65D"/>
<path d="M16.9072 7.33577C17.423 7.5077 17.9102 7.73695 18.34 7.99485L19.6009 5.8743C18.9991 5.50177 18.3687 5.21521 17.6809 4.98596L16.9072 7.33577Z" fill="#7BB763"/>
<path d="M18.3403 7.99491C18.7988 8.25282 19.2 8.56804 19.5725 8.91191L21.2346 7.07792C20.7188 6.61942 20.1743 6.21823 19.6012 5.8457L18.3403 7.99491Z" fill="#66A45E"/>
<path d="M19.7723 23.0107C20.3454 22.6668 20.8612 22.2657 21.3484 21.8072L19.629 20.0018C19.2565 20.3457 18.8553 20.6609 18.4541 20.9188L19.7723 23.0107Z" fill="#73BCCA"/>
<path d="M18.0246 23.8705C18.6263 23.6413 19.2281 23.3547 19.7726 23.0108L18.4544 20.9189C18.0532 21.1769 17.5947 21.3774 17.1362 21.5494L18.0246 23.8705Z" fill="#659AC0"/>
<path d="M15.8755 21.8932L16.334 24.3289C16.9071 24.2143 17.4802 24.071 18.0247 23.8418L17.1364 21.5206C16.7352 21.6926 16.3053 21.8358 15.8755 21.8932Z" fill="#57779D"/>
<path d="M4.47068 14.6433L6.93511 14.6147V14.586C6.93511 14.1275 6.96376 13.669 7.04973 13.2392L4.61396 12.838C4.49934 13.4398 4.44203 14.0129 4.47068 14.6433Z" fill="#D46D5D"/>
<path d="M14.5859 22.0365L14.6146 24.5009C15.1877 24.5009 15.7608 24.4436 16.334 24.329L15.8755 21.8932C15.4456 21.9792 15.0158 22.0365 14.5859 22.0365Z" fill="#5468AA"/>
<path d="M7.10682 16.162L4.69971 16.7065C4.84299 17.2796 5.01492 17.8527 5.24417 18.3972L7.53666 17.4229C7.36472 17.0217 7.22144 16.5918 7.10682 16.162Z" fill="#D3564A"/>
<path d="M8.25284 18.7412L6.21826 20.1454C6.6481 20.8045 7.16391 21.3776 7.76569 21.922L9.42774 20.0881C8.96925 19.6582 8.56806 19.2284 8.25284 18.7412Z" fill="#D55B7D"/>
<path d="M7.53663 17.4231L5.24414 18.3974C5.50205 18.9992 5.81726 19.601 6.18979 20.1454L8.22438 18.7413C7.96647 18.3114 7.73722 17.8816 7.53663 17.4231Z" fill="#D5545D"/>
<path d="M6.93513 14.6145L4.4707 14.6432C4.4707 15.3596 4.55667 16.0187 4.69995 16.6777L7.10706 16.1333C7.0211 15.6461 6.93513 15.1303 6.93513 14.6145Z" fill="#D56051"/>
<path d="M13.354 21.9507L12.9814 24.3865C13.4973 24.4724 14.0417 24.5011 14.6148 24.5011L14.5862 22.0366C14.1563 22.0366 13.7552 22.008 13.354 21.9507Z" fill="#626AAD"/>
<path d="M12.0358 21.6355L11.2334 23.9853C11.7779 24.1859 12.3796 24.3292 12.9528 24.4151L13.3253 21.9794C12.8955 21.8934 12.4656 21.7788 12.0358 21.6355Z" fill="#796099"/>
<path d="M9.39936 20.0593L7.7373 21.8933C8.22446 22.3232 8.74027 22.7243 9.31339 23.0682L10.5743 20.9477C10.1444 20.6898 9.77188 20.4032 9.39936 20.0593Z" fill="#A95A8B"/>
<path d="M10.5743 20.9478L9.31348 23.0683C9.91525 23.4408 10.5743 23.7561 11.2621 23.9853L12.0645 21.6355C11.52 21.4636 11.0328 21.2343 10.5743 20.9478Z" fill="#7E496D"/>
<path d="M12.5229 9.34196L11.8065 7.422C11.348 7.59393 10.8895 7.82318 10.4883 8.08109L11.5772 9.80045C11.8351 9.62852 12.179 9.48524 12.5229 9.34196Z" fill="#F1DE58"/>
<path d="M13.0669 7.07812L13.4394 9.08405C13.7546 9.02674 14.0699 8.99808 14.3851 8.99808L14.3564 6.9635C13.9266 6.9635 13.4967 6.99216 13.0669 7.07812Z" fill="#C8D660"/>
<path d="M11.7778 7.45068L12.4942 9.37064C12.8095 9.25602 13.096 9.17005 13.4399 9.11274L13.0674 7.10681C12.6375 7.16412 12.2077 7.27875 11.7778 7.45068Z" fill="#EDEA65"/>
<path d="M14.3853 6.93481L14.4139 8.9694C14.4426 8.9694 14.4426 8.9694 14.4712 8.9694C14.7864 8.9694 15.073 8.99806 15.3596 9.05537L15.6748 7.02078C15.2163 6.96347 14.8151 6.93481 14.3853 6.93481Z" fill="#A2BE59"/>
<path d="M11.5483 9.82911L10.4594 8.10974C10.0296 8.3963 9.62839 8.71152 9.25586 9.05539L10.66 10.5169C10.9179 10.2589 11.2045 10.0297 11.5483 9.82911Z" fill="#F5CD53"/>
<path d="M9.82972 11.5484L8.11035 10.4595L9.82972 11.5484Z" fill="#C7DC93"/>
<path d="M9.80018 11.5484L8.08082 10.4595C7.79425 10.8893 7.565 11.3765 7.39307 11.8636L9.28437 12.58C9.42765 12.2075 9.59959 11.8636 9.80018 11.5484Z" fill="#DE824C"/>
<path d="M9.80042 11.5484C9.82908 11.5484 9.82908 11.5484 9.80042 11.5484L8.08105 10.4595L9.80042 11.5484Z" fill="#DE824C"/>
<path d="M10.6607 10.5171L9.2566 9.05566C8.82675 9.48551 8.42557 9.944 8.11035 10.4598L9.82972 11.5487C10.059 11.1762 10.3455 10.8323 10.6607 10.5171Z" fill="#E2954F"/>
<path d="M15.3311 9.05522C15.6463 9.11253 15.9615 9.16984 16.248 9.28446L16.9071 7.33585C16.506 7.19257 16.0761 7.1066 15.6463 7.02063L15.3311 9.05522Z" fill="#98C35A"/>
<path d="M9.31315 12.5802L7.42185 11.8638C7.24991 12.2936 7.13528 12.7521 7.04932 13.2393L9.05524 13.5545C9.0839 13.2393 9.19853 12.8954 9.31315 12.5802Z" fill="#D7704D"/>
<path d="M17.2793 9.77195C17.5945 9.97254 17.9097 10.2018 18.1963 10.4597L19.5718 8.94092C19.1993 8.59705 18.7694 8.28183 18.3396 8.02393L17.2793 9.77195Z" fill="#5E955B"/>
<path d="M16.2476 9.28446C16.6201 9.39908 16.964 9.57102 17.2792 9.77162L18.3395 8.02359C17.881 7.76569 17.3938 7.53644 16.9067 7.3645L16.2476 9.28446Z" fill="#74B55F"/>
<path d="M14.5574 22.0367L14.5288 20.0021C14.5001 20.0021 14.5001 20.0021 14.4714 20.0021C14.1849 20.0021 13.8983 19.9735 13.6404 19.9448L13.3252 21.9508C13.755 22.0081 14.1562 22.0367 14.5574 22.0367Z" fill="#515D94"/>
<path d="M18.4542 20.9188C18.884 20.6609 19.2852 20.3457 19.6291 20.0018L18.2249 18.5117C17.967 18.7696 17.6805 18.9702 17.3652 19.1708L18.4542 20.9188Z" fill="#6BAAC3"/>
<path d="M17.1363 21.5494C17.5948 21.3774 18.0247 21.1482 18.4545 20.919L17.3656 19.1996C17.079 19.3715 16.7638 19.5435 16.4199 19.6581L17.1363 21.5494Z" fill="#5E8AB7"/>
<path d="M17.1362 21.5496L16.4198 19.6583C16.1332 19.7729 15.818 19.8589 15.4741 19.9162L15.8466 21.9222C16.3051 21.8362 16.735 21.6929 17.1362 21.5496Z" fill="#4C6487"/>
<path d="M14.5863 22.0366C15.0161 22.0366 15.446 21.9793 15.8758 21.9219L15.5033 19.916C15.1881 19.9733 14.8728 20.002 14.5576 20.002L14.5863 22.0366Z" fill="#4D609B"/>
<path d="M8.96915 14.5286C8.96915 14.2134 8.99781 13.8981 9.05512 13.5829L7.04919 13.2677C6.96322 13.6975 6.93457 14.156 6.93457 14.6145V14.6432L8.96915 14.6145C8.96915 14.5572 8.96915 14.5572 8.96915 14.5286Z" fill="#D6674F"/>
<path d="M9.39966 20.0594L10.7752 18.5693C10.4599 18.2827 10.1734 17.9388 9.91547 17.595L8.25342 18.7412C8.56864 19.2284 8.96982 19.6582 9.39966 20.0594Z" fill="#CB5164"/>
<path d="M8.25302 18.7409L9.91508 17.5947C9.71449 17.2795 9.54255 16.9642 9.39927 16.6204L7.53662 17.4227C7.73721 17.8812 7.96646 18.3111 8.25302 18.7409Z" fill="#C64F56"/>
<path d="M7.53644 17.423L9.39908 16.6206C9.28446 16.334 9.16984 16.0188 9.11252 15.7036L7.13525 16.1335C7.22122 16.592 7.3645 17.0218 7.53644 17.423Z" fill="#C85345"/>
<path d="M9.08412 15.7038C8.99815 15.3312 8.96949 14.9587 8.94084 14.5862L6.90625 14.6148C6.90625 15.1306 6.96356 15.6465 7.07819 16.1623L9.08412 15.7038Z" fill="#D35B46"/>
<path d="M13.3533 21.9505L13.6686 19.9446C13.3247 19.8873 13.0095 19.83 12.6942 19.7153L12.0352 21.6353C12.465 21.7786 12.8948 21.8932 13.3533 21.9505Z" fill="#624E79"/>
<path d="M10.5742 20.9477L11.6058 19.1996C11.2906 19.0277 11.0327 18.7985 10.7461 18.5692L9.37061 20.0593C9.77179 20.4032 10.1443 20.6898 10.5742 20.9477Z" fill="#9F4E70"/>
<path d="M12.0357 21.6354L12.6948 19.7154C12.3222 19.5721 11.9497 19.4288 11.6058 19.1996L10.5742 20.9476C11.0327 21.2342 11.5199 21.4634 12.0357 21.6354Z" fill="#6D3D58"/>
</svg>
