<svg width="52" height="52" viewBox="0 0 52 52" fill="none" xmlns="http://www.w3.org/2000/svg">
<circle cx="25.912" cy="25.72" r="25.536" fill="#4E73D0"/>
<g clip-path="url(#clip0_233_2985)">
<path d="M19.7032 33.1878C18.1533 33.1878 16.897 34.4442 16.897 35.994C16.897 37.5439 18.1534 38.8002 19.7032 38.8002C21.2531 38.8002 22.5094 37.5438 22.5094 35.994C22.5095 34.4442 21.2531 33.1878 19.7032 33.1878ZM19.7032 37.553C18.8422 37.553 18.1442 36.8551 18.1442 35.994C18.1442 35.133 18.8422 34.435 19.7032 34.435C20.5642 34.435 21.2622 35.133 21.2622 35.994C21.2623 36.8551 20.5642 37.553 19.7032 37.553Z" fill="white"/>
<path d="M31.5518 33.1878C30.002 33.1878 28.7456 34.4442 28.7456 35.994C28.7456 37.5439 30.002 38.8002 31.5518 38.8002C33.1016 38.8002 34.3581 37.5438 34.3581 35.994C34.3581 34.4442 33.1017 33.1878 31.5518 33.1878ZM31.5518 37.553C30.6908 37.553 29.9928 36.8551 29.9928 35.994C29.9928 35.133 30.6908 34.435 31.5518 34.435C32.4129 34.435 33.1108 35.133 33.1108 35.994C33.1109 36.8551 32.4129 37.553 31.5518 37.553Z" fill="white"/>
<path d="M37.8813 16.818C37.7514 16.6762 37.5738 16.5874 37.3824 16.5686L17.0839 16.2879L16.5227 14.573C16.1273 13.4266 15.0537 12.6526 13.8411 12.6398H11.752C11.4076 12.6398 11.1284 12.919 11.1284 13.2634C11.1284 13.6078 11.4076 13.887 11.752 13.887H13.8411C14.5192 13.902 15.1162 14.3374 15.3378 14.9783L19.2977 26.9205L18.986 27.6376C18.6382 28.5344 18.7426 29.5437 19.2666 30.3503C19.7855 31.1425 20.6585 31.6314 21.6051 31.6599H33.7344C34.0788 31.6599 34.358 31.3807 34.358 31.0363C34.358 30.6919 34.0788 30.4127 33.7344 30.4127H21.6051C21.0705 30.3993 20.5784 30.1181 20.2955 29.6643C20.0157 29.2161 19.9582 28.664 20.1396 28.1677L20.3891 27.6064L33.5161 26.2345C34.958 26.0756 36.1441 25.0269 36.4782 23.6153L37.9749 17.348C38.0424 17.1675 38.0066 16.9645 37.8813 16.818ZM35.2622 23.3347C35.0597 24.2434 34.2882 24.9137 33.3602 24.9873L20.3891 26.328L17.4893 17.5352L36.6029 17.8158L35.2622 23.3347Z" fill="white"/>
</g>
<defs>
<clipPath id="clip0_233_2985">
<rect width="26.88" height="26.88" fill="white" transform="translate(11.1279 12.28)"/>
</clipPath>
</defs>
</svg>
