<svg width="52" height="52" viewBox="0 0 52 52" fill="none" xmlns="http://www.w3.org/2000/svg">
<circle cx="25.5677" cy="26.048" r="25.536" fill="#21921F"/>
<g clip-path="url(#clip0_3_2)">
<path d="M37.6907 14.3075C36.2027 12.8195 34.2242 12 32.1199 12C30.0155 12 28.0371 12.8195 26.549 14.3075L14.3058 26.5507C11.234 29.6225 11.234 34.6206 14.3058 37.6925C15.7938 39.1805 17.7723 40 19.8767 40C21.981 40 23.9595 39.1805 25.4475 37.6925L37.6907 25.4493C39.1787 23.9613 39.9982 21.9828 39.9982 19.8785C39.9982 17.7741 39.1788 15.7956 37.6907 14.3075ZM24.2822 36.5271C23.1055 37.7038 21.5409 38.3519 19.8767 38.3519C18.2125 38.3519 16.6479 37.7038 15.4712 36.5271C13.042 34.0979 13.042 30.1453 15.4712 27.716L21.0101 22.1772L29.8212 30.9882L24.2822 36.5271ZM36.5254 24.284L30.9865 29.8228L22.1754 21.0118L27.7143 15.4729C28.9289 14.2583 30.5243 13.651 32.1198 13.651C33.7153 13.651 35.3107 14.2583 36.5253 15.4729C38.9546 17.9021 38.9546 21.8547 36.5254 24.284Z" fill="white"/>
</g>
<defs>
<clipPath id="clip0_3_2">
<rect width="28" height="28" fill="white" transform="translate(12 12)"/>
</clipPath>
</defs>
</svg>
