<svg width="52" height="52" viewBox="0 0 52 52" fill="none" xmlns="http://www.w3.org/2000/svg">
<circle cx="26.3124" cy="26.048" r="25.536" fill="#C16AD7"/>
<g clip-path="url(#clip0_233_2966)">
<path d="M12.8726 28.008V37.024C12.8726 38.368 13.9926 39.488 15.3926 39.488H24.4086C25.1926 39.488 25.8646 39.096 26.3686 38.536C26.8166 39.096 27.5446 39.488 28.3286 39.488H37.3446C38.7446 39.488 39.8646 38.368 39.8646 36.968V28.008C39.8646 26.608 38.7446 25.488 37.3446 25.488H32.9766C33.2566 25.096 33.3686 24.592 33.3686 24.088V15.128C33.3126 13.728 32.1926 12.608 30.7926 12.608H21.8326C20.4326 12.608 19.3126 13.728 19.3126 15.128V24.144C19.3126 24.648 19.4806 25.152 19.7046 25.544H15.3926C13.9926 25.488 12.8726 26.608 12.8726 28.008H12.8726ZM26.8726 28.008C26.8726 27.224 27.4886 26.608 28.2726 26.608H37.2886C38.0726 26.608 38.6886 27.224 38.6886 28.008V37.024C38.6886 37.808 38.0726 38.424 37.2886 38.424H28.2726C27.4886 38.424 26.8726 37.808 26.8726 37.024V28.008ZM21.8326 25.488C21.0486 25.488 20.4326 24.872 20.4326 24.088V15.128C20.4326 14.344 21.0486 13.728 21.8326 13.728H30.7926C31.5766 13.728 32.1926 14.344 32.1926 15.128V24.144C32.1926 24.928 31.5766 25.544 30.7926 25.544H21.8326V25.488ZM13.9926 28.008C13.9926 27.224 14.6086 26.608 15.3926 26.608H24.4086C25.1926 26.608 25.8086 27.224 25.8086 28.008V37.024C25.8086 37.808 25.1926 38.424 24.4086 38.424H15.3926C14.6086 38.368 13.9926 37.752 13.9926 36.968V28.008Z" fill="white"/>
<path d="M23.4003 22.8C23.2883 23.08 23.4563 23.416 23.7363 23.528C23.7923 23.528 23.8483 23.584 23.9043 23.584C24.1283 23.584 24.3523 23.416 24.4083 23.192L25.0803 21.344H27.4323L28.1043 23.192C28.2163 23.472 28.5523 23.64 28.8323 23.528C29.1123 23.416 29.2803 23.08 29.1683 22.8L26.8163 16.08C26.7603 15.856 26.5363 15.688 26.3123 15.688C26.0883 15.688 25.8643 15.856 25.8083 16.08L23.4003 22.8ZM25.5283 20.168L26.3123 17.928L27.0963 20.168H25.5283Z" fill="white"/>
<path d="M20.0967 28.568H17.9687C17.6327 28.568 17.4087 28.792 17.4087 29.128V35.848C17.4087 36.184 17.6327 36.408 17.9687 36.408H20.0967C21.3287 36.408 22.3367 35.4 22.3367 34.168C22.3367 33.496 22.0567 32.88 21.5527 32.488C22.0007 32.096 22.3367 31.48 22.3367 30.808C22.3367 29.576 21.3287 28.568 20.0967 28.568ZM20.0967 35.288H18.5287V33.048H20.0967C20.7127 33.048 21.2167 33.552 21.2167 34.168C21.2167 34.784 20.7127 35.288 20.0967 35.288ZM20.0967 31.928H18.5287V29.688H20.0967C20.7127 29.688 21.2167 30.192 21.2167 30.808C21.2167 31.424 20.7127 31.928 20.0967 31.928Z" fill="white"/>
<path d="M33.2568 29.688C33.9848 29.688 34.7128 29.968 35.2168 30.528C35.4408 30.752 35.7768 30.752 36.0008 30.528C36.2248 30.304 36.2248 29.968 36.0008 29.744C35.2728 29.016 34.2648 28.568 33.2008 28.568C32.1368 28.568 31.1848 28.96 30.4568 29.744C29.7288 30.528 29.2808 31.48 29.2808 32.488C29.2808 33.552 29.6728 34.504 30.4568 35.232C31.2408 36.016 32.2488 36.352 33.2008 36.352C34.2088 36.352 35.2168 35.96 36.0008 35.232C36.2248 35.008 36.2248 34.672 36.0008 34.448C35.7768 34.224 35.4408 34.224 35.2168 34.448C34.1528 35.568 32.3608 35.568 31.2408 34.448C30.7368 33.944 30.4008 33.216 30.4008 32.488C30.4008 31.76 30.6808 31.032 31.2408 30.528C31.8008 29.968 32.4728 29.688 33.2568 29.688Z" fill="white"/>
</g>
<defs>
<clipPath id="clip0_233_2966">
<rect width="26.88" height="26.88" fill="white" transform="translate(12.8726 12.608)"/>
</clipPath>
</defs>
</svg>
