<svg width="52" height="52" viewBox="0 0 52 52" fill="none" xmlns="http://www.w3.org/2000/svg">
<circle cx="26.3124" cy="25.72" r="25.536" fill="#4ED073"/>
<g clip-path="url(#clip0_233_2958)">
<path d="M38.3876 21.963C37.2293 21.1368 37.9771 21.8473 33.2758 16.7507C32.8067 16.2431 32.2377 15.8379 31.6046 15.5605C30.9714 15.2832 30.2878 15.1396 29.5966 15.1389H16.2777C15.0516 15.1392 13.8682 15.5893 12.9519 16.404C12.0356 17.2186 11.45 18.3412 11.3062 19.5588L10.2014 28.9473C10.1619 29.2844 10.1942 29.6259 10.2961 29.9496C10.398 30.2733 10.5673 30.5717 10.7928 30.8253C11.0182 31.0789 11.2948 31.2819 11.6044 31.421C11.9139 31.5601 12.2494 31.6321 12.5887 31.6323H12.9556C13.0775 32.5523 13.5296 33.3967 14.2276 34.0084C14.9257 34.62 15.8221 34.9572 16.7502 34.9572C17.6783 34.9572 18.5748 34.62 19.2728 34.0084C19.9709 33.3967 20.4229 32.5523 20.5448 31.6323H33.755C33.877 32.5524 34.329 33.3968 35.0271 34.0084C35.7251 34.6201 36.6216 34.9573 37.5497 34.9573C38.4779 34.9573 39.3744 34.6201 40.0724 34.0084C40.7705 33.3968 41.2225 32.5524 41.3445 31.6323C42.415 31.6323 42.9499 31.7351 43.4434 31.1815C43.5697 31.0396 43.6646 30.8726 43.7219 30.6915C43.7792 30.5104 43.7976 30.3193 43.7758 30.1305L43.3663 26.5956C43.3231 26.2248 43.2028 25.8671 43.0131 25.5456C42.8234 25.2241 42.5685 24.9459 42.2648 24.7288L39.8008 22.9713L38.3876 21.963ZM26.9071 16.1469H29.597C30.149 16.1475 30.6949 16.2621 31.2004 16.4836C31.706 16.7051 32.1604 17.0287 32.535 17.434C36.8065 22.0649 36.5329 21.7768 36.7319 21.963H33.0494C32.1245 21.9642 31.2168 21.7127 30.4244 21.2356C29.632 20.7585 28.9851 20.0739 28.5535 19.2558L26.9071 16.1469ZM16.7501 33.9492C16.1922 33.9492 15.6468 33.7837 15.183 33.4737C14.7191 33.1638 14.3575 32.7232 14.144 32.2077C13.9305 31.6923 13.8747 31.1251 13.9835 30.5779C14.0924 30.0307 14.3611 29.5281 14.7556 29.1336C15.1501 28.7391 15.6527 28.4704 16.1999 28.3616C16.7471 28.2528 17.3143 28.3086 17.8298 28.5221C18.3452 28.7356 18.7858 29.0972 19.0957 29.5611C19.4057 30.025 19.5711 30.5704 19.5711 31.1283C19.5703 31.8762 19.2728 32.5932 18.744 33.1221C18.2151 33.6509 17.4981 33.9484 16.7501 33.9492ZM37.5496 33.9492C36.9917 33.9492 36.4463 33.7837 35.9824 33.4738C35.5185 33.1638 35.1569 32.7233 34.9434 32.2078C34.7299 31.6924 34.674 31.1252 34.7829 30.578C34.8917 30.0308 35.1604 29.5281 35.5549 29.1336C35.9494 28.7391 36.4521 28.4705 36.9993 28.3616C37.5464 28.2528 38.1136 28.3086 38.6291 28.5221C39.1445 28.7356 39.5851 29.0972 39.8951 29.5611C40.205 30.025 40.3705 30.5704 40.3705 31.1283C40.3696 31.8762 40.0722 32.5932 39.5433 33.1221C39.0145 33.6509 38.2975 33.9484 37.5496 33.9492ZM41.6791 25.5492C41.8682 25.6843 42.0269 25.8575 42.145 26.0576C42.2632 26.2578 42.3381 26.4804 42.3651 26.7112C42.8077 30.5319 42.8308 30.354 42.6909 30.5109C42.5577 30.6602 42.5045 30.6243 41.3456 30.6243C40.7451 26.0916 34.3241 26.3211 33.754 30.6243H29.6615V23.9295H28.6535V30.6243H20.546C19.9428 26.0715 13.5181 26.3379 12.9544 30.6243C12.5823 30.6243 12.0163 30.6852 11.5456 30.1558C11.4147 30.0085 11.3165 29.8352 11.2573 29.6473C11.1982 29.4593 11.1795 29.2609 11.2025 29.0653L11.5753 25.8969H18.6224V24.8889H11.6939L12.3071 19.6767C12.422 18.7042 12.8897 17.8077 13.6215 17.1571C14.3534 16.5065 15.2985 16.147 16.2777 16.1469H25.7666L27.6631 19.7275C28.1802 20.7076 28.9552 21.5278 29.9045 22.0994C30.8538 22.6711 31.9413 22.9724 33.0494 22.971H38.0648L41.6791 25.5492Z" fill="white"/>
<path d="M31.3818 24.6231H33.9484V25.6311H31.3818V24.6231Z" fill="white"/>
</g>
<defs>
<clipPath id="clip0_233_2958">
<rect width="33.6" height="33.6" fill="white" transform="translate(10.1846 8.24802)"/>
</clipPath>
</defs>
</svg>
