<svg width="52" height="52" viewBox="0 0 52 52" fill="none" xmlns="http://www.w3.org/2000/svg">
<circle cx="26.1361" cy="25.72" r="25.536" fill="#6ABAD3"/>
<g clip-path="url(#clip0_233_3011)">
<path d="M26.1366 30.76C25.9709 30.76 25.8129 30.6861 25.7065 30.5584C21.8101 25.8813 21.8101 20.5176 25.7065 15.8405C25.9182 15.5851 26.3539 15.5851 26.5667 15.8405C30.4632 20.5176 30.4632 25.8813 26.5667 30.5584C26.4603 30.6861 26.3024 30.76 26.1366 30.76ZM26.1366 17.0993C23.1406 21.0552 23.1406 25.3448 26.1366 29.3006C29.1326 25.3448 29.1326 21.0552 26.1366 17.0993Z" fill="white"/>
<path d="M26.1362 35.8C25.9704 35.8 25.8125 35.7261 25.7061 35.5984C24.7899 34.4986 24.0776 33.3371 23.5904 32.1477C23.4739 31.861 23.6106 31.5339 23.8962 31.4174C24.1829 31.301 24.5099 31.4376 24.6264 31.7232C24.9904 32.6147 25.4966 33.4917 26.135 34.3384C26.7723 33.4917 27.2786 32.6147 27.6437 31.7232C27.7602 31.4376 28.0872 31.2998 28.3739 31.4174C28.6606 31.5339 28.7973 31.861 28.6797 32.1477C28.1925 33.3371 27.4813 34.4986 26.564 35.5984C26.4598 35.7261 26.3019 35.8 26.1362 35.8Z" fill="white"/>
<path d="M26.1469 30.7488C25.8613 30.7488 25.6171 30.5304 25.5902 30.2403C25.5622 29.9323 25.7885 29.659 26.0965 29.631C31.4187 29.1382 34.3453 26.4155 35.0229 21.315C32.5723 21.6454 30.6515 22.5056 29.303 23.8731C29.0835 24.0937 28.7285 24.096 28.5112 23.8787C28.2906 23.6614 28.2883 23.3075 28.5045 23.0869C30.1677 21.4001 32.5566 20.4033 35.6064 20.1222C35.7688 20.1043 35.9357 20.1659 36.0533 20.2835C36.1698 20.4011 36.2303 20.5646 36.2157 20.7304C35.6658 26.8131 32.2957 30.182 26.2006 30.7465C26.1816 30.7488 26.1637 30.7488 26.1469 30.7488Z" fill="white"/>
<path d="M32.303 33.5667C30.1302 33.5667 27.9563 32.7413 25.7958 31.0881C25.5494 30.9011 25.5035 30.5494 25.6905 30.303C25.8798 30.0566 26.2303 30.0118 26.4756 30.1989C30.3912 33.1937 34.2037 33.1982 38.1181 30.2078C36.3406 28.8549 34.5609 28.1134 32.8193 27.9992C32.5113 27.979 32.2784 27.7125 32.2974 27.4033C32.3187 27.0953 32.5561 26.8601 32.8932 26.8814C35.0515 27.0225 37.2321 27.9969 39.3736 29.7755C39.5024 29.8819 39.5763 30.0398 39.5763 30.2056C39.5763 30.3725 39.5035 30.5304 39.3747 30.6368C37.0305 32.5901 34.6662 33.5667 32.303 33.5667Z" fill="white"/>
<path d="M19.9696 33.5667C17.6064 33.5667 15.242 32.5901 12.8979 30.6368C12.7691 30.5304 12.6963 30.3725 12.6963 30.2056C12.6963 30.0398 12.7702 29.8819 12.899 29.7755C15.0404 27.997 17.2211 27.0226 19.3793 26.8814C19.7108 26.8579 19.955 27.0954 19.9752 27.4034C19.9953 27.7114 19.7624 27.979 19.4532 27.9992C17.7105 28.1134 15.9308 28.856 14.1545 30.2078C18.0667 33.1982 21.8814 33.1937 25.7969 30.1989C26.0422 30.0118 26.3939 30.0566 26.582 30.303C26.7691 30.5483 26.7232 30.9 26.4768 31.0882C24.3163 32.7401 22.1435 33.5667 19.9696 33.5667Z" fill="white"/>
<path d="M26.1263 30.7488C26.1084 30.7488 26.0916 30.7488 26.0736 30.7465C19.9786 30.182 16.6085 26.812 16.0586 20.7304C16.0429 20.5657 16.1034 20.4011 16.221 20.2835C16.3386 20.1659 16.501 20.1043 16.6679 20.1222C19.7176 20.4022 22.1055 21.4001 23.7698 23.0869C23.986 23.3075 23.9837 23.6614 23.7631 23.8787C23.5447 24.096 23.1896 24.0937 22.9712 23.8731C21.6228 22.5056 19.7008 21.6465 17.2503 21.315C17.9268 26.4155 20.8544 29.1382 26.1767 29.631C26.4847 29.659 26.712 29.9323 26.6829 30.2403C26.656 30.5304 26.4119 30.7488 26.1263 30.7488Z" fill="white"/>
</g>
<defs>
<clipPath id="clip0_233_3011">
<rect width="26.88" height="26.88" fill="white" transform="translate(12.6958 12.28)"/>
</clipPath>
</defs>
</svg>
