<svg width="52" height="52" viewBox="0 0 52 52" fill="none" xmlns="http://www.w3.org/2000/svg">
<circle cx="26.1922" cy="26.048" r="25.536" fill="#878787"/>
<g clip-path="url(#clip0_3_2)">
<path d="M23.8276 31.1472L23.3821 31.5927C23.2283 31.7465 23.2283 31.9958 23.3821 32.1495C23.5359 32.3033 23.7852 32.3032 23.9389 32.1495L24.3844 31.7041C24.5381 31.5502 24.5381 31.301 24.3844 31.1472C24.2306 30.9935 23.9813 30.9935 23.8276 31.1472ZM20.7712 28.5355C20.5547 28.5211 20.3663 28.6844 20.3514 28.9014C20.3208 29.3461 20.4838 29.7817 20.7986 30.0965C21.1076 30.4055 21.5401 30.5745 21.9937 30.5436C22.2106 30.5287 22.3744 30.3408 22.3595 30.1238C22.3446 29.9069 22.1568 29.7438 21.9397 29.758C21.7223 29.7727 21.5092 29.6933 21.3555 29.5397C21.2018 29.3859 21.1222 29.173 21.1371 28.9553C21.1519 28.7384 20.9882 28.5504 20.7712 28.5355ZM37.5681 13.3267C36.611 12.3696 35.0535 12.3696 34.0962 13.3267C32.4829 14.94 31.2986 13.898 30.0921 14.5019C29.7599 14.2786 29.3595 14.1717 28.9591 14.201C28.7422 14.2169 28.5793 14.4055 28.5951 14.6225C28.611 14.8393 28.7996 15.001 29.0166 14.9865C29.2506 14.9692 29.4846 15.0348 29.6754 15.1707C31.6622 16.586 34.3075 19.2308 35.7242 21.2195C36.0115 21.6228 35.965 22.1704 35.6138 22.5217L34.2428 23.8928C34.0437 23.3507 33.7629 22.8317 33.4304 22.3343L34.1671 21.5976C34.3209 21.4438 34.3209 21.1945 34.1671 21.0407C34.0133 20.887 33.764 20.887 33.6103 21.0407L32.9625 21.6885C32.4998 21.0935 31.9777 20.5311 31.4538 19.998L32.1806 19.2712C32.3344 19.1174 32.3344 18.8681 32.1806 18.7144C32.0268 18.5607 31.7775 18.5607 31.6238 18.7144L30.897 19.4411C30.3639 18.9172 29.8014 18.3952 29.2064 17.9324L29.8542 17.2847C30.008 17.1309 30.008 16.8816 29.8542 16.7278C29.7005 16.5741 29.4512 16.574 29.2974 16.7278L28.5606 17.4647C28.0632 17.1321 27.5442 16.8513 27.0022 16.6523L27.7282 15.9263C27.882 15.7725 27.882 15.5232 27.7282 15.3694C27.5744 15.2157 27.3251 15.2157 27.1714 15.3694L26.1298 16.411C25.6999 16.3313 25.2565 16.3075 24.7986 16.3533C22.4138 16.592 21.0801 18.7484 19.9034 20.6511C18.6252 22.7179 18.3949 22.9924 16.2843 24.2736C14.861 25.1376 13.2478 26.1168 11.7776 28.238C10.3454 30.3045 13.411 33.9192 15.1934 35.7016C16.9802 37.4884 20.5925 40.5484 22.657 39.1174C23.2063 38.7367 23.6969 38.3352 24.1568 37.8898C24.3131 37.7385 24.3171 37.4893 24.1658 37.3331C24.0146 37.1768 23.7653 37.1728 23.609 37.324C23.1802 37.7393 22.7221 38.1142 22.2083 38.4702C20.8427 39.4165 17.8759 37.2703 15.7502 35.1448C13.6247 33.0191 11.4783 30.0523 12.4249 28.6866C13.7996 26.7032 15.3368 25.77 16.6929 24.9468C18.9312 23.5881 19.2412 23.219 20.5731 21.0653C21.0306 20.3255 21.5144 19.5444 22.0713 18.8737C24.3831 19.4321 25.855 21.0804 26.2266 23.5385C26.6795 26.5346 28.3452 29.4281 30.0187 30.1257C30.0448 30.1366 30.0709 30.1465 30.0969 30.1563C27.7251 31.6295 27.3891 31.8285 25.9482 34.2021C25.5991 34.7771 25.2382 35.3716 24.7905 35.9728C24.6606 36.1472 24.6966 36.3939 24.8711 36.5238C25.0455 36.6537 25.2922 36.6176 25.422 36.4432C25.892 35.8121 26.2628 35.2014 26.6213 34.6108C27.9053 32.4956 28.1833 32.266 30.2439 30.9917C32.4005 29.6578 35.0857 28.0135 34.4841 24.7652L36.1706 23.0786C36.7833 22.4659 36.8733 21.5164 36.393 20.803C36.9983 19.5935 35.9529 18.414 37.5681 16.7988C38.5276 15.8392 38.5277 14.2864 37.5681 13.3267ZM31.3481 29.3378C29.9746 30.241 27.794 27.2878 27.1125 24.0131C30.8415 25.1022 32.7351 28.3549 31.3481 29.3378ZM33.7581 26.0179C33.6684 26.915 33.219 27.656 32.5934 28.2983C32.5331 27.0662 31.5947 25.8417 30.6635 25.0398C29.9371 24.4141 28.7158 23.5939 26.961 23.1562C26.4873 20.5807 24.8964 18.8987 22.6778 18.2237C23.3013 17.6388 24.0175 17.2228 24.8769 17.1368C27.0829 16.9157 29.036 18.6912 30.6198 20.2752C32.2177 21.8731 33.9773 23.8284 33.7581 26.0179ZM37.0113 16.2418C35.4525 17.8006 35.9013 19.1207 35.8043 20.0212C34.4582 18.3288 32.6551 16.5075 30.8738 15.0907C31.7743 14.9937 33.0945 15.4422 34.6531 13.8836C35.3033 13.2334 36.3612 13.2335 37.0113 13.8835C37.6629 14.5352 37.6631 15.5901 37.0113 16.2418ZM19.1909 26.5105L18.7455 26.956C18.5917 27.1098 18.5917 27.3591 18.7455 27.5129C18.8993 27.6667 19.1486 27.6667 19.3023 27.5129L19.7478 27.0675C19.9016 26.9136 19.9016 26.6644 19.7478 26.5106C19.594 26.3568 19.3447 26.3568 19.1909 26.5105Z" fill="white"/>
</g>
<defs>
<clipPath id="clip0_3_2">
<rect width="26.88" height="26.88" fill="white" transform="translate(11.4082 12.608)"/>
</clipPath>
</defs>
</svg>
