<svg width="52" height="52" viewBox="0 0 52 52" fill="none" xmlns="http://www.w3.org/2000/svg">
<circle cx="26.1922" cy="25.72" r="25.536" fill="#5AB42F"/>
<path d="M34.9667 17.32H17.4185C16.6269 17.3209 15.8679 17.6358 15.3082 18.1955C14.7484 18.7553 14.4335 19.5143 14.4326 20.3059V31.1341C14.4335 31.9257 14.7484 32.6847 15.3082 33.2445C15.8679 33.8042 16.6269 34.1191 17.4185 34.12H34.9667C35.7583 34.1191 36.5173 33.8042 37.0771 33.2445C37.6368 32.6847 37.9517 31.9257 37.9526 31.1341V20.3059C37.9517 19.5143 37.6368 18.7553 37.0771 18.1955C36.5173 17.6358 35.7583 17.3209 34.9667 17.32ZM17.4185 18.44H34.9667C35.4614 18.4406 35.9356 18.6374 36.2854 18.9872C36.6352 19.337 36.832 19.8112 36.8326 20.3059V21.8H15.5526V20.3059C15.5532 19.8112 15.75 19.337 16.0998 18.9872C16.4496 18.6374 16.9238 18.4406 17.4185 18.44ZM34.9667 33H17.4185C16.9238 32.9994 16.4496 32.8026 16.0998 32.4528C15.75 32.103 15.5532 31.6288 15.5526 31.1341V22.92H36.8326V31.1341C36.832 31.6288 36.6352 32.103 36.2854 32.4528C35.9356 32.8026 35.4614 32.9994 34.9667 33Z" fill="white"/>
<path d="M22.8325 29.64H18.3525C18.204 29.64 18.0615 29.699 17.9565 29.804C17.8515 29.909 17.7925 30.0515 17.7925 30.2C17.7925 30.3485 17.8515 30.491 17.9565 30.596C18.0615 30.701 18.204 30.76 18.3525 30.76H22.8325C22.981 30.76 23.1234 30.701 23.2285 30.596C23.3335 30.491 23.3925 30.3485 23.3925 30.2C23.3925 30.0515 23.3335 29.909 23.2285 29.804C23.1234 29.699 22.981 29.64 22.8325 29.64Z" fill="white"/>
</svg>
