<svg width="52" height="52" viewBox="0 0 52 52" fill="none" xmlns="http://www.w3.org/2000/svg">
<circle cx="26.1361" cy="26.048" r="25.536" fill="#CD0364"/>
<g clip-path="url(#clip0_233_3023)">
<path d="M38.9335 22.7376L26.3335 16.0176C26.2096 15.9516 26.0622 15.9516 25.9383 16.0176L13.3383 22.7376C13.201 22.8107 13.1157 22.953 13.1157 23.108C13.1157 23.263 13.201 23.4054 13.3379 23.4785L16.8957 25.376V30.668H17.7357V25.8241L18.9957 26.4961V29.0476C18.2729 29.2354 17.7357 29.8872 17.7357 30.668C17.7357 31.0519 17.8701 31.4017 18.0877 31.6852C17.8584 32.4694 17.7357 33.2779 17.7357 34.096V35.288C17.7357 35.4472 17.8256 35.5925 17.968 35.6639L18.4321 35.8962C18.7362 36.0478 19.0759 36.128 19.4157 36.128C19.7555 36.128 20.0953 36.0478 20.3994 35.8957L20.8635 35.6635C21.0058 35.5925 21.0957 35.4472 21.0957 35.288V34.096C21.0957 33.2779 20.9731 32.4694 20.7438 31.6852C20.9613 31.4017 21.0957 31.0519 21.0957 30.668C21.0957 29.8872 20.5585 29.2354 19.8357 29.0476V26.9443L25.9379 30.1989C26.0001 30.2316 26.0677 30.248 26.1357 30.248C26.2038 30.248 26.2714 30.2316 26.3335 30.1989L34.5357 25.8241V30.4605C32.1997 32.2207 29.3143 33.188 26.3873 33.188H25.8846C24.4427 33.188 23.0172 32.9591 21.6472 32.5076L21.3847 33.3056C22.8387 33.7848 24.3532 34.028 25.8841 34.028H26.3869C29.568 34.028 32.7024 32.9524 35.2136 30.9994C35.3157 30.92 35.3757 30.7978 35.3757 30.668V25.376L38.9335 23.4785C39.0705 23.4054 39.1557 23.263 39.1557 23.108C39.1557 22.953 39.0705 22.8107 38.9335 22.7376ZM20.2557 35.0284L20.0235 35.1444C19.6476 35.3321 19.1835 35.3321 18.8076 35.1444L18.5757 35.0284V34.096C18.5757 33.4648 18.6526 32.8394 18.8042 32.2287C18.994 32.3035 19.1994 32.348 19.4157 32.348C19.632 32.348 19.8374 32.3035 20.0272 32.2287C20.1789 32.8394 20.2557 33.4648 20.2557 34.096V35.0284ZM20.2557 30.668C20.2557 31.1313 19.879 31.508 19.4157 31.508C18.9525 31.508 18.5757 31.1313 18.5757 30.668C18.5757 30.2047 18.9525 29.828 19.4157 29.828C19.879 29.828 20.2557 30.2047 20.2557 30.668ZM26.1357 29.3517L20.1247 26.1459L25.3281 23.3709C25.567 23.4684 25.8392 23.528 26.1357 23.528C27.0778 23.528 27.8157 22.9745 27.8157 22.268C27.8157 21.5616 27.0778 21.008 26.1357 21.008C25.1937 21.008 24.4557 21.5616 24.4557 22.268C24.4557 22.46 24.5141 22.6389 24.6124 22.8006L19.2322 25.67L14.4282 23.108L26.1357 16.8639L37.8432 23.108L26.1357 29.3517ZM25.2957 22.268C25.2957 22.0967 25.6229 21.848 26.1357 21.848C26.6485 21.848 26.9757 22.0967 26.9757 22.268C26.9757 22.4394 26.6485 22.688 26.1357 22.688C25.6229 22.688 25.2957 22.4394 25.2957 22.268Z" fill="white"/>
</g>
<defs>
<clipPath id="clip0_233_3023">
<rect width="26.88" height="26.88" fill="white" transform="translate(12.6958 12.608)"/>
</clipPath>
</defs>
</svg>
