<svg width="248" height="236" viewBox="0 0 248 236" fill="none" xmlns="http://www.w3.org/2000/svg">
<g filter="url(#filter0_d_0_1)">
<line x1="179.666" y1="77.372" x2="130.666" y2="33.372" stroke="white"/>
</g>
<g filter="url(#filter1_d_0_1)">
<circle cx="178.5" cy="78.5" r="9.5" fill="white"/>
<circle cx="178.5" cy="78.5" r="8.70833" stroke="#0074C9" stroke-width="1.58333"/>
</g>
<g filter="url(#filter2_d_0_1)">
<rect x="24" y="18" width="131.75" height="31" rx="15.5" fill="white"/>
</g>
<g clip-path="url(#clip0_0_1)">
<path d="M44.8844 31.7898C44.6316 31.7898 44.3845 31.8647 44.1743 32.0052C43.9641 32.1456 43.8003 32.3452 43.7036 32.5788C43.6068 32.8123 43.5815 33.0693 43.6309 33.3173C43.6802 33.5652 43.8019 33.7929 43.9807 33.9717C44.1594 34.1504 44.3871 34.2722 44.6351 34.3215C44.883 34.3708 45.14 34.3455 45.3736 34.2488C45.6071 34.152 45.8067 33.9882 45.9472 33.778C46.0876 33.5678 46.1626 33.3207 46.1626 33.0679C46.1626 32.7289 46.0279 32.4038 45.7882 32.1641C45.5485 31.9244 45.2234 31.7898 44.8844 31.7898ZM44.8844 33.707C44.758 33.707 44.6345 33.6695 44.5294 33.5993C44.4243 33.5291 44.3424 33.4293 44.294 33.3125C44.2456 33.1957 44.233 33.0672 44.2576 32.9432C44.2823 32.8193 44.3432 32.7054 44.4325 32.616C44.5219 32.5266 44.6358 32.4658 44.7598 32.4411C44.8837 32.4165 45.0122 32.4291 45.129 32.4775C45.2458 32.5259 45.3456 32.6078 45.4158 32.7129C45.486 32.818 45.5235 32.9415 45.5235 33.0679C45.5235 33.2374 45.4562 33.4 45.3363 33.5198C45.2165 33.6397 45.0539 33.707 44.8844 33.707Z" fill="#0074C9"/>
<path d="M44.8844 37.5415C44.6153 37.5429 44.3498 37.4798 44.1102 37.3575C43.8705 37.2352 43.6636 37.0572 43.5069 36.8385C42.2891 35.1587 41.6714 33.8959 41.6714 33.0849C41.6714 32.2328 42.01 31.4156 42.6125 30.8131C43.215 30.2105 44.0323 29.872 44.8844 29.872C45.7365 29.872 46.5537 30.2105 47.1563 30.8131C47.7588 31.4156 48.0973 32.2328 48.0973 33.0849C48.0973 33.8959 47.4796 35.1587 46.2619 36.8385C46.1051 37.0572 45.8983 37.2352 45.6586 37.3575C45.4189 37.4798 45.1534 37.5429 44.8844 37.5415V37.5415ZM44.8844 30.5696C44.2173 30.5703 43.5778 30.8356 43.1061 31.3073C42.6344 31.779 42.3691 32.4185 42.3684 33.0856C42.3684 33.7278 42.9732 34.9156 44.0712 36.4298C44.1644 36.5582 44.2866 36.6627 44.428 36.7348C44.5693 36.8068 44.7257 36.8444 44.8844 36.8444C45.043 36.8444 45.1994 36.8068 45.3408 36.7348C45.4821 36.6627 45.6044 36.5582 45.6976 36.4298C46.7955 34.9156 47.4004 33.7278 47.4004 33.0856C47.3996 32.4185 47.1343 31.779 46.6626 31.3073C46.191 30.8356 45.5514 30.5703 44.8844 30.5696V30.5696Z" fill="#0074C9"/>
</g>
<path d="M55.1975 32.0851L53.3151 36.3009C53.1624 36.654 52.9858 36.9046 52.7854 37.0525C52.585 37.2004 52.344 37.2744 52.0625 37.2744C51.8812 37.2744 51.7118 37.2457 51.5543 37.1885C51.3968 37.1312 51.2608 37.0453 51.1463 36.9308L51.3825 36.5515C51.5734 36.7423 51.8024 36.8378 52.0696 36.8378C52.2414 36.8378 52.387 36.79 52.5063 36.6946C52.6303 36.5992 52.7448 36.4369 52.8498 36.2079L53.0144 35.8429L51.3324 32.0851H51.8621L53.2793 35.2846L54.6965 32.0851H55.1975ZM58.8993 32.0851V35.85H58.3911V32.536H56.5874L56.5373 33.4665C56.4991 34.2491 56.4084 34.8503 56.2653 35.2702C56.1221 35.6902 55.8668 35.9001 55.4994 35.9001C55.3992 35.9001 55.2775 35.881 55.1344 35.8429L55.1702 35.4062C55.2561 35.4253 55.3157 35.4349 55.3491 35.4349C55.5447 35.4349 55.6927 35.3442 55.7929 35.1629C55.8931 34.9816 55.9599 34.7573 55.9933 34.4901C56.0267 34.2229 56.0553 33.8697 56.0792 33.4307L56.1436 32.0851H58.8993ZM60.3797 35.8858C60.2747 35.8858 60.1841 35.8476 60.1077 35.7713C60.0362 35.6949 60.0004 35.6019 60.0004 35.4921C60.0004 35.3824 60.0362 35.2917 60.1077 35.2201C60.1841 35.1438 60.2747 35.1056 60.3797 35.1056C60.4847 35.1056 60.5754 35.1438 60.6517 35.2201C60.7281 35.2917 60.7662 35.3824 60.7662 35.4921C60.7662 35.6019 60.7281 35.6949 60.6517 35.7713C60.5754 35.8476 60.4847 35.8858 60.3797 35.8858ZM66.0459 35.893C65.5496 35.893 65.1011 35.7832 64.7003 35.5637C64.3042 35.3442 63.9917 35.0412 63.7626 34.6547C63.5384 34.2634 63.4262 33.8268 63.4262 33.3449C63.4262 32.8629 63.5384 32.4287 63.7626 32.0422C63.9917 31.6509 64.3066 31.3455 64.7074 31.126C65.1083 30.9065 65.5568 30.7968 66.0531 30.7968C66.4253 30.7968 66.7688 30.8588 67.0838 30.9829C67.3987 31.1069 67.6659 31.2882 67.8854 31.5268L67.549 31.8632C67.1577 31.4672 66.6638 31.2692 66.0674 31.2692C65.6713 31.2692 65.3111 31.3598 64.9866 31.5411C64.6621 31.7225 64.4068 31.9706 64.2207 32.2855C64.0394 32.6005 63.9487 32.9536 63.9487 33.3449C63.9487 33.7361 64.0394 34.0892 64.2207 34.4042C64.4068 34.7191 64.6621 34.9672 64.9866 35.1486C65.3111 35.3299 65.6713 35.4206 66.0674 35.4206C66.6686 35.4206 67.1625 35.2201 67.549 34.8193L67.8854 35.1557C67.6659 35.3943 67.3963 35.578 67.0766 35.7069C66.7617 35.8309 66.4181 35.893 66.0459 35.893ZM71.401 32.536H69.9766V35.85H69.4685V32.536H68.0441V32.0851H71.401V32.536ZM73.4313 32.0565C73.9228 32.0565 74.2998 32.1806 74.5622 32.4287C74.8246 32.672 74.9559 33.0347 74.9559 33.5166V35.85H74.4692V35.2631C74.3546 35.4587 74.1852 35.6114 73.961 35.7212C73.7415 35.8309 73.479 35.8858 73.1736 35.8858C72.7537 35.8858 72.4197 35.7856 72.1716 35.5852C71.9234 35.3848 71.7994 35.1199 71.7994 34.7907C71.7994 34.471 71.9139 34.2133 72.1429 34.0177C72.3768 33.822 72.7466 33.7242 73.2524 33.7242H74.4477V33.4952C74.4477 33.1707 74.357 32.9249 74.1757 32.7579C73.9944 32.5862 73.7295 32.5003 73.3812 32.5003C73.1426 32.5003 72.9136 32.5408 72.6941 32.6219C72.4746 32.6983 72.2861 32.8057 72.1286 32.944L71.8996 32.5647C72.0904 32.4024 72.3195 32.2784 72.5867 32.1925C72.8539 32.1018 73.1355 32.0565 73.4313 32.0565ZM73.2524 35.485C73.5387 35.485 73.7844 35.4206 73.9896 35.2917C74.1948 35.1581 74.3475 34.9672 74.4477 34.7191V34.1036H73.2667C72.6225 34.1036 72.3004 34.3278 72.3004 34.7764C72.3004 34.9959 72.3839 35.17 72.5509 35.2989C72.7179 35.4229 72.9517 35.485 73.2524 35.485ZM76.3087 32.0851H76.8169V33.7528H79.1861V32.0851H79.6943V35.85H79.1861V34.1895H76.8169V35.85H76.3087V32.0851ZM81.1387 32.0851H81.6469V35.077L84.1592 32.0851H84.6101V35.85H84.1019V32.8581L81.5968 35.85H81.1387V32.0851ZM87.6412 35.8858C87.269 35.8858 86.935 35.8047 86.6391 35.6424C86.3481 35.4802 86.119 35.2535 85.952 34.9625C85.785 34.6666 85.7015 34.335 85.7015 33.9676C85.7015 33.6001 85.785 33.2709 85.952 32.9798C86.119 32.6887 86.3481 32.4621 86.6391 32.2998C86.935 32.1376 87.269 32.0565 87.6412 32.0565C87.9657 32.0565 88.2544 32.1209 88.5073 32.2497C88.7649 32.3738 88.9677 32.5575 89.1157 32.8009L88.7363 33.0586C88.6122 32.8725 88.4548 32.7341 88.2639 32.6434C88.073 32.548 87.8655 32.5003 87.6412 32.5003C87.3692 32.5003 87.1235 32.5623 86.904 32.6864C86.6892 32.8057 86.5198 32.9774 86.3958 33.2017C86.2765 33.426 86.2168 33.6813 86.2168 33.9676C86.2168 34.2586 86.2765 34.5163 86.3958 34.7406C86.5198 34.9601 86.6892 35.1319 86.904 35.2559C87.1235 35.3752 87.3692 35.4349 87.6412 35.4349C87.8655 35.4349 88.073 35.3895 88.2639 35.2989C88.4548 35.2082 88.6122 35.0698 88.7363 34.8837L89.1157 35.1414C88.9677 35.3848 88.7649 35.5709 88.5073 35.6997C88.2496 35.8238 87.9609 35.8858 87.6412 35.8858ZM93.0516 32.0851V35.85H92.5434V32.536H90.7397L90.6896 33.4665C90.6514 34.2491 90.5608 34.8503 90.4176 35.2702C90.2745 35.6902 90.0192 35.9001 89.6517 35.9001C89.5515 35.9001 89.4299 35.881 89.2867 35.8429L89.3225 35.4062C89.4084 35.4253 89.468 35.4349 89.5014 35.4349C89.6971 35.4349 89.845 35.3442 89.9452 35.1629C90.0454 34.9816 90.1122 34.7573 90.1456 34.4901C90.179 34.2229 90.2077 33.8697 90.2315 33.4307L90.2959 32.0851H93.0516ZM95.7918 32.0565C96.2833 32.0565 96.6602 32.1806 96.9227 32.4287C97.1851 32.672 97.3164 33.0347 97.3164 33.5166V35.85H96.8296V35.2631C96.7151 35.4587 96.5457 35.6114 96.3214 35.7212C96.1019 35.8309 95.8395 35.8858 95.5341 35.8858C95.1142 35.8858 94.7802 35.7856 94.5321 35.5852C94.2839 35.3848 94.1599 35.1199 94.1599 34.7907C94.1599 34.471 94.2744 34.2133 94.5034 34.0177C94.7372 33.822 95.107 33.7242 95.6128 33.7242H96.8082V33.4952C96.8082 33.1707 96.7175 32.9249 96.5362 32.7579C96.3549 32.5862 96.09 32.5003 95.7417 32.5003C95.5031 32.5003 95.2741 32.5408 95.0546 32.6219C94.8351 32.6983 94.6466 32.8057 94.4891 32.944L94.2601 32.5647C94.4509 32.4024 94.68 32.2784 94.9472 32.1925C95.2144 32.1018 95.4959 32.0565 95.7918 32.0565ZM95.6128 35.485C95.8992 35.485 96.1449 35.4206 96.3501 35.2917C96.5553 35.1581 96.708 34.9672 96.8082 34.7191V34.1036H95.6272C94.983 34.1036 94.6609 34.3278 94.6609 34.7764C94.6609 34.9959 94.7444 35.17 94.9114 35.2989C95.0784 35.4229 95.3122 35.485 95.6128 35.485ZM101.067 33.9031C101.578 34.0224 101.833 34.3302 101.833 34.8265C101.833 35.1557 101.711 35.4086 101.468 35.5852C101.224 35.7617 100.862 35.85 100.38 35.85H98.6692V32.0851H100.33C100.759 32.0851 101.096 32.1686 101.339 32.3356C101.582 32.5026 101.704 32.7412 101.704 33.0514C101.704 33.2566 101.647 33.4331 101.532 33.5811C101.422 33.7242 101.267 33.8316 101.067 33.9031ZM99.1631 33.76H100.294C100.585 33.76 100.807 33.7051 100.96 33.5954C101.117 33.4856 101.196 33.3258 101.196 33.1158C101.196 32.9059 101.117 32.7484 100.96 32.6434C100.807 32.5384 100.585 32.4859 100.294 32.4859H99.1631V33.76ZM100.358 35.4492C100.683 35.4492 100.926 35.3967 101.088 35.2917C101.251 35.1867 101.332 35.0221 101.332 34.7978C101.332 34.5736 101.258 34.409 101.11 34.304C100.962 34.1942 100.728 34.1393 100.408 34.1393H99.1631V35.4492H100.358ZM104.599 35.8858C104.226 35.8858 103.892 35.8047 103.596 35.6424C103.305 35.4802 103.076 35.2535 102.909 34.9625C102.742 34.6666 102.659 34.335 102.659 33.9676C102.659 33.6001 102.742 33.2709 102.909 32.9798C103.076 32.6887 103.305 32.4621 103.596 32.2998C103.892 32.1376 104.226 32.0565 104.599 32.0565C104.923 32.0565 105.212 32.1209 105.465 32.2497C105.722 32.3738 105.925 32.5575 106.073 32.8009L105.694 33.0586C105.57 32.8725 105.412 32.7341 105.221 32.6434C105.03 32.548 104.823 32.5003 104.599 32.5003C104.327 32.5003 104.081 32.5623 103.861 32.6864C103.647 32.8057 103.477 32.9774 103.353 33.2017C103.234 33.426 103.174 33.6813 103.174 33.9676C103.174 34.2586 103.234 34.5163 103.353 34.7406C103.477 34.9601 103.647 35.1319 103.861 35.2559C104.081 35.3752 104.327 35.4349 104.599 35.4349C104.823 35.4349 105.03 35.3895 105.221 35.2989C105.412 35.2082 105.57 35.0698 105.694 34.8837L106.073 35.1414C105.925 35.3848 105.722 35.5709 105.465 35.6997C105.207 35.8238 104.918 35.8858 104.599 35.8858ZM108.424 34.1751H107.565V35.85H107.057V32.0851H107.565V33.7385H108.431L109.755 32.0851H110.307L108.825 33.9103L110.414 35.85H109.813L108.424 34.1751ZM112.636 35.8858C112.274 35.8858 111.947 35.8047 111.656 35.6424C111.365 35.4754 111.136 35.2464 110.969 34.9553C110.802 34.6642 110.718 34.335 110.718 33.9676C110.718 33.6001 110.802 33.2709 110.969 32.9798C111.136 32.6887 111.365 32.4621 111.656 32.2998C111.947 32.1376 112.274 32.0565 112.636 32.0565C112.999 32.0565 113.326 32.1376 113.617 32.2998C113.908 32.4621 114.135 32.6887 114.297 32.9798C114.464 33.2709 114.547 33.6001 114.547 33.9676C114.547 34.335 114.464 34.6642 114.297 34.9553C114.135 35.2464 113.908 35.4754 113.617 35.6424C113.326 35.8047 112.999 35.8858 112.636 35.8858ZM112.636 35.4349C112.904 35.4349 113.142 35.3752 113.352 35.2559C113.567 35.1319 113.734 34.9577 113.853 34.7334C113.972 34.5092 114.032 34.2539 114.032 33.9676C114.032 33.6813 113.972 33.426 113.853 33.2017C113.734 32.9774 113.567 32.8057 113.352 32.6864C113.142 32.5623 112.904 32.5003 112.636 32.5003C112.369 32.5003 112.128 32.5623 111.913 32.6864C111.703 32.8057 111.536 32.9774 111.412 33.2017C111.293 33.426 111.233 33.6813 111.233 33.9676C111.233 34.2539 111.293 34.5092 111.412 34.7334C111.536 34.9577 111.703 35.1319 111.913 35.2559C112.128 35.3752 112.369 35.4349 112.636 35.4349ZM118.296 32.536H116.142V35.85H115.634V32.0851H118.296V32.536ZM120.409 35.8858C120.046 35.8858 119.72 35.8047 119.428 35.6424C119.137 35.4754 118.908 35.2464 118.741 34.9553C118.574 34.6642 118.491 34.335 118.491 33.9676C118.491 33.6001 118.574 33.2709 118.741 32.9798C118.908 32.6887 119.137 32.4621 119.428 32.2998C119.72 32.1376 120.046 32.0565 120.409 32.0565C120.772 32.0565 121.099 32.1376 121.39 32.2998C121.681 32.4621 121.907 32.6887 122.07 32.9798C122.237 33.2709 122.32 33.6001 122.32 33.9676C122.32 34.335 122.237 34.6642 122.07 34.9553C121.907 35.2464 121.681 35.4754 121.39 35.6424C121.099 35.8047 120.772 35.8858 120.409 35.8858ZM120.409 35.4349C120.676 35.4349 120.915 35.3752 121.125 35.2559C121.34 35.1319 121.507 34.9577 121.626 34.7334C121.745 34.5092 121.805 34.2539 121.805 33.9676C121.805 33.6813 121.745 33.426 121.626 33.2017C121.507 32.9774 121.34 32.8057 121.125 32.6864C120.915 32.5623 120.676 32.5003 120.409 32.5003C120.142 32.5003 119.901 32.5623 119.686 32.6864C119.476 32.8057 119.309 32.9774 119.185 33.2017C119.066 33.426 119.006 33.6813 119.006 33.9676C119.006 34.2539 119.066 34.5092 119.185 34.7334C119.309 34.9577 119.476 35.1319 119.686 35.2559C119.901 35.3752 120.142 35.4349 120.409 35.4349ZM126.317 30.8397V35.85H125.802V31.2978H124.621V30.8397H126.317ZM129.591 32.851C129.92 32.851 130.211 32.913 130.464 33.0371C130.722 33.1611 130.922 33.3377 131.065 33.5667C131.208 33.791 131.28 34.0535 131.28 34.3541C131.28 34.6595 131.206 34.9291 131.058 35.1629C130.91 35.3967 130.705 35.578 130.442 35.7069C130.185 35.8309 129.894 35.893 129.569 35.893C128.906 35.893 128.398 35.6758 128.045 35.2416C127.692 34.8026 127.515 34.1847 127.515 33.3878C127.515 32.8295 127.61 32.3571 127.801 31.9706C127.992 31.5841 128.259 31.293 128.603 31.0974C128.947 30.897 129.347 30.7968 129.805 30.7968C130.302 30.7968 130.698 30.8874 130.994 31.0687L130.786 31.4839C130.547 31.3264 130.223 31.2477 129.813 31.2477C129.259 31.2477 128.825 31.4242 128.51 31.7773C128.195 32.1257 128.038 32.6339 128.038 33.3019C128.038 33.4212 128.045 33.5572 128.059 33.7099C128.183 33.4379 128.381 33.2279 128.653 33.08C128.925 32.9273 129.238 32.851 129.591 32.851ZM129.548 35.4563C129.91 35.4563 130.204 35.3585 130.428 35.1629C130.657 34.9625 130.772 34.6976 130.772 34.3684C130.772 34.0391 130.657 33.7767 130.428 33.5811C130.204 33.3854 129.898 33.2876 129.512 33.2876C129.259 33.2876 129.035 33.3353 128.839 33.4307C128.648 33.5262 128.498 33.6574 128.388 33.8244C128.278 33.9914 128.224 34.1775 128.224 34.3827C128.224 34.5736 128.274 34.7501 128.374 34.9124C128.479 35.0746 128.632 35.2058 128.832 35.306C129.032 35.4062 129.271 35.4563 129.548 35.4563ZM133.757 29.8233H134.223L131.861 36.5658H131.395L133.757 29.8233ZM135.949 30.8397V35.85H135.434V31.2978H134.253V30.8397H135.949Z" fill="black"/>
<g filter="url(#filter3_d_0_1)">
<line x1="119.383" y1="177.415" x2="64.7796" y2="214.232" stroke="white"/>
</g>
<g filter="url(#filter4_d_0_1)">
<circle cx="61" cy="213.5" r="9.5" fill="white"/>
<circle cx="61" cy="213.5" r="8.70833" stroke="#0074C9" stroke-width="1.58333"/>
</g>
<g filter="url(#filter5_d_0_1)">
<rect x="92.5" y="169" width="131.75" height="31" rx="15.5" fill="white"/>
</g>
<g clip-path="url(#clip1_0_1)">
<path d="M113.384 182.79C113.132 182.79 112.885 182.865 112.674 183.005C112.464 183.146 112.3 183.345 112.204 183.579C112.107 183.812 112.082 184.069 112.131 184.317C112.18 184.565 112.302 184.793 112.481 184.972C112.659 185.15 112.887 185.272 113.135 185.321C113.383 185.371 113.64 185.345 113.874 185.249C114.107 185.152 114.307 184.988 114.447 184.778C114.588 184.568 114.663 184.321 114.663 184.068C114.663 183.729 114.528 183.404 114.288 183.164C114.049 182.924 113.723 182.79 113.384 182.79ZM113.384 184.707C113.258 184.707 113.134 184.669 113.029 184.599C112.924 184.529 112.842 184.429 112.794 184.312C112.746 184.196 112.733 184.067 112.758 183.943C112.782 183.819 112.843 183.705 112.933 183.616C113.022 183.527 113.136 183.466 113.26 183.441C113.384 183.416 113.512 183.429 113.629 183.477C113.746 183.526 113.846 183.608 113.916 183.713C113.986 183.818 114.024 183.942 114.024 184.068C114.024 184.237 113.956 184.4 113.836 184.52C113.716 184.64 113.554 184.707 113.384 184.707Z" fill="#0074C9"/>
<path d="M113.384 188.541C113.115 188.543 112.85 188.48 112.61 188.357C112.37 188.235 112.164 188.057 112.007 187.839C110.789 186.159 110.171 184.896 110.171 184.085C110.171 183.233 110.51 182.416 111.112 181.813C111.715 181.211 112.532 180.872 113.384 180.872C114.236 180.872 115.054 181.211 115.656 181.813C116.259 182.416 116.597 183.233 116.597 184.085C116.597 184.896 115.98 186.159 114.762 187.839C114.605 188.057 114.398 188.235 114.159 188.357C113.919 188.48 113.653 188.543 113.384 188.541V188.541ZM113.384 181.57C112.717 181.57 112.078 181.836 111.606 182.307C111.134 182.779 110.869 183.419 110.868 184.086C110.868 184.728 111.473 185.916 112.571 187.43C112.664 187.558 112.787 187.663 112.928 187.735C113.069 187.807 113.226 187.844 113.384 187.844C113.543 187.844 113.699 187.807 113.841 187.735C113.982 187.663 114.104 187.558 114.198 187.43C115.296 185.916 115.9 184.728 115.9 184.086C115.9 183.419 115.634 182.779 115.163 182.307C114.691 181.836 114.051 181.57 113.384 181.57V181.57Z" fill="#0074C9"/>
</g>
<path d="M123.698 183.085L121.815 187.301C121.662 187.654 121.486 187.905 121.285 188.052C121.085 188.2 120.844 188.274 120.562 188.274C120.381 188.274 120.212 188.246 120.054 188.188C119.897 188.131 119.761 188.045 119.646 187.931L119.883 187.551C120.073 187.742 120.302 187.838 120.57 187.838C120.741 187.838 120.887 187.79 121.006 187.695C121.13 187.599 121.245 187.437 121.35 187.208L121.514 186.843L119.832 183.085H120.362L121.779 186.285L123.196 183.085H123.698ZM127.399 183.085V186.85H126.891V183.536H125.087L125.037 184.467C124.999 185.249 124.908 185.85 124.765 186.27C124.622 186.69 124.367 186.9 123.999 186.9C123.899 186.9 123.778 186.881 123.634 186.843L123.67 186.406C123.756 186.425 123.816 186.435 123.849 186.435C124.045 186.435 124.193 186.344 124.293 186.163C124.393 185.982 124.46 185.757 124.493 185.49C124.527 185.223 124.555 184.87 124.579 184.431L124.644 183.085H127.399ZM128.88 186.886C128.775 186.886 128.684 186.848 128.608 186.771C128.536 186.695 128.5 186.602 128.5 186.492C128.5 186.382 128.536 186.292 128.608 186.22C128.684 186.144 128.775 186.106 128.88 186.106C128.985 186.106 129.075 186.144 129.152 186.22C129.228 186.292 129.266 186.382 129.266 186.492C129.266 186.602 129.228 186.695 129.152 186.771C129.075 186.848 128.985 186.886 128.88 186.886ZM134.546 186.893C134.05 186.893 133.601 186.783 133.2 186.564C132.804 186.344 132.492 186.041 132.263 185.655C132.038 185.263 131.926 184.827 131.926 184.345C131.926 183.863 132.038 183.429 132.263 183.042C132.492 182.651 132.807 182.346 133.207 182.126C133.608 181.907 134.057 181.797 134.553 181.797C134.925 181.797 135.269 181.859 135.584 181.983C135.899 182.107 136.166 182.288 136.385 182.527L136.049 182.863C135.658 182.467 135.164 182.269 134.567 182.269C134.171 182.269 133.811 182.36 133.487 182.541C133.162 182.722 132.907 182.971 132.721 183.286C132.539 183.6 132.449 183.954 132.449 184.345C132.449 184.736 132.539 185.089 132.721 185.404C132.907 185.719 133.162 185.967 133.487 186.149C133.811 186.33 134.171 186.421 134.567 186.421C135.169 186.421 135.662 186.22 136.049 185.819L136.385 186.156C136.166 186.394 135.896 186.578 135.577 186.707C135.262 186.831 134.918 186.893 134.546 186.893ZM139.901 183.536H138.477V186.85H137.968V183.536H136.544V183.085H139.901V183.536ZM141.931 183.056C142.423 183.056 142.8 183.181 143.062 183.429C143.325 183.672 143.456 184.035 143.456 184.517V186.85H142.969V186.263C142.855 186.459 142.685 186.611 142.461 186.721C142.241 186.831 141.979 186.886 141.674 186.886C141.254 186.886 140.92 186.786 140.672 186.585C140.423 186.385 140.299 186.12 140.299 185.791C140.299 185.471 140.414 185.213 140.643 185.018C140.877 184.822 141.247 184.724 141.752 184.724H142.948V184.495C142.948 184.171 142.857 183.925 142.676 183.758C142.494 183.586 142.23 183.5 141.881 183.5C141.643 183.5 141.414 183.541 141.194 183.622C140.975 183.698 140.786 183.806 140.629 183.944L140.4 183.565C140.59 183.402 140.819 183.278 141.087 183.192C141.354 183.102 141.635 183.056 141.931 183.056ZM141.752 186.485C142.039 186.485 142.284 186.421 142.49 186.292C142.695 186.158 142.847 185.967 142.948 185.719V185.104H141.767C141.122 185.104 140.8 185.328 140.8 185.776C140.8 185.996 140.884 186.17 141.051 186.299C141.218 186.423 141.452 186.485 141.752 186.485ZM144.809 183.085H145.317V184.753H147.686V183.085H148.194V186.85H147.686V185.189H145.317V186.85H144.809V183.085ZM149.639 183.085H150.147V186.077L152.659 183.085H153.11V186.85H152.602V183.858L150.097 186.85H149.639V183.085ZM156.141 186.886C155.769 186.886 155.435 186.805 155.139 186.642C154.848 186.48 154.619 186.254 154.452 185.962C154.285 185.667 154.201 185.335 154.201 184.968C154.201 184.6 154.285 184.271 154.452 183.98C154.619 183.689 154.848 183.462 155.139 183.3C155.435 183.138 155.769 183.056 156.141 183.056C156.466 183.056 156.754 183.121 157.007 183.25C157.265 183.374 157.468 183.558 157.616 183.801L157.236 184.059C157.112 183.872 156.955 183.734 156.764 183.643C156.573 183.548 156.365 183.5 156.141 183.5C155.869 183.5 155.623 183.562 155.404 183.686C155.189 183.806 155.02 183.977 154.896 184.202C154.776 184.426 154.717 184.681 154.717 184.968C154.717 185.259 154.776 185.516 154.896 185.741C155.02 185.96 155.189 186.132 155.404 186.256C155.623 186.375 155.869 186.435 156.141 186.435C156.365 186.435 156.573 186.39 156.764 186.299C156.955 186.208 157.112 186.07 157.236 185.884L157.616 186.141C157.468 186.385 157.265 186.571 157.007 186.7C156.75 186.824 156.461 186.886 156.141 186.886ZM161.552 183.085V186.85H161.043V183.536H159.24L159.19 184.467C159.151 185.249 159.061 185.85 158.918 186.27C158.774 186.69 158.519 186.9 158.152 186.9C158.052 186.9 157.93 186.881 157.787 186.843L157.822 186.406C157.908 186.425 157.968 186.435 158.001 186.435C158.197 186.435 158.345 186.344 158.445 186.163C158.545 185.982 158.612 185.757 158.646 185.49C158.679 185.223 158.708 184.87 158.732 184.431L158.796 183.085H161.552ZM164.292 183.056C164.783 183.056 165.16 183.181 165.423 183.429C165.685 183.672 165.816 184.035 165.816 184.517V186.85H165.33V186.263C165.215 186.459 165.046 186.611 164.821 186.721C164.602 186.831 164.34 186.886 164.034 186.886C163.614 186.886 163.28 186.786 163.032 186.585C162.784 186.385 162.66 186.12 162.66 185.791C162.66 185.471 162.774 185.213 163.003 185.018C163.237 184.822 163.607 184.724 164.113 184.724H165.308V184.495C165.308 184.171 165.218 183.925 165.036 183.758C164.855 183.586 164.59 183.5 164.242 183.5C164.003 183.5 163.774 183.541 163.555 183.622C163.335 183.698 163.147 183.806 162.989 183.944L162.76 183.565C162.951 183.402 163.18 183.278 163.447 183.192C163.714 183.102 163.996 183.056 164.292 183.056ZM164.113 186.485C164.399 186.485 164.645 186.421 164.85 186.292C165.055 186.158 165.208 185.967 165.308 185.719V185.104H164.127C163.483 185.104 163.161 185.328 163.161 185.776C163.161 185.996 163.244 186.17 163.411 186.299C163.578 186.423 163.812 186.485 164.113 186.485ZM169.567 184.903C170.078 185.022 170.333 185.33 170.333 185.826C170.333 186.156 170.211 186.409 169.968 186.585C169.724 186.762 169.362 186.85 168.88 186.85H167.169V183.085H168.83C169.259 183.085 169.596 183.169 169.839 183.336C170.082 183.503 170.204 183.741 170.204 184.051C170.204 184.257 170.147 184.433 170.032 184.581C169.922 184.724 169.767 184.832 169.567 184.903ZM167.663 184.76H168.794C169.085 184.76 169.307 184.705 169.46 184.595C169.617 184.486 169.696 184.326 169.696 184.116C169.696 183.906 169.617 183.748 169.46 183.643C169.307 183.538 169.085 183.486 168.794 183.486H167.663V184.76ZM168.858 186.449C169.183 186.449 169.426 186.397 169.588 186.292C169.751 186.187 169.832 186.022 169.832 185.798C169.832 185.574 169.758 185.409 169.61 185.304C169.462 185.194 169.228 185.139 168.908 185.139H167.663V186.449H168.858ZM173.099 186.886C172.726 186.886 172.392 186.805 172.096 186.642C171.805 186.48 171.576 186.254 171.409 185.962C171.242 185.667 171.159 185.335 171.159 184.968C171.159 184.6 171.242 184.271 171.409 183.98C171.576 183.689 171.805 183.462 172.096 183.3C172.392 183.138 172.726 183.056 173.099 183.056C173.423 183.056 173.712 183.121 173.965 183.25C174.222 183.374 174.425 183.558 174.573 183.801L174.194 184.059C174.07 183.872 173.912 183.734 173.721 183.643C173.53 183.548 173.323 183.5 173.099 183.5C172.827 183.5 172.581 183.562 172.361 183.686C172.147 183.806 171.977 183.977 171.853 184.202C171.734 184.426 171.674 184.681 171.674 184.968C171.674 185.259 171.734 185.516 171.853 185.741C171.977 185.96 172.147 186.132 172.361 186.256C172.581 186.375 172.827 186.435 173.099 186.435C173.323 186.435 173.53 186.39 173.721 186.299C173.912 186.208 174.07 186.07 174.194 185.884L174.573 186.141C174.425 186.385 174.222 186.571 173.965 186.7C173.707 186.824 173.418 186.886 173.099 186.886ZM176.924 185.175H176.065V186.85H175.557V183.085H176.065V184.739H176.931L178.255 183.085H178.807L177.325 184.91L178.914 186.85H178.313L176.924 185.175ZM181.136 186.886C180.774 186.886 180.447 186.805 180.156 186.642C179.865 186.475 179.636 186.246 179.469 185.955C179.302 185.664 179.218 185.335 179.218 184.968C179.218 184.6 179.302 184.271 179.469 183.98C179.636 183.689 179.865 183.462 180.156 183.3C180.447 183.138 180.774 183.056 181.136 183.056C181.499 183.056 181.826 183.138 182.117 183.3C182.408 183.462 182.635 183.689 182.797 183.98C182.964 184.271 183.047 184.6 183.047 184.968C183.047 185.335 182.964 185.664 182.797 185.955C182.635 186.246 182.408 186.475 182.117 186.642C181.826 186.805 181.499 186.886 181.136 186.886ZM181.136 186.435C181.404 186.435 181.642 186.375 181.852 186.256C182.067 186.132 182.234 185.958 182.353 185.733C182.472 185.509 182.532 185.254 182.532 184.968C182.532 184.681 182.472 184.426 182.353 184.202C182.234 183.977 182.067 183.806 181.852 183.686C181.642 183.562 181.404 183.5 181.136 183.5C180.869 183.5 180.628 183.562 180.413 183.686C180.203 183.806 180.036 183.977 179.912 184.202C179.793 184.426 179.733 184.681 179.733 184.968C179.733 185.254 179.793 185.509 179.912 185.733C180.036 185.958 180.203 186.132 180.413 186.256C180.628 186.375 180.869 186.435 181.136 186.435ZM186.796 183.536H184.642V186.85H184.134V183.085H186.796V183.536ZM188.909 186.886C188.546 186.886 188.22 186.805 187.928 186.642C187.637 186.475 187.408 186.246 187.241 185.955C187.074 185.664 186.991 185.335 186.991 184.968C186.991 184.6 187.074 184.271 187.241 183.98C187.408 183.689 187.637 183.462 187.928 183.3C188.22 183.138 188.546 183.056 188.909 183.056C189.272 183.056 189.599 183.138 189.89 183.3C190.181 183.462 190.407 183.689 190.57 183.98C190.737 184.271 190.82 184.6 190.82 184.968C190.82 185.335 190.737 185.664 190.57 185.955C190.407 186.246 190.181 186.475 189.89 186.642C189.599 186.805 189.272 186.886 188.909 186.886ZM188.909 186.435C189.176 186.435 189.415 186.375 189.625 186.256C189.84 186.132 190.007 185.958 190.126 185.733C190.245 185.509 190.305 185.254 190.305 184.968C190.305 184.681 190.245 184.426 190.126 184.202C190.007 183.977 189.84 183.806 189.625 183.686C189.415 183.562 189.176 183.5 188.909 183.5C188.642 183.5 188.401 183.562 188.186 183.686C187.976 183.806 187.809 183.977 187.685 184.202C187.566 184.426 187.506 184.681 187.506 184.968C187.506 185.254 187.566 185.509 187.685 185.733C187.809 185.958 187.976 186.132 188.186 186.256C188.401 186.375 188.642 186.435 188.909 186.435ZM194.817 181.84V186.85H194.302V182.298H193.121V181.84H194.817ZM198.091 183.851C198.42 183.851 198.711 183.913 198.964 184.037C199.222 184.161 199.422 184.338 199.565 184.567C199.708 184.791 199.78 185.053 199.78 185.354C199.78 185.659 199.706 185.929 199.558 186.163C199.41 186.397 199.205 186.578 198.942 186.707C198.685 186.831 198.394 186.893 198.069 186.893C197.406 186.893 196.898 186.676 196.545 186.242C196.192 185.803 196.015 185.185 196.015 184.388C196.015 183.83 196.11 183.357 196.301 182.971C196.492 182.584 196.759 182.293 197.103 182.097C197.447 181.897 197.847 181.797 198.305 181.797C198.802 181.797 199.198 181.887 199.494 182.069L199.286 182.484C199.047 182.326 198.723 182.248 198.313 182.248C197.759 182.248 197.325 182.424 197.01 182.777C196.695 183.126 196.538 183.634 196.538 184.302C196.538 184.421 196.545 184.557 196.559 184.71C196.683 184.438 196.881 184.228 197.153 184.08C197.425 183.927 197.738 183.851 198.091 183.851ZM198.048 186.456C198.41 186.456 198.704 186.359 198.928 186.163C199.157 185.962 199.272 185.698 199.272 185.368C199.272 185.039 199.157 184.777 198.928 184.581C198.704 184.385 198.398 184.288 198.012 184.288C197.759 184.288 197.535 184.335 197.339 184.431C197.148 184.526 196.998 184.657 196.888 184.824C196.778 184.991 196.724 185.178 196.724 185.383C196.724 185.574 196.774 185.75 196.874 185.912C196.979 186.075 197.132 186.206 197.332 186.306C197.532 186.406 197.771 186.456 198.048 186.456ZM202.257 180.823H202.723L200.361 187.566H199.895L202.257 180.823ZM204.449 181.84V186.85H203.934V182.298H202.753V181.84H204.449Z" fill="black"/>
<defs>
<filter id="filter0_d_0_1" x="126.332" y="33" width="57.6682" height="52.744" filterUnits="userSpaceOnUse" color-interpolation-filters="sRGB">
<feFlood flood-opacity="0" result="BackgroundImageFix"/>
<feColorMatrix in="SourceAlpha" type="matrix" values="0 0 0 0 0 0 0 0 0 0 0 0 0 0 0 0 0 0 127 0" result="hardAlpha"/>
<feOffset dy="4"/>
<feGaussianBlur stdDeviation="2"/>
<feColorMatrix type="matrix" values="0 0 0 0 0 0 0 0 0 0 0 0 0 0 0 0 0 0 0.25 0"/>
<feBlend mode="normal" in2="BackgroundImageFix" result="effect1_dropShadow_0_1"/>
<feBlend mode="normal" in="SourceGraphic" in2="effect1_dropShadow_0_1" result="shape"/>
</filter>
<filter id="filter1_d_0_1" x="162.667" y="69" width="31.6667" height="31.6667" filterUnits="userSpaceOnUse" color-interpolation-filters="sRGB">
<feFlood flood-opacity="0" result="BackgroundImageFix"/>
<feColorMatrix in="SourceAlpha" type="matrix" values="0 0 0 0 0 0 0 0 0 0 0 0 0 0 0 0 0 0 127 0" result="hardAlpha"/>
<feOffset dy="6.33333"/>
<feGaussianBlur stdDeviation="3.16667"/>
<feColorMatrix type="matrix" values="0 0 0 0 0 0 0 0 0 0 0 0 0 0 0 0 0 0 0.25 0"/>
<feBlend mode="normal" in2="BackgroundImageFix" result="effect1_dropShadow_0_1"/>
<feBlend mode="normal" in="SourceGraphic" in2="effect1_dropShadow_0_1" result="shape"/>
</filter>
<filter id="filter2_d_0_1" x="0.75" y="0.95" width="178.25" height="77.5" filterUnits="userSpaceOnUse" color-interpolation-filters="sRGB">
<feFlood flood-opacity="0" result="BackgroundImageFix"/>
<feColorMatrix in="SourceAlpha" type="matrix" values="0 0 0 0 0 0 0 0 0 0 0 0 0 0 0 0 0 0 127 0" result="hardAlpha"/>
<feMorphology radius="3.1" operator="dilate" in="SourceAlpha" result="effect1_dropShadow_0_1"/>
<feOffset dy="6.2"/>
<feGaussianBlur stdDeviation="10.075"/>
<feComposite in2="hardAlpha" operator="out"/>
<feColorMatrix type="matrix" values="0 0 0 0 0 0 0 0 0 0.454902 0 0 0 0 0.788235 0 0 0 0.22 0"/>
<feBlend mode="normal" in2="BackgroundImageFix" result="effect1_dropShadow_0_1"/>
<feBlend mode="normal" in="SourceGraphic" in2="effect1_dropShadow_0_1" result="shape"/>
</filter>
<filter id="filter3_d_0_1" x="60.5001" y="177" width="63.162" height="45.6465" filterUnits="userSpaceOnUse" color-interpolation-filters="sRGB">
<feFlood flood-opacity="0" result="BackgroundImageFix"/>
<feColorMatrix in="SourceAlpha" type="matrix" values="0 0 0 0 0 0 0 0 0 0 0 0 0 0 0 0 0 0 127 0" result="hardAlpha"/>
<feOffset dy="4"/>
<feGaussianBlur stdDeviation="2"/>
<feColorMatrix type="matrix" values="0 0 0 0 0 0 0 0 0 0 0 0 0 0 0 0 0 0 0.25 0"/>
<feBlend mode="normal" in2="BackgroundImageFix" result="effect1_dropShadow_0_1"/>
<feBlend mode="normal" in="SourceGraphic" in2="effect1_dropShadow_0_1" result="shape"/>
</filter>
<filter id="filter4_d_0_1" x="45.1667" y="204" width="31.6667" height="31.6667" filterUnits="userSpaceOnUse" color-interpolation-filters="sRGB">
<feFlood flood-opacity="0" result="BackgroundImageFix"/>
<feColorMatrix in="SourceAlpha" type="matrix" values="0 0 0 0 0 0 0 0 0 0 0 0 0 0 0 0 0 0 127 0" result="hardAlpha"/>
<feOffset dy="6.33333"/>
<feGaussianBlur stdDeviation="3.16667"/>
<feColorMatrix type="matrix" values="0 0 0 0 0 0 0 0 0 0 0 0 0 0 0 0 0 0 0.25 0"/>
<feBlend mode="normal" in2="BackgroundImageFix" result="effect1_dropShadow_0_1"/>
<feBlend mode="normal" in="SourceGraphic" in2="effect1_dropShadow_0_1" result="shape"/>
</filter>
<filter id="filter5_d_0_1" x="69.25" y="151.95" width="178.25" height="77.5" filterUnits="userSpaceOnUse" color-interpolation-filters="sRGB">
<feFlood flood-opacity="0" result="BackgroundImageFix"/>
<feColorMatrix in="SourceAlpha" type="matrix" values="0 0 0 0 0 0 0 0 0 0 0 0 0 0 0 0 0 0 127 0" result="hardAlpha"/>
<feMorphology radius="3.1" operator="dilate" in="SourceAlpha" result="effect1_dropShadow_0_1"/>
<feOffset dy="6.2"/>
<feGaussianBlur stdDeviation="10.075"/>
<feComposite in2="hardAlpha" operator="out"/>
<feColorMatrix type="matrix" values="0 0 0 0 0 0 0 0 0 0.454902 0 0 0 0 0.788235 0 0 0 0.22 0"/>
<feBlend mode="normal" in2="BackgroundImageFix" result="effect1_dropShadow_0_1"/>
<feBlend mode="normal" in="SourceGraphic" in2="effect1_dropShadow_0_1" result="shape"/>
</filter>
<clipPath id="clip0_0_1">
<rect width="7.66885" height="7.66885" fill="white" transform="translate(41.05 29.8726)"/>
</clipPath>
<clipPath id="clip1_0_1">
<rect width="7.66885" height="7.66885" fill="white" transform="translate(109.55 180.873)"/>
</clipPath>
</defs>
</svg>
