<svg width="248" height="236" viewBox="0 0 248 236" fill="none" xmlns="http://www.w3.org/2000/svg">
<g filter="url(#filter0_d_0_1)">
<line x1="179.666" y1="77.372" x2="130.666" y2="33.372" stroke="white"/>
</g>
<g filter="url(#filter1_d_0_1)">
<circle cx="178.5" cy="78.5" r="9.5" fill="white"/>
<circle cx="178.5" cy="78.5" r="8.70833" stroke="#0074C9" stroke-width="1.58333"/>
</g>
<g filter="url(#filter2_d_0_1)">
<rect x="24" y="18" width="131.75" height="31" rx="15.5" fill="white"/>
</g>
<g clip-path="url(#clip0_0_1)">
<path d="M44.8845 31.7898C44.6317 31.7898 44.3846 31.8647 44.1744 32.0052C43.9642 32.1456 43.8004 32.3452 43.7036 32.5788C43.6069 32.8123 43.5816 33.0693 43.6309 33.3173C43.6802 33.5652 43.8019 33.7929 43.9807 33.9717C44.1594 34.1504 44.3872 34.2722 44.6351 34.3215C44.883 34.3708 45.14 34.3455 45.3736 34.2488C45.6071 34.152 45.8068 33.9882 45.9472 33.778C46.0876 33.5678 46.1626 33.3207 46.1626 33.0679C46.1626 32.7289 46.0279 32.4038 45.7882 32.1641C45.5485 31.9244 45.2234 31.7898 44.8845 31.7898ZM44.8845 33.707C44.7581 33.707 44.6345 33.6695 44.5294 33.5993C44.4243 33.5291 44.3424 33.4293 44.294 33.3125C44.2457 33.1957 44.233 33.0672 44.2577 32.9432C44.2823 32.8193 44.3432 32.7054 44.4326 32.616C44.5219 32.5266 44.6358 32.4658 44.7598 32.4411C44.8838 32.4165 45.0123 32.4291 45.129 32.4775C45.2458 32.5259 45.3456 32.6078 45.4158 32.7129C45.4861 32.818 45.5235 32.9415 45.5235 33.0679C45.5235 33.2374 45.4562 33.4 45.3364 33.5198C45.2165 33.6397 45.054 33.707 44.8845 33.707Z" fill="#0074C9"/>
<path d="M44.8844 37.5415C44.6153 37.5429 44.3499 37.4798 44.1102 37.3575C43.8705 37.2352 43.6637 37.0572 43.5069 36.8385C42.2891 35.1587 41.6715 33.8959 41.6715 33.0849C41.6715 32.2328 42.01 31.4156 42.6125 30.8131C43.2151 30.2105 44.0323 29.872 44.8844 29.872C45.7365 29.872 46.5537 30.2105 47.1563 30.8131C47.7588 31.4156 48.0973 32.2328 48.0973 33.0849C48.0973 33.8959 47.4797 35.1587 46.2619 36.8385C46.1052 37.0572 45.8983 37.2352 45.6586 37.3575C45.419 37.4798 45.1535 37.5429 44.8844 37.5415V37.5415ZM44.8844 30.5696C44.2173 30.5703 43.5778 30.8356 43.1062 31.3073C42.6345 31.779 42.3691 32.4185 42.3684 33.0856C42.3684 33.7278 42.9733 34.9156 44.0712 36.4298C44.1644 36.5582 44.2867 36.6627 44.428 36.7348C44.5694 36.8068 44.7258 36.8444 44.8844 36.8444C45.0431 36.8444 45.1994 36.8068 45.3408 36.7348C45.4821 36.6627 45.6044 36.5582 45.6976 36.4298C46.7955 34.9156 47.4004 33.7278 47.4004 33.0856C47.3997 32.4185 47.1343 31.779 46.6627 31.3073C46.191 30.8356 45.5515 30.5703 44.8844 30.5696V30.5696Z" fill="#0074C9"/>
</g>
<path d="M55.9173 33.7024H54.8794V36H54.3641V33.7024H53.3191L51.7874 36H51.1718L52.8896 33.4161L51.3006 30.9897H51.8733L53.3119 33.2372H54.3641V30.9897H54.8794V33.2372H55.9173L57.3631 30.9897H57.9357L56.3468 33.4161L58.0646 36H57.449L55.9173 33.7024ZM60.5649 33.7024H59.4197V36H58.9044V30.9897H59.4197V33.2372H60.5649L62.2613 30.9897H62.8339L60.9729 33.4233L62.9412 36H62.3328L60.5649 33.7024ZM69.0815 31.4478H67.3207V36H66.7982V31.4478H65.0375V30.9897H69.0815V31.4478ZM69.7917 32.2351H70.2999V35.227L72.8122 32.2351H73.2631V36H72.7549V33.0081L70.2498 36H69.7917V32.2351ZM77.0744 36L75.879 34.4253L74.6766 36H74.104L75.5927 34.0675L74.1755 32.2351H74.7481L75.879 33.7096L77.0099 32.2351H77.5682L76.151 34.0675L77.6541 36H77.0744ZM80.8848 34.0531C81.3954 34.1724 81.6507 34.4802 81.6507 34.9765C81.6507 35.3057 81.529 35.5586 81.2856 35.7352C81.0423 35.9117 80.6796 36 80.1977 36H78.487V32.2351H80.1476C80.577 32.2351 80.9135 32.3186 81.1568 32.4856C81.4002 32.6526 81.5218 32.8912 81.5218 33.2014C81.5218 33.4066 81.4646 33.5831 81.3501 33.731C81.2403 33.8742 81.0852 33.9816 80.8848 34.0531ZM78.9809 33.91H80.1118C80.4029 33.91 80.6248 33.8551 80.7775 33.7454C80.9349 33.6356 81.0137 33.4758 81.0137 33.2658C81.0137 33.0558 80.9349 32.8984 80.7775 32.7934C80.6248 32.6884 80.4029 32.6359 80.1118 32.6359H78.9809V33.91ZM80.1762 35.5992C80.5007 35.5992 80.7441 35.5467 80.9063 35.4417C81.0685 35.3367 81.1497 35.1721 81.1497 34.9478C81.1497 34.7236 81.0757 34.5589 80.9278 34.454C80.7798 34.3442 80.546 34.2893 80.2263 34.2893H78.9809V35.5992H80.1762ZM82.8417 32.2351H83.3499V35.227L85.8622 32.2351H86.3131V36H85.8049V33.0081L83.2998 36H82.8417V32.2351ZM87.7695 32.2351H88.2777V33.9028H90.6469V32.2351H91.1551V36H90.6469V34.3394H88.2777V36H87.7695V32.2351ZM94.1742 36.0358C93.802 36.0358 93.468 35.9547 93.1721 35.7924C92.881 35.6302 92.652 35.4035 92.485 35.1125C92.318 34.8166 92.2345 34.485 92.2345 34.1176C92.2345 33.7501 92.318 33.4209 92.485 33.1298C92.652 32.8387 92.881 32.6121 93.1721 32.4498C93.468 32.2876 93.802 32.2065 94.1742 32.2065C94.4987 32.2065 94.7873 32.2709 95.0402 32.3997C95.2979 32.5238 95.5007 32.7075 95.6486 32.9509L95.2693 33.2085C95.1452 33.0224 94.9878 32.8841 94.7969 32.7934C94.606 32.698 94.3984 32.6502 94.1742 32.6502C93.9022 32.6502 93.6564 32.7123 93.4369 32.8363C93.2222 32.9556 93.0528 33.1274 92.9288 33.3517C92.8095 33.576 92.7498 33.8312 92.7498 34.1176C92.7498 34.4086 92.8095 34.6663 92.9288 34.8906C93.0528 35.1101 93.2222 35.2819 93.4369 35.4059C93.6564 35.5252 93.9022 35.5849 94.1742 35.5849C94.3984 35.5849 94.606 35.5395 94.7969 35.4489C94.9878 35.3582 95.1452 35.2198 95.2693 35.0337L95.6486 35.2914C95.5007 35.5348 95.2979 35.7209 95.0402 35.8497C94.7826 35.9738 94.4939 36.0358 94.1742 36.0358ZM97.9997 34.3251H97.1408V36H96.6326V32.2351H97.1408V33.8885H98.0069L99.3311 32.2351H99.8822L98.4006 34.0603L99.9896 36H99.3883L97.9997 34.3251ZM100.792 32.2351H101.3V35.227L103.812 32.2351H104.263V36H103.755V33.0081L101.25 36H100.792V32.2351ZM105.719 32.2351H106.228V35.227L108.74 32.2351H109.191V36H108.683V33.0081L106.178 36H105.719V32.2351ZM107.43 31.6911C107.106 31.6911 106.848 31.61 106.657 31.4478C106.466 31.2855 106.368 31.0565 106.364 30.7606H106.729C106.733 30.9467 106.8 31.097 106.929 31.2116C107.058 31.3213 107.225 31.3762 107.43 31.3762C107.635 31.3762 107.802 31.3213 107.931 31.2116C108.065 31.097 108.134 30.9467 108.139 30.7606H108.504C108.499 31.0565 108.399 31.2855 108.203 31.4478C108.012 31.61 107.755 31.6911 107.43 31.6911ZM113.888 34.3251H113.029V36H112.521V32.2351H113.029V33.8885H113.895L115.219 32.2351H115.77L114.288 34.0603L115.877 36H115.276L113.888 34.3251ZM119.077 34.0531C119.588 34.1724 119.843 34.4802 119.843 34.9765C119.843 35.3057 119.721 35.5586 119.478 35.7352C119.235 35.9117 118.872 36 118.39 36H116.679V32.2351H118.34C118.77 32.2351 119.106 32.3186 119.349 32.4856C119.593 32.6526 119.714 32.8912 119.714 33.2014C119.714 33.4066 119.657 33.5831 119.543 33.731C119.433 33.8742 119.278 33.9816 119.077 34.0531ZM117.173 33.91H118.304C118.595 33.91 118.817 33.8551 118.97 33.7454C119.127 33.6356 119.206 33.4758 119.206 33.2658C119.206 33.0558 119.127 32.8984 118.97 32.7934C118.817 32.6884 118.595 32.6359 118.304 32.6359H117.173V33.91ZM118.369 35.5992C118.693 35.5992 118.937 35.5467 119.099 35.4417C119.261 35.3367 119.342 35.1721 119.342 34.9478C119.342 34.7236 119.268 34.5589 119.12 34.454C118.972 34.3442 118.738 34.2893 118.419 34.2893H117.173V35.5992H118.369ZM122.33 32.2065C122.821 32.2065 123.198 32.3305 123.461 32.5787C123.723 32.822 123.854 33.1847 123.854 33.6666V36H123.368V35.4131C123.253 35.6087 123.084 35.7614 122.859 35.8712C122.64 35.9809 122.377 36.0358 122.072 36.0358C121.652 36.0358 121.318 35.9356 121.07 35.7352C120.822 35.5348 120.698 35.2699 120.698 34.9407C120.698 34.621 120.812 34.3633 121.041 34.1677C121.275 33.972 121.645 33.8742 122.151 33.8742H123.346V33.6452C123.346 33.3207 123.255 33.0749 123.074 32.9079C122.893 32.7361 122.628 32.6502 122.28 32.6502C122.041 32.6502 121.812 32.6908 121.592 32.7719C121.373 32.8483 121.184 32.9556 121.027 33.094L120.798 32.7147C120.989 32.5524 121.218 32.4284 121.485 32.3425C121.752 32.2518 122.034 32.2065 122.33 32.2065ZM122.151 35.635C122.437 35.635 122.683 35.5705 122.888 35.4417C123.093 35.3081 123.246 35.1172 123.346 34.8691V34.2535H122.165C121.521 34.2535 121.199 34.4778 121.199 34.9264C121.199 35.1459 121.282 35.32 121.449 35.4489C121.616 35.5729 121.85 35.635 122.151 35.635ZM127.147 32.2065C127.5 32.2065 127.82 32.2876 128.106 32.4498C128.392 32.6073 128.616 32.8316 128.779 33.1226C128.941 33.4137 129.022 33.7454 129.022 34.1176C129.022 34.4945 128.941 34.8285 128.779 35.1196C128.616 35.4107 128.392 35.6373 128.106 35.7996C127.824 35.9571 127.505 36.0358 127.147 36.0358C126.841 36.0358 126.565 35.9738 126.317 35.8497C126.073 35.7209 125.873 35.5348 125.715 35.2914V37.3886H125.207V32.2351H125.694V32.9795C125.847 32.7314 126.047 32.5405 126.295 32.4069C126.548 32.2733 126.832 32.2065 127.147 32.2065ZM127.111 35.5849C127.373 35.5849 127.612 35.5252 127.827 35.4059C128.041 35.2819 128.209 35.1077 128.328 34.8834C128.452 34.6591 128.514 34.4039 128.514 34.1176C128.514 33.8312 128.452 33.5783 128.328 33.3588C128.209 33.1346 128.041 32.9604 127.827 32.8363C127.612 32.7123 127.373 32.6502 127.111 32.6502C126.844 32.6502 126.603 32.7123 126.388 32.8363C126.178 32.9604 126.011 33.1346 125.887 33.3588C125.768 33.5783 125.708 33.8312 125.708 34.1176C125.708 34.4039 125.768 34.6591 125.887 34.8834C126.011 35.1077 126.178 35.2819 126.388 35.4059C126.603 35.5252 126.844 35.5849 127.111 35.5849ZM132.622 32.686H131.198V36H130.69V32.686H129.266V32.2351H132.622V32.686ZM134.653 32.2065C135.144 32.2065 135.521 32.3305 135.784 32.5787C136.046 32.822 136.177 33.1847 136.177 33.6666V36H135.691V35.4131C135.576 35.6087 135.407 35.7614 135.182 35.8712C134.963 35.9809 134.7 36.0358 134.395 36.0358C133.975 36.0358 133.641 35.9356 133.393 35.7352C133.145 35.5348 133.021 35.2699 133.021 34.9407C133.021 34.621 133.135 34.3633 133.364 34.1677C133.598 33.972 133.968 33.8742 134.474 33.8742H135.669V33.6452C135.669 33.3207 135.578 33.0749 135.397 32.9079C135.216 32.7361 134.951 32.6502 134.603 32.6502C134.364 32.6502 134.135 32.6908 133.916 32.7719C133.696 32.8483 133.508 32.9556 133.35 33.094L133.121 32.7147C133.312 32.5524 133.541 32.4284 133.808 32.3425C134.075 32.2518 134.357 32.2065 134.653 32.2065ZM134.474 35.635C134.76 35.635 135.006 35.5705 135.211 35.4417C135.416 35.3081 135.569 35.1172 135.669 34.8691V34.2535H134.488C133.844 34.2535 133.522 34.4778 133.522 34.9264C133.522 35.1459 133.605 35.32 133.772 35.4489C133.939 35.5729 134.173 35.635 134.474 35.635ZM140.608 32.2351V36H140.1V32.686H138.296L138.246 33.6165C138.208 34.3991 138.117 35.0003 137.974 35.4202C137.831 35.8401 137.575 36.0501 137.208 36.0501C137.108 36.0501 136.986 36.031 136.843 35.9928L136.879 35.5562C136.965 35.5753 137.024 35.5849 137.058 35.5849C137.253 35.5849 137.401 35.4942 137.502 35.3129C137.602 35.1315 137.669 34.9073 137.702 34.6401C137.735 34.3728 137.764 34.0197 137.788 33.5807L137.852 32.2351H140.608Z" fill="black"/>
<g filter="url(#filter3_d_0_1)">
<line x1="119.383" y1="177.415" x2="64.7796" y2="214.232" stroke="white"/>
</g>
<g filter="url(#filter4_d_0_1)">
<circle cx="61" cy="213.5" r="9.5" fill="white"/>
<circle cx="61" cy="213.5" r="8.70833" stroke="#0074C9" stroke-width="1.58333"/>
</g>
<g filter="url(#filter5_d_0_1)">
<rect x="92.5" y="169" width="131.75" height="31" rx="15.5" fill="white"/>
</g>
<g clip-path="url(#clip1_0_1)">
<path d="M113.384 182.79C113.132 182.79 112.885 182.865 112.674 183.005C112.464 183.146 112.3 183.345 112.204 183.579C112.107 183.812 112.082 184.069 112.131 184.317C112.18 184.565 112.302 184.793 112.481 184.972C112.659 185.15 112.887 185.272 113.135 185.321C113.383 185.371 113.64 185.345 113.874 185.249C114.107 185.152 114.307 184.988 114.447 184.778C114.588 184.568 114.663 184.321 114.663 184.068C114.663 183.729 114.528 183.404 114.288 183.164C114.049 182.924 113.723 182.79 113.384 182.79ZM113.384 184.707C113.258 184.707 113.134 184.669 113.029 184.599C112.924 184.529 112.842 184.429 112.794 184.312C112.746 184.196 112.733 184.067 112.758 183.943C112.782 183.819 112.843 183.705 112.933 183.616C113.022 183.527 113.136 183.466 113.26 183.441C113.384 183.416 113.512 183.429 113.629 183.477C113.746 183.526 113.846 183.608 113.916 183.713C113.986 183.818 114.024 183.942 114.024 184.068C114.024 184.237 113.956 184.4 113.836 184.52C113.716 184.64 113.554 184.707 113.384 184.707Z" fill="#0074C9"/>
<path d="M113.384 188.541C113.115 188.543 112.85 188.48 112.61 188.357C112.37 188.235 112.164 188.057 112.007 187.839C110.789 186.159 110.171 184.896 110.171 184.085C110.171 183.233 110.51 182.416 111.112 181.813C111.715 181.211 112.532 180.872 113.384 180.872C114.236 180.872 115.054 181.211 115.656 181.813C116.259 182.416 116.597 183.233 116.597 184.085C116.597 184.896 115.98 186.159 114.762 187.839C114.605 188.057 114.398 188.235 114.159 188.357C113.919 188.48 113.653 188.543 113.384 188.541V188.541ZM113.384 181.57C112.717 181.57 112.078 181.836 111.606 182.307C111.134 182.779 110.869 183.419 110.868 184.086C110.868 184.728 111.473 185.916 112.571 187.43C112.664 187.558 112.787 187.663 112.928 187.735C113.069 187.807 113.226 187.844 113.384 187.844C113.543 187.844 113.699 187.807 113.841 187.735C113.982 187.663 114.104 187.558 114.198 187.43C115.296 185.916 115.9 184.728 115.9 184.086C115.9 183.419 115.634 182.779 115.163 182.307C114.691 181.836 114.051 181.57 113.384 181.57V181.57Z" fill="#0074C9"/>
</g>
<path d="M123.698 183.085L121.815 187.301C121.662 187.654 121.486 187.905 121.285 188.052C121.085 188.2 120.844 188.274 120.562 188.274C120.381 188.274 120.212 188.246 120.054 188.188C119.897 188.131 119.761 188.045 119.646 187.931L119.883 187.551C120.073 187.742 120.302 187.838 120.57 187.838C120.741 187.838 120.887 187.79 121.006 187.695C121.13 187.599 121.245 187.437 121.35 187.208L121.514 186.843L119.832 183.085H120.362L121.779 186.285L123.196 183.085H123.698ZM127.399 183.085V186.85H126.891V183.536H125.087L125.037 184.467C124.999 185.249 124.908 185.85 124.765 186.27C124.622 186.69 124.367 186.9 123.999 186.9C123.899 186.9 123.778 186.881 123.634 186.843L123.67 186.406C123.756 186.425 123.816 186.435 123.849 186.435C124.045 186.435 124.193 186.344 124.293 186.163C124.393 185.982 124.46 185.757 124.493 185.49C124.527 185.223 124.555 184.87 124.579 184.431L124.644 183.085H127.399ZM128.88 186.886C128.775 186.886 128.684 186.848 128.608 186.771C128.536 186.695 128.5 186.602 128.5 186.492C128.5 186.382 128.536 186.292 128.608 186.22C128.684 186.144 128.775 186.106 128.88 186.106C128.985 186.106 129.075 186.144 129.152 186.22C129.228 186.292 129.266 186.382 129.266 186.492C129.266 186.602 129.228 186.695 129.152 186.771C129.075 186.848 128.985 186.886 128.88 186.886ZM134.546 186.893C134.05 186.893 133.601 186.783 133.2 186.564C132.804 186.344 132.492 186.041 132.263 185.655C132.038 185.263 131.926 184.827 131.926 184.345C131.926 183.863 132.038 183.429 132.263 183.042C132.492 182.651 132.807 182.346 133.207 182.126C133.608 181.907 134.057 181.797 134.553 181.797C134.925 181.797 135.269 181.859 135.584 181.983C135.899 182.107 136.166 182.288 136.385 182.527L136.049 182.863C135.658 182.467 135.164 182.269 134.567 182.269C134.171 182.269 133.811 182.36 133.487 182.541C133.162 182.722 132.907 182.971 132.721 183.286C132.539 183.6 132.449 183.954 132.449 184.345C132.449 184.736 132.539 185.089 132.721 185.404C132.907 185.719 133.162 185.967 133.487 186.149C133.811 186.33 134.171 186.421 134.567 186.421C135.169 186.421 135.662 186.22 136.049 185.819L136.385 186.156C136.166 186.394 135.896 186.578 135.577 186.707C135.262 186.831 134.918 186.893 134.546 186.893ZM139.901 183.536H138.477V186.85H137.968V183.536H136.544V183.085H139.901V183.536ZM141.931 183.056C142.423 183.056 142.8 183.181 143.062 183.429C143.325 183.672 143.456 184.035 143.456 184.517V186.85H142.969V186.263C142.855 186.459 142.685 186.611 142.461 186.721C142.241 186.831 141.979 186.886 141.674 186.886C141.254 186.886 140.92 186.786 140.672 186.585C140.423 186.385 140.299 186.12 140.299 185.791C140.299 185.471 140.414 185.213 140.643 185.018C140.877 184.822 141.247 184.724 141.752 184.724H142.948V184.495C142.948 184.171 142.857 183.925 142.676 183.758C142.494 183.586 142.23 183.5 141.881 183.5C141.643 183.5 141.414 183.541 141.194 183.622C140.975 183.698 140.786 183.806 140.629 183.944L140.4 183.565C140.59 183.402 140.819 183.278 141.087 183.192C141.354 183.102 141.635 183.056 141.931 183.056ZM141.752 186.485C142.039 186.485 142.284 186.421 142.49 186.292C142.695 186.158 142.847 185.967 142.948 185.719V185.104H141.767C141.122 185.104 140.8 185.328 140.8 185.776C140.8 185.996 140.884 186.17 141.051 186.299C141.218 186.423 141.452 186.485 141.752 186.485ZM144.809 183.085H145.317V184.753H147.686V183.085H148.194V186.85H147.686V185.189H145.317V186.85H144.809V183.085ZM149.639 183.085H150.147V186.077L152.659 183.085H153.11V186.85H152.602V183.858L150.097 186.85H149.639V183.085ZM156.141 186.886C155.769 186.886 155.435 186.805 155.139 186.642C154.848 186.48 154.619 186.254 154.452 185.962C154.285 185.667 154.201 185.335 154.201 184.968C154.201 184.6 154.285 184.271 154.452 183.98C154.619 183.689 154.848 183.462 155.139 183.3C155.435 183.138 155.769 183.056 156.141 183.056C156.466 183.056 156.754 183.121 157.007 183.25C157.265 183.374 157.468 183.558 157.616 183.801L157.236 184.059C157.112 183.872 156.955 183.734 156.764 183.643C156.573 183.548 156.365 183.5 156.141 183.5C155.869 183.5 155.623 183.562 155.404 183.686C155.189 183.806 155.02 183.977 154.896 184.202C154.776 184.426 154.717 184.681 154.717 184.968C154.717 185.259 154.776 185.516 154.896 185.741C155.02 185.96 155.189 186.132 155.404 186.256C155.623 186.375 155.869 186.435 156.141 186.435C156.365 186.435 156.573 186.39 156.764 186.299C156.955 186.208 157.112 186.07 157.236 185.884L157.616 186.141C157.468 186.385 157.265 186.571 157.007 186.7C156.75 186.824 156.461 186.886 156.141 186.886ZM161.552 183.085V186.85H161.043V183.536H159.24L159.19 184.467C159.151 185.249 159.061 185.85 158.918 186.27C158.774 186.69 158.519 186.9 158.152 186.9C158.052 186.9 157.93 186.881 157.787 186.843L157.822 186.406C157.908 186.425 157.968 186.435 158.001 186.435C158.197 186.435 158.345 186.344 158.445 186.163C158.545 185.982 158.612 185.757 158.646 185.49C158.679 185.223 158.708 184.87 158.732 184.431L158.796 183.085H161.552ZM164.292 183.056C164.783 183.056 165.16 183.181 165.423 183.429C165.685 183.672 165.816 184.035 165.816 184.517V186.85H165.33V186.263C165.215 186.459 165.046 186.611 164.821 186.721C164.602 186.831 164.34 186.886 164.034 186.886C163.614 186.886 163.28 186.786 163.032 186.585C162.784 186.385 162.66 186.12 162.66 185.791C162.66 185.471 162.774 185.213 163.003 185.018C163.237 184.822 163.607 184.724 164.113 184.724H165.308V184.495C165.308 184.171 165.218 183.925 165.036 183.758C164.855 183.586 164.59 183.5 164.242 183.5C164.003 183.5 163.774 183.541 163.555 183.622C163.335 183.698 163.147 183.806 162.989 183.944L162.76 183.565C162.951 183.402 163.18 183.278 163.447 183.192C163.714 183.102 163.996 183.056 164.292 183.056ZM164.113 186.485C164.399 186.485 164.645 186.421 164.85 186.292C165.055 186.158 165.208 185.967 165.308 185.719V185.104H164.127C163.483 185.104 163.161 185.328 163.161 185.776C163.161 185.996 163.244 186.17 163.411 186.299C163.578 186.423 163.812 186.485 164.113 186.485ZM169.567 184.903C170.078 185.022 170.333 185.33 170.333 185.826C170.333 186.156 170.211 186.409 169.968 186.585C169.724 186.762 169.362 186.85 168.88 186.85H167.169V183.085H168.83C169.259 183.085 169.596 183.169 169.839 183.336C170.082 183.503 170.204 183.741 170.204 184.051C170.204 184.257 170.147 184.433 170.032 184.581C169.922 184.724 169.767 184.832 169.567 184.903ZM167.663 184.76H168.794C169.085 184.76 169.307 184.705 169.46 184.595C169.617 184.486 169.696 184.326 169.696 184.116C169.696 183.906 169.617 183.748 169.46 183.643C169.307 183.538 169.085 183.486 168.794 183.486H167.663V184.76ZM168.858 186.449C169.183 186.449 169.426 186.397 169.588 186.292C169.751 186.187 169.832 186.022 169.832 185.798C169.832 185.574 169.758 185.409 169.61 185.304C169.462 185.194 169.228 185.139 168.908 185.139H167.663V186.449H168.858ZM173.099 186.886C172.726 186.886 172.392 186.805 172.096 186.642C171.805 186.48 171.576 186.254 171.409 185.962C171.242 185.667 171.159 185.335 171.159 184.968C171.159 184.6 171.242 184.271 171.409 183.98C171.576 183.689 171.805 183.462 172.096 183.3C172.392 183.138 172.726 183.056 173.099 183.056C173.423 183.056 173.712 183.121 173.965 183.25C174.222 183.374 174.425 183.558 174.573 183.801L174.194 184.059C174.07 183.872 173.912 183.734 173.721 183.643C173.53 183.548 173.323 183.5 173.099 183.5C172.827 183.5 172.581 183.562 172.361 183.686C172.147 183.806 171.977 183.977 171.853 184.202C171.734 184.426 171.674 184.681 171.674 184.968C171.674 185.259 171.734 185.516 171.853 185.741C171.977 185.96 172.147 186.132 172.361 186.256C172.581 186.375 172.827 186.435 173.099 186.435C173.323 186.435 173.53 186.39 173.721 186.299C173.912 186.208 174.07 186.07 174.194 185.884L174.573 186.141C174.425 186.385 174.222 186.571 173.965 186.7C173.707 186.824 173.418 186.886 173.099 186.886ZM176.924 185.175H176.065V186.85H175.557V183.085H176.065V184.739H176.931L178.255 183.085H178.807L177.325 184.91L178.914 186.85H178.313L176.924 185.175ZM181.136 186.886C180.774 186.886 180.447 186.805 180.156 186.642C179.865 186.475 179.636 186.246 179.469 185.955C179.302 185.664 179.218 185.335 179.218 184.968C179.218 184.6 179.302 184.271 179.469 183.98C179.636 183.689 179.865 183.462 180.156 183.3C180.447 183.138 180.774 183.056 181.136 183.056C181.499 183.056 181.826 183.138 182.117 183.3C182.408 183.462 182.635 183.689 182.797 183.98C182.964 184.271 183.047 184.6 183.047 184.968C183.047 185.335 182.964 185.664 182.797 185.955C182.635 186.246 182.408 186.475 182.117 186.642C181.826 186.805 181.499 186.886 181.136 186.886ZM181.136 186.435C181.404 186.435 181.642 186.375 181.852 186.256C182.067 186.132 182.234 185.958 182.353 185.733C182.472 185.509 182.532 185.254 182.532 184.968C182.532 184.681 182.472 184.426 182.353 184.202C182.234 183.977 182.067 183.806 181.852 183.686C181.642 183.562 181.404 183.5 181.136 183.5C180.869 183.5 180.628 183.562 180.413 183.686C180.203 183.806 180.036 183.977 179.912 184.202C179.793 184.426 179.733 184.681 179.733 184.968C179.733 185.254 179.793 185.509 179.912 185.733C180.036 185.958 180.203 186.132 180.413 186.256C180.628 186.375 180.869 186.435 181.136 186.435ZM186.796 183.536H184.642V186.85H184.134V183.085H186.796V183.536ZM188.909 186.886C188.546 186.886 188.22 186.805 187.928 186.642C187.637 186.475 187.408 186.246 187.241 185.955C187.074 185.664 186.991 185.335 186.991 184.968C186.991 184.6 187.074 184.271 187.241 183.98C187.408 183.689 187.637 183.462 187.928 183.3C188.22 183.138 188.546 183.056 188.909 183.056C189.272 183.056 189.599 183.138 189.89 183.3C190.181 183.462 190.407 183.689 190.57 183.98C190.737 184.271 190.82 184.6 190.82 184.968C190.82 185.335 190.737 185.664 190.57 185.955C190.407 186.246 190.181 186.475 189.89 186.642C189.599 186.805 189.272 186.886 188.909 186.886ZM188.909 186.435C189.176 186.435 189.415 186.375 189.625 186.256C189.84 186.132 190.007 185.958 190.126 185.733C190.245 185.509 190.305 185.254 190.305 184.968C190.305 184.681 190.245 184.426 190.126 184.202C190.007 183.977 189.84 183.806 189.625 183.686C189.415 183.562 189.176 183.5 188.909 183.5C188.642 183.5 188.401 183.562 188.186 183.686C187.976 183.806 187.809 183.977 187.685 184.202C187.566 184.426 187.506 184.681 187.506 184.968C187.506 185.254 187.566 185.509 187.685 185.733C187.809 185.958 187.976 186.132 188.186 186.256C188.401 186.375 188.642 186.435 188.909 186.435ZM194.817 181.84V186.85H194.302V182.298H193.121V181.84H194.817ZM198.091 183.851C198.42 183.851 198.711 183.913 198.964 184.037C199.222 184.161 199.422 184.338 199.565 184.567C199.708 184.791 199.78 185.053 199.78 185.354C199.78 185.659 199.706 185.929 199.558 186.163C199.41 186.397 199.205 186.578 198.942 186.707C198.685 186.831 198.394 186.893 198.069 186.893C197.406 186.893 196.898 186.676 196.545 186.242C196.192 185.803 196.015 185.185 196.015 184.388C196.015 183.83 196.11 183.357 196.301 182.971C196.492 182.584 196.759 182.293 197.103 182.097C197.447 181.897 197.847 181.797 198.305 181.797C198.802 181.797 199.198 181.887 199.494 182.069L199.286 182.484C199.047 182.326 198.723 182.248 198.313 182.248C197.759 182.248 197.325 182.424 197.01 182.777C196.695 183.126 196.538 183.634 196.538 184.302C196.538 184.421 196.545 184.557 196.559 184.71C196.683 184.438 196.881 184.228 197.153 184.08C197.425 183.927 197.738 183.851 198.091 183.851ZM198.048 186.456C198.41 186.456 198.704 186.359 198.928 186.163C199.157 185.962 199.272 185.698 199.272 185.368C199.272 185.039 199.157 184.777 198.928 184.581C198.704 184.385 198.398 184.288 198.012 184.288C197.759 184.288 197.535 184.335 197.339 184.431C197.148 184.526 196.998 184.657 196.888 184.824C196.778 184.991 196.724 185.178 196.724 185.383C196.724 185.574 196.774 185.75 196.874 185.912C196.979 186.075 197.132 186.206 197.332 186.306C197.532 186.406 197.771 186.456 198.048 186.456ZM202.257 180.823H202.723L200.361 187.566H199.895L202.257 180.823ZM204.449 181.84V186.85H203.934V182.298H202.753V181.84H204.449Z" fill="black"/>
<defs>
<filter id="filter0_d_0_1" x="126.332" y="33" width="57.6682" height="52.744" filterUnits="userSpaceOnUse" color-interpolation-filters="sRGB">
<feFlood flood-opacity="0" result="BackgroundImageFix"/>
<feColorMatrix in="SourceAlpha" type="matrix" values="0 0 0 0 0 0 0 0 0 0 0 0 0 0 0 0 0 0 127 0" result="hardAlpha"/>
<feOffset dy="4"/>
<feGaussianBlur stdDeviation="2"/>
<feColorMatrix type="matrix" values="0 0 0 0 0 0 0 0 0 0 0 0 0 0 0 0 0 0 0.25 0"/>
<feBlend mode="normal" in2="BackgroundImageFix" result="effect1_dropShadow_0_1"/>
<feBlend mode="normal" in="SourceGraphic" in2="effect1_dropShadow_0_1" result="shape"/>
</filter>
<filter id="filter1_d_0_1" x="162.667" y="69" width="31.6667" height="31.6667" filterUnits="userSpaceOnUse" color-interpolation-filters="sRGB">
<feFlood flood-opacity="0" result="BackgroundImageFix"/>
<feColorMatrix in="SourceAlpha" type="matrix" values="0 0 0 0 0 0 0 0 0 0 0 0 0 0 0 0 0 0 127 0" result="hardAlpha"/>
<feOffset dy="6.33333"/>
<feGaussianBlur stdDeviation="3.16667"/>
<feColorMatrix type="matrix" values="0 0 0 0 0 0 0 0 0 0 0 0 0 0 0 0 0 0 0.25 0"/>
<feBlend mode="normal" in2="BackgroundImageFix" result="effect1_dropShadow_0_1"/>
<feBlend mode="normal" in="SourceGraphic" in2="effect1_dropShadow_0_1" result="shape"/>
</filter>
<filter id="filter2_d_0_1" x="0.75" y="0.95" width="178.25" height="77.5" filterUnits="userSpaceOnUse" color-interpolation-filters="sRGB">
<feFlood flood-opacity="0" result="BackgroundImageFix"/>
<feColorMatrix in="SourceAlpha" type="matrix" values="0 0 0 0 0 0 0 0 0 0 0 0 0 0 0 0 0 0 127 0" result="hardAlpha"/>
<feMorphology radius="3.1" operator="dilate" in="SourceAlpha" result="effect1_dropShadow_0_1"/>
<feOffset dy="6.2"/>
<feGaussianBlur stdDeviation="10.075"/>
<feComposite in2="hardAlpha" operator="out"/>
<feColorMatrix type="matrix" values="0 0 0 0 0 0 0 0 0 0.454902 0 0 0 0 0.788235 0 0 0 0.22 0"/>
<feBlend mode="normal" in2="BackgroundImageFix" result="effect1_dropShadow_0_1"/>
<feBlend mode="normal" in="SourceGraphic" in2="effect1_dropShadow_0_1" result="shape"/>
</filter>
<filter id="filter3_d_0_1" x="60.5001" y="177" width="63.162" height="45.6465" filterUnits="userSpaceOnUse" color-interpolation-filters="sRGB">
<feFlood flood-opacity="0" result="BackgroundImageFix"/>
<feColorMatrix in="SourceAlpha" type="matrix" values="0 0 0 0 0 0 0 0 0 0 0 0 0 0 0 0 0 0 127 0" result="hardAlpha"/>
<feOffset dy="4"/>
<feGaussianBlur stdDeviation="2"/>
<feColorMatrix type="matrix" values="0 0 0 0 0 0 0 0 0 0 0 0 0 0 0 0 0 0 0.25 0"/>
<feBlend mode="normal" in2="BackgroundImageFix" result="effect1_dropShadow_0_1"/>
<feBlend mode="normal" in="SourceGraphic" in2="effect1_dropShadow_0_1" result="shape"/>
</filter>
<filter id="filter4_d_0_1" x="45.1667" y="204" width="31.6667" height="31.6667" filterUnits="userSpaceOnUse" color-interpolation-filters="sRGB">
<feFlood flood-opacity="0" result="BackgroundImageFix"/>
<feColorMatrix in="SourceAlpha" type="matrix" values="0 0 0 0 0 0 0 0 0 0 0 0 0 0 0 0 0 0 127 0" result="hardAlpha"/>
<feOffset dy="6.33333"/>
<feGaussianBlur stdDeviation="3.16667"/>
<feColorMatrix type="matrix" values="0 0 0 0 0 0 0 0 0 0 0 0 0 0 0 0 0 0 0.25 0"/>
<feBlend mode="normal" in2="BackgroundImageFix" result="effect1_dropShadow_0_1"/>
<feBlend mode="normal" in="SourceGraphic" in2="effect1_dropShadow_0_1" result="shape"/>
</filter>
<filter id="filter5_d_0_1" x="69.25" y="151.95" width="178.25" height="77.5" filterUnits="userSpaceOnUse" color-interpolation-filters="sRGB">
<feFlood flood-opacity="0" result="BackgroundImageFix"/>
<feColorMatrix in="SourceAlpha" type="matrix" values="0 0 0 0 0 0 0 0 0 0 0 0 0 0 0 0 0 0 127 0" result="hardAlpha"/>
<feMorphology radius="3.1" operator="dilate" in="SourceAlpha" result="effect1_dropShadow_0_1"/>
<feOffset dy="6.2"/>
<feGaussianBlur stdDeviation="10.075"/>
<feComposite in2="hardAlpha" operator="out"/>
<feColorMatrix type="matrix" values="0 0 0 0 0 0 0 0 0 0.454902 0 0 0 0 0.788235 0 0 0 0.22 0"/>
<feBlend mode="normal" in2="BackgroundImageFix" result="effect1_dropShadow_0_1"/>
<feBlend mode="normal" in="SourceGraphic" in2="effect1_dropShadow_0_1" result="shape"/>
</filter>
<clipPath id="clip0_0_1">
<rect width="7.66885" height="7.66885" fill="white" transform="translate(41.05 29.8726)"/>
</clipPath>
<clipPath id="clip1_0_1">
<rect width="7.66885" height="7.66885" fill="white" transform="translate(109.55 180.873)"/>
</clipPath>
</defs>
</svg>
