<svg width="345" height="328" viewBox="0 0 345 328" fill="none" xmlns="http://www.w3.org/2000/svg">
<g filter="url(#filter0_d_3_2)">
<line x1="250.177" y1="106.626" x2="181.927" y2="45.3399" stroke="white" stroke-width="1.39286"/>
</g>
<g filter="url(#filter1_d_3_2)">
<circle cx="248.553" cy="108.197" r="13.2321" fill="white"/>
<circle cx="248.553" cy="108.197" r="12.1295" stroke="#0074C9" stroke-width="2.20536"/>
</g>
<g filter="url(#filter2_d_3_2)">
<rect x="33.3564" y="23.9287" width="183.509" height="43.1786" rx="21.5893" fill="white"/>
</g>
<g clip-path="url(#clip0_3_2)">
<path d="M62.4453 43.1353C62.0932 43.1353 61.749 43.2397 61.4562 43.4353C61.1635 43.6309 60.9353 43.9089 60.8006 44.2342C60.6658 44.5595 60.6306 44.9175 60.6992 45.2628C60.7679 45.6082 60.9375 45.9254 61.1865 46.1744C61.4354 46.4233 61.7527 46.5929 62.098 46.6616C62.4433 46.7303 62.8013 46.695 63.1266 46.5603C63.4519 46.4255 63.7299 46.1974 63.9255 45.9046C64.1212 45.6118 64.2256 45.2676 64.2256 44.9155C64.2256 44.4434 64.038 43.9905 63.7041 43.6567C63.3703 43.3228 62.9175 43.1353 62.4453 43.1353ZM62.4453 45.8057C62.2693 45.8057 62.0972 45.7535 61.9508 45.6556C61.8044 45.5578 61.6903 45.4188 61.6229 45.2562C61.5556 45.0935 61.5379 44.9145 61.5723 44.7419C61.6066 44.5692 61.6914 44.4106 61.8159 44.2861C61.9404 44.1616 62.099 44.0768 62.2717 44.0425C62.4443 44.0081 62.6233 44.0258 62.7859 44.0931C62.9486 44.1605 63.0876 44.2746 63.1854 44.421C63.2832 44.5674 63.3354 44.7395 63.3354 44.9155C63.3354 45.1516 63.2417 45.378 63.0747 45.5449C62.9078 45.7119 62.6814 45.8057 62.4453 45.8057Z" fill="#0074C9"/>
<path d="M62.4454 51.1469C62.0706 51.1488 61.7008 51.0609 61.367 50.8905C61.0332 50.7202 60.745 50.4723 60.5267 50.1677C58.8305 47.828 57.9702 46.0691 57.9702 44.9395C57.9702 43.7526 58.4417 42.6144 59.281 41.7751C60.1202 40.9358 61.2585 40.4644 62.4454 40.4644C63.6322 40.4644 64.7705 40.9358 65.6098 41.7751C66.449 42.6144 66.9205 43.7526 66.9205 44.9395C66.9205 46.0691 66.0602 47.828 64.364 50.1677C64.1457 50.4723 63.8576 50.7202 63.5237 50.8905C63.1899 51.0609 62.8201 51.1488 62.4454 51.1469V51.1469ZM62.4454 41.4359C61.5163 41.437 60.6255 41.8066 59.9685 42.4635C59.3115 43.1205 58.942 44.0113 58.9409 44.9404C58.9409 45.835 59.7834 47.4893 61.3127 49.5985C61.4425 49.7773 61.6128 49.9228 61.8097 50.0232C62.0066 50.1235 62.2244 50.1759 62.4454 50.1759C62.6663 50.1759 62.8842 50.1235 63.081 50.0232C63.2779 49.9228 63.4482 49.7773 63.5781 49.5985C65.1073 47.4893 65.9498 45.835 65.9498 44.9404C65.9488 44.0113 65.5792 43.1205 64.9222 42.4635C64.2652 41.8066 63.3745 41.437 62.4454 41.4359V41.4359Z" fill="#0074C9"/>
</g>
<path d="M77.849 45.7998H76.4035V49H75.6857V45.7998H74.2301L72.0966 49H71.2393L73.6319 45.401L71.4187 42.0213H72.2163L74.2201 45.1518H75.6857V42.0213H76.4035V45.1518H77.849L79.8629 42.0213H80.6604L78.4472 45.401L80.8399 49H79.9825L77.849 45.7998ZM84.3225 45.7998H82.7274V49H82.0096V42.0213H82.7274V45.1518H84.3225L86.6853 42.0213H87.4829L84.8908 45.411L87.6324 49H86.785L84.3225 45.7998ZM96.1849 42.6594H93.7324V49H93.0046V42.6594H90.5521V42.0213H96.1849V42.6594ZM97.1741 43.756H97.8819V47.9233L101.381 43.756H102.009V49H101.301V44.8327L97.8121 49H97.1741V43.756ZM107.318 49L105.653 46.8067L103.978 49H103.18L105.254 46.3082L103.28 43.756H104.078L105.653 45.8098L107.228 43.756H108.006L106.032 46.3082L108.125 49H107.318ZM112.625 46.2883C113.336 46.4545 113.692 46.8831 113.692 47.5744C113.692 48.033 113.523 48.3852 113.184 48.6311C112.845 48.877 112.339 49 111.668 49H109.285V43.756H111.598C112.197 43.756 112.665 43.8724 113.004 44.105C113.343 44.3376 113.513 44.6699 113.513 45.1019C113.513 45.3877 113.433 45.6336 113.273 45.8397C113.12 46.0391 112.904 46.1886 112.625 46.2883ZM109.973 46.0889H111.549C111.954 46.0889 112.263 46.0125 112.476 45.8596C112.695 45.7067 112.805 45.4841 112.805 45.1916C112.805 44.8992 112.695 44.6799 112.476 44.5337C112.263 44.3874 111.954 44.3143 111.549 44.3143H109.973V46.0889ZM111.638 48.4417C112.09 48.4417 112.429 48.3686 112.655 48.2224C112.881 48.0762 112.994 47.8469 112.994 47.5345C112.994 47.2221 112.891 46.9928 112.685 46.8466C112.479 46.6937 112.153 46.6173 111.708 46.6173H109.973V48.4417H111.638ZM115.351 43.756H116.059V47.9233L119.558 43.756H120.186V49H119.478V44.8327L115.989 49H115.351V43.756ZM122.215 43.756H122.922V46.0789H126.222V43.756H126.93V49H126.222V46.6871H122.922V49H122.215V43.756ZM131.135 49.0498C130.617 49.0498 130.152 48.9369 129.74 48.7109C129.334 48.4849 129.015 48.1692 128.783 47.7638C128.55 47.3517 128.434 46.8898 128.434 46.378C128.434 45.8663 128.55 45.4077 128.783 45.0022C129.015 44.5968 129.334 44.2811 129.74 44.0551C130.152 43.8292 130.617 43.7162 131.135 43.7162C131.587 43.7162 131.989 43.8059 132.342 43.9853C132.701 44.1581 132.983 44.414 133.189 44.753L132.661 45.1119C132.488 44.8527 132.269 44.6599 132.003 44.5337C131.737 44.4007 131.448 44.3343 131.135 44.3343C130.757 44.3343 130.414 44.4207 130.109 44.5935C129.809 44.7596 129.574 44.9989 129.401 45.3113C129.235 45.6237 129.151 45.9792 129.151 46.378C129.151 46.7834 129.235 47.1423 129.401 47.4547C129.574 47.7605 129.809 47.9997 130.109 48.1725C130.414 48.3387 130.757 48.4218 131.135 48.4218C131.448 48.4218 131.737 48.3586 132.003 48.2323C132.269 48.1061 132.488 47.9133 132.661 47.6541L133.189 48.013C132.983 48.352 132.701 48.6112 132.342 48.7906C131.983 48.9634 131.581 49.0498 131.135 49.0498ZM136.464 46.6671H135.268V49H134.56V43.756H135.268V46.059H136.474L138.318 43.756H139.086L137.022 46.2983L139.235 49H138.398L136.464 46.6671ZM140.353 43.756H141.06V47.9233L144.56 43.756H145.188V49H144.48V44.8327L140.991 49H140.353V43.756ZM147.216 43.756H147.924V47.9233L151.423 43.756H152.052V49H151.344V44.8327L147.854 49H147.216V43.756ZM149.599 42.9984C149.147 42.9984 148.788 42.8854 148.522 42.6594C148.256 42.4334 148.12 42.1144 148.114 41.7023H148.622C148.629 41.9615 148.722 42.1709 148.901 42.3304C149.081 42.4833 149.313 42.5597 149.599 42.5597C149.885 42.5597 150.117 42.4833 150.297 42.3304C150.483 42.1709 150.579 41.9615 150.586 41.7023H151.094C151.088 42.1144 150.948 42.4334 150.676 42.6594C150.41 42.8854 150.051 42.9984 149.599 42.9984ZM158.593 46.6671H157.397V49H156.689V43.756H157.397V46.059H158.603L160.448 43.756H161.215L159.152 46.2983L161.365 49H160.528L158.593 46.6671ZM165.822 46.2883C166.533 46.4545 166.889 46.8831 166.889 47.5744C166.889 48.033 166.719 48.3852 166.38 48.6311C166.041 48.877 165.536 49 164.865 49H162.482V43.756H164.795C165.393 43.756 165.862 43.8724 166.201 44.105C166.54 44.3376 166.709 44.6699 166.709 45.1019C166.709 45.3877 166.629 45.6336 166.47 45.8397C166.317 46.0391 166.101 46.1886 165.822 46.2883ZM163.17 46.0889H164.745C165.151 46.0889 165.46 46.0125 165.672 45.8596C165.892 45.7067 166.001 45.4841 166.001 45.1916C166.001 44.8992 165.892 44.6799 165.672 44.5337C165.46 44.3874 165.151 44.3143 164.745 44.3143H163.17V46.0889ZM164.835 48.4417C165.287 48.4417 165.626 48.3686 165.852 48.2224C166.078 48.0762 166.191 47.8469 166.191 47.5345C166.191 47.2221 166.088 46.9928 165.882 46.8466C165.676 46.6937 165.35 46.6173 164.905 46.6173H163.17V48.4417H164.835ZM170.352 43.7162C171.037 43.7162 171.562 43.889 171.927 44.2346C172.293 44.5735 172.476 45.0787 172.476 45.7499V49H171.798V48.1825C171.638 48.455 171.402 48.6677 171.09 48.8205C170.784 48.9734 170.418 49.0498 169.993 49.0498C169.408 49.0498 168.943 48.9103 168.597 48.6311C168.252 48.352 168.079 47.9831 168.079 47.5245C168.079 47.0792 168.238 46.7203 168.558 46.4478C168.883 46.1753 169.398 46.0391 170.103 46.0391H171.768V45.72C171.768 45.2681 171.641 44.9258 171.389 44.6932C171.136 44.4539 170.767 44.3343 170.282 44.3343C169.95 44.3343 169.631 44.3908 169.325 44.5038C169.019 44.6101 168.757 44.7596 168.538 44.9524L168.219 44.424C168.484 44.198 168.803 44.0252 169.176 43.9056C169.548 43.7793 169.94 43.7162 170.352 43.7162ZM170.103 48.4916C170.502 48.4916 170.844 48.4018 171.13 48.2224C171.415 48.0363 171.628 47.7704 171.768 47.4248V46.5674H170.123C169.225 46.5674 168.777 46.8798 168.777 47.5046C168.777 47.8103 168.893 48.0529 169.126 48.2323C169.358 48.4052 169.684 48.4916 170.103 48.4916ZM177.062 43.7162C177.553 43.7162 177.999 43.8292 178.397 44.0551C178.796 44.2745 179.109 44.5868 179.335 44.9923C179.561 45.3977 179.674 45.8596 179.674 46.378C179.674 46.9031 179.561 47.3683 179.335 47.7738C179.109 48.1792 178.796 48.4949 178.397 48.7209C178.005 48.9402 177.56 49.0498 177.062 49.0498C176.636 49.0498 176.251 48.9634 175.905 48.7906C175.566 48.6112 175.287 48.352 175.068 48.013V50.9341H174.36V43.756H175.038V44.7929C175.25 44.4473 175.53 44.1814 175.875 43.9953C176.227 43.8092 176.623 43.7162 177.062 43.7162ZM177.012 48.4218C177.377 48.4218 177.71 48.3387 178.009 48.1725C178.308 47.9997 178.54 47.7571 178.707 47.4448C178.879 47.1324 178.966 46.7768 178.966 46.378C178.966 45.9792 178.879 45.627 178.707 45.3213C178.54 45.0089 178.308 44.7663 178.009 44.5935C177.71 44.4207 177.377 44.3343 177.012 44.3343C176.64 44.3343 176.304 44.4207 176.005 44.5935C175.712 44.7663 175.48 45.0089 175.307 45.3213C175.141 45.627 175.058 45.9792 175.058 46.378C175.058 46.7768 175.141 47.1324 175.307 47.4448C175.48 47.7571 175.712 47.9997 176.005 48.1725C176.304 48.3387 176.64 48.4218 177.012 48.4218ZM184.688 44.3841H182.704V49H181.997V44.3841H180.013V43.756H184.688V44.3841ZM187.516 43.7162C188.201 43.7162 188.726 43.889 189.091 44.2346C189.457 44.5735 189.64 45.0787 189.64 45.7499V49H188.962V48.1825C188.802 48.455 188.566 48.6677 188.254 48.8205C187.948 48.9734 187.583 49.0498 187.157 49.0498C186.573 49.0498 186.107 48.9103 185.762 48.6311C185.416 48.352 185.243 47.9831 185.243 47.5245C185.243 47.0792 185.403 46.7203 185.722 46.4478C186.047 46.1753 186.563 46.0391 187.267 46.0391H188.932V45.72C188.932 45.2681 188.806 44.9258 188.553 44.6932C188.301 44.4539 187.932 44.3343 187.447 44.3343C187.114 44.3343 186.795 44.3908 186.489 44.5038C186.184 44.6101 185.921 44.7596 185.702 44.9524L185.383 44.424C185.649 44.198 185.968 44.0252 186.34 43.9056C186.712 43.7793 187.104 43.7162 187.516 43.7162ZM187.267 48.4916C187.666 48.4916 188.008 48.4018 188.294 48.2224C188.58 48.0363 188.792 47.7704 188.932 47.4248V46.5674H187.287C186.39 46.5674 185.941 46.8798 185.941 47.5046C185.941 47.8103 186.057 48.0529 186.29 48.2323C186.523 48.4052 186.848 48.4916 187.267 48.4916ZM195.811 43.756V49H195.103V44.3841H192.591L192.521 45.6802C192.468 46.7702 192.342 47.6076 192.142 48.1925C191.943 48.7773 191.587 49.0698 191.076 49.0698C190.936 49.0698 190.766 49.0432 190.567 48.99L190.617 48.3819C190.737 48.4085 190.82 48.4218 190.866 48.4218C191.139 48.4218 191.345 48.2955 191.484 48.0429C191.624 47.7904 191.717 47.478 191.763 47.1058C191.81 46.7336 191.85 46.2418 191.883 45.6303L191.973 43.756H195.811Z" fill="black"/>
<g filter="url(#filter3_d_3_2)">
<line x1="166.211" y1="245.97" x2="90.157" y2="297.252" stroke="white" stroke-width="1.39286"/>
</g>
<g filter="url(#filter4_d_3_2)">
<circle cx="84.8928" cy="296.233" r="13.2321" fill="white"/>
<circle cx="84.8928" cy="296.233" r="12.1295" stroke="#0074C9" stroke-width="2.20536"/>
</g>
<g filter="url(#filter5_d_3_2)">
<rect x="128.768" y="234.25" width="183.509" height="43.1786" rx="21.5893" fill="white"/>
</g>
<g clip-path="url(#clip1_3_2)">
<path d="M157.856 253.458C157.504 253.458 157.16 253.562 156.867 253.758C156.574 253.953 156.346 254.231 156.211 254.557C156.076 254.882 156.041 255.24 156.11 255.585C156.179 255.93 156.348 256.248 156.597 256.497C156.846 256.746 157.163 256.915 157.509 256.984C157.854 257.053 158.212 257.017 158.537 256.883C158.863 256.748 159.141 256.52 159.336 256.227C159.532 255.934 159.636 255.59 159.636 255.238C159.636 254.766 159.449 254.313 159.115 253.979C158.781 253.645 158.328 253.458 157.856 253.458ZM157.856 256.128C157.68 256.128 157.508 256.076 157.361 255.978C157.215 255.88 157.101 255.741 157.034 255.578C156.966 255.416 156.949 255.237 156.983 255.064C157.017 254.891 157.102 254.733 157.227 254.608C157.351 254.484 157.51 254.399 157.682 254.365C157.855 254.33 158.034 254.348 158.197 254.415C158.359 254.483 158.498 254.597 158.596 254.743C158.694 254.89 158.746 255.062 158.746 255.238C158.746 255.474 158.652 255.7 158.485 255.867C158.318 256.034 158.092 256.128 157.856 256.128Z" fill="#0074C9"/>
<path d="M157.856 261.469C157.481 261.471 157.111 261.383 156.778 261.213C156.444 261.042 156.156 260.795 155.937 260.49C154.241 258.15 153.381 256.391 153.381 255.262C153.381 254.075 153.852 252.937 154.692 252.097C155.531 251.258 156.669 250.787 157.856 250.787C159.043 250.787 160.181 251.258 161.02 252.097C161.86 252.937 162.331 254.075 162.331 255.262C162.331 256.391 161.471 258.15 159.775 260.49C159.556 260.795 159.268 261.042 158.934 261.213C158.601 261.383 158.231 261.471 157.856 261.469V261.469ZM157.856 251.758C156.927 251.759 156.036 252.129 155.379 252.786C154.722 253.443 154.353 254.334 154.352 255.263C154.352 256.157 155.194 257.812 156.723 259.921C156.853 260.1 157.023 260.245 157.22 260.345C157.417 260.446 157.635 260.498 157.856 260.498C158.077 260.498 158.295 260.446 158.492 260.345C158.689 260.245 158.859 260.1 158.989 259.921C160.518 257.812 161.36 256.157 161.36 255.263C161.359 254.334 160.99 253.443 160.333 252.786C159.676 252.129 158.785 251.759 157.856 251.758V251.758Z" fill="#0074C9"/>
</g>
<path d="M172.22 254.119L169.598 259.991C169.385 260.483 169.14 260.832 168.86 261.038C168.581 261.244 168.246 261.347 167.853 261.347C167.601 261.347 167.365 261.307 167.146 261.228C166.926 261.148 166.737 261.028 166.577 260.869L166.906 260.34C167.172 260.606 167.491 260.739 167.863 260.739C168.103 260.739 168.305 260.673 168.472 260.54C168.644 260.407 168.804 260.181 168.95 259.862L169.179 259.353L166.837 254.119H167.574L169.548 258.576L171.522 254.119H172.22ZM177.376 254.119V259.363H176.668V254.747H174.156L174.086 256.043C174.033 257.133 173.907 257.971 173.707 258.556C173.508 259.141 173.152 259.433 172.641 259.433C172.501 259.433 172.332 259.406 172.132 259.353L172.182 258.745C172.302 258.772 172.385 258.785 172.431 258.785C172.704 258.785 172.91 258.659 173.049 258.406C173.189 258.154 173.282 257.841 173.329 257.469C173.375 257.097 173.415 256.605 173.448 255.994L173.538 254.119H177.376ZM179.438 259.413C179.292 259.413 179.166 259.36 179.059 259.254C178.96 259.147 178.91 259.018 178.91 258.865C178.91 258.712 178.96 258.586 179.059 258.486C179.166 258.38 179.292 258.326 179.438 258.326C179.584 258.326 179.711 258.38 179.817 258.486C179.923 258.586 179.977 258.712 179.977 258.865C179.977 259.018 179.923 259.147 179.817 259.254C179.711 259.36 179.584 259.413 179.438 259.413ZM187.33 259.423C186.639 259.423 186.014 259.27 185.456 258.965C184.904 258.659 184.469 258.237 184.15 257.698C183.838 257.153 183.682 256.545 183.682 255.874C183.682 255.203 183.838 254.598 184.15 254.06C184.469 253.515 184.908 253.089 185.466 252.783C186.024 252.478 186.649 252.325 187.34 252.325C187.859 252.325 188.337 252.411 188.776 252.584C189.215 252.757 189.587 253.009 189.893 253.342L189.424 253.81C188.879 253.259 188.191 252.983 187.36 252.983C186.809 252.983 186.307 253.109 185.855 253.362C185.403 253.614 185.047 253.96 184.788 254.398C184.536 254.837 184.409 255.329 184.409 255.874C184.409 256.419 184.536 256.911 184.788 257.349C185.047 257.788 185.403 258.134 185.855 258.386C186.307 258.639 186.809 258.765 187.36 258.765C188.198 258.765 188.886 258.486 189.424 257.928L189.893 258.396C189.587 258.729 189.211 258.984 188.766 259.164C188.327 259.337 187.849 259.423 187.33 259.423ZM194.789 254.747H192.805V259.363H192.098V254.747H190.114V254.119H194.789V254.747ZM197.617 254.079C198.302 254.079 198.827 254.252 199.192 254.598C199.558 254.937 199.741 255.442 199.741 256.113V259.363H199.063V258.546C198.903 258.818 198.667 259.031 198.355 259.184C198.049 259.337 197.684 259.413 197.258 259.413C196.673 259.413 196.208 259.274 195.863 258.994C195.517 258.715 195.344 258.346 195.344 257.888C195.344 257.442 195.504 257.084 195.823 256.811C196.148 256.539 196.663 256.402 197.368 256.402H199.033V256.083C199.033 255.631 198.907 255.289 198.654 255.056C198.401 254.817 198.033 254.698 197.547 254.698C197.215 254.698 196.896 254.754 196.59 254.867C196.285 254.973 196.022 255.123 195.803 255.316L195.484 254.787C195.75 254.561 196.069 254.388 196.441 254.269C196.813 254.143 197.205 254.079 197.617 254.079ZM197.368 258.855C197.767 258.855 198.109 258.765 198.395 258.586C198.681 258.4 198.893 258.134 199.033 257.788V256.931H197.388C196.491 256.931 196.042 257.243 196.042 257.868C196.042 258.174 196.158 258.416 196.391 258.596C196.624 258.768 196.949 258.855 197.368 258.855ZM201.625 254.119H202.333V256.442H205.633V254.119H206.341V259.363H205.633V257.05H202.333V259.363H201.625V254.119ZM208.352 254.119H209.06V258.287L212.56 254.119H213.188V259.363H212.48V255.196L208.991 259.363H208.352V254.119ZM217.41 259.413C216.891 259.413 216.426 259.3 216.014 259.074C215.608 258.848 215.289 258.532 215.057 258.127C214.824 257.715 214.708 257.253 214.708 256.741C214.708 256.23 214.824 255.771 215.057 255.366C215.289 254.96 215.608 254.644 216.014 254.418C216.426 254.192 216.891 254.079 217.41 254.079C217.861 254.079 218.264 254.169 218.616 254.349C218.975 254.521 219.257 254.777 219.463 255.116L218.935 255.475C218.762 255.216 218.543 255.023 218.277 254.897C218.011 254.764 217.722 254.698 217.41 254.698C217.031 254.698 216.688 254.784 216.383 254.957C216.084 255.123 215.848 255.362 215.675 255.675C215.509 255.987 215.426 256.343 215.426 256.741C215.426 257.147 215.509 257.506 215.675 257.818C215.848 258.124 216.084 258.363 216.383 258.536C216.688 258.702 217.031 258.785 217.41 258.785C217.722 258.785 218.011 258.722 218.277 258.596C218.543 258.469 218.762 258.277 218.935 258.017L219.463 258.376C219.257 258.715 218.975 258.974 218.616 259.154C218.257 259.327 217.855 259.413 217.41 259.413ZM224.945 254.119V259.363H224.238V254.747H221.725L221.656 256.043C221.602 257.133 221.476 257.971 221.277 258.556C221.077 259.141 220.722 259.433 220.21 259.433C220.07 259.433 219.901 259.406 219.702 259.353L219.751 258.745C219.871 258.772 219.954 258.785 220.001 258.785C220.273 258.785 220.479 258.659 220.619 258.406C220.758 258.154 220.851 257.841 220.898 257.469C220.944 257.097 220.984 256.605 221.017 255.994L221.107 254.119H224.945ZM228.762 254.079C229.447 254.079 229.972 254.252 230.337 254.598C230.703 254.937 230.886 255.442 230.886 256.113V259.363H230.208V258.546C230.048 258.818 229.812 259.031 229.5 259.184C229.194 259.337 228.829 259.413 228.403 259.413C227.818 259.413 227.353 259.274 227.008 258.994C226.662 258.715 226.489 258.346 226.489 257.888C226.489 257.442 226.649 257.084 226.968 256.811C227.293 256.539 227.808 256.402 228.513 256.402H230.178V256.083C230.178 255.631 230.052 255.289 229.799 255.056C229.546 254.817 229.178 254.698 228.692 254.698C228.36 254.698 228.041 254.754 227.735 254.867C227.43 254.973 227.167 255.123 226.948 255.316L226.629 254.787C226.895 254.561 227.214 254.388 227.586 254.269C227.958 254.143 228.35 254.079 228.762 254.079ZM228.513 258.855C228.912 258.855 229.254 258.765 229.54 258.586C229.826 258.4 230.038 258.134 230.178 257.788V256.931H228.533C227.636 256.931 227.187 257.243 227.187 257.868C227.187 258.174 227.303 258.416 227.536 258.596C227.769 258.768 228.094 258.855 228.513 258.855ZM236.11 256.652C236.821 256.818 237.177 257.246 237.177 257.938C237.177 258.396 237.007 258.748 236.668 258.994C236.329 259.24 235.824 259.363 235.153 259.363H232.77V254.119H235.083C235.681 254.119 236.15 254.236 236.489 254.468C236.828 254.701 236.997 255.033 236.997 255.465C236.997 255.751 236.917 255.997 236.758 256.203C236.605 256.402 236.389 256.552 236.11 256.652ZM233.458 256.452H235.033C235.438 256.452 235.748 256.376 235.96 256.223C236.18 256.07 236.289 255.847 236.289 255.555C236.289 255.262 236.18 255.043 235.96 254.897C235.748 254.751 235.438 254.678 235.033 254.678H233.458V256.452ZM235.123 258.805C235.575 258.805 235.914 258.732 236.14 258.586C236.366 258.439 236.479 258.21 236.479 257.898C236.479 257.585 236.376 257.356 236.17 257.21C235.964 257.057 235.638 256.981 235.193 256.981H233.458V258.805H235.123ZM241.029 259.413C240.51 259.413 240.045 259.3 239.633 259.074C239.228 258.848 238.909 258.532 238.676 258.127C238.443 257.715 238.327 257.253 238.327 256.741C238.327 256.23 238.443 255.771 238.676 255.366C238.909 254.96 239.228 254.644 239.633 254.418C240.045 254.192 240.51 254.079 241.029 254.079C241.481 254.079 241.883 254.169 242.235 254.349C242.594 254.521 242.876 254.777 243.082 255.116L242.554 255.475C242.381 255.216 242.162 255.023 241.896 254.897C241.63 254.764 241.341 254.698 241.029 254.698C240.65 254.698 240.308 254.784 240.002 254.957C239.703 255.123 239.467 255.362 239.294 255.675C239.128 255.987 239.045 256.343 239.045 256.741C239.045 257.147 239.128 257.506 239.294 257.818C239.467 258.124 239.703 258.363 240.002 258.536C240.308 258.702 240.65 258.785 241.029 258.785C241.341 258.785 241.63 258.722 241.896 258.596C242.162 258.469 242.381 258.277 242.554 258.017L243.082 258.376C242.876 258.715 242.594 258.974 242.235 259.154C241.876 259.327 241.474 259.413 241.029 259.413ZM246.357 257.03H245.161V259.363H244.453V254.119H245.161V256.422H246.367L248.211 254.119H248.979L246.915 256.662L249.129 259.363H248.291L246.357 257.03ZM252.224 259.413C251.719 259.413 251.264 259.3 250.858 259.074C250.453 258.842 250.134 258.523 249.901 258.117C249.669 257.712 249.552 257.253 249.552 256.741C249.552 256.23 249.669 255.771 249.901 255.366C250.134 254.96 250.453 254.644 250.858 254.418C251.264 254.192 251.719 254.079 252.224 254.079C252.729 254.079 253.185 254.192 253.59 254.418C253.995 254.644 254.311 254.96 254.537 255.366C254.77 255.771 254.886 256.23 254.886 256.741C254.886 257.253 254.77 257.712 254.537 258.117C254.311 258.523 253.995 258.842 253.59 259.074C253.185 259.3 252.729 259.413 252.224 259.413ZM252.224 258.785C252.596 258.785 252.929 258.702 253.221 258.536C253.52 258.363 253.753 258.12 253.919 257.808C254.085 257.496 254.168 257.14 254.168 256.741C254.168 256.343 254.085 255.987 253.919 255.675C253.753 255.362 253.52 255.123 253.221 254.957C252.929 254.784 252.596 254.698 252.224 254.698C251.852 254.698 251.516 254.784 251.217 254.957C250.925 255.123 250.692 255.362 250.519 255.675C250.353 255.987 250.27 256.343 250.27 256.741C250.27 257.14 250.353 257.496 250.519 257.808C250.692 258.12 250.925 258.363 251.217 258.536C251.516 258.702 251.852 258.785 252.224 258.785ZM260.108 254.747H257.107V259.363H256.399V254.119H260.108V254.747ZM263.05 259.413C262.545 259.413 262.09 259.3 261.685 259.074C261.279 258.842 260.96 258.523 260.728 258.117C260.495 257.712 260.379 257.253 260.379 256.741C260.379 256.23 260.495 255.771 260.728 255.366C260.96 254.96 261.279 254.644 261.685 254.418C262.09 254.192 262.545 254.079 263.05 254.079C263.556 254.079 264.011 254.192 264.416 254.418C264.822 254.644 265.137 254.96 265.363 255.366C265.596 255.771 265.712 256.23 265.712 256.741C265.712 257.253 265.596 257.712 265.363 258.117C265.137 258.523 264.822 258.842 264.416 259.074C264.011 259.3 263.556 259.413 263.05 259.413ZM263.05 258.785C263.423 258.785 263.755 258.702 264.047 258.536C264.347 258.363 264.579 258.12 264.745 257.808C264.911 257.496 264.995 257.14 264.995 256.741C264.995 256.343 264.911 255.987 264.745 255.675C264.579 255.362 264.347 255.123 264.047 254.957C263.755 254.784 263.423 254.698 263.05 254.698C262.678 254.698 262.343 254.784 262.044 254.957C261.751 255.123 261.518 255.362 261.346 255.675C261.18 255.987 261.096 256.343 261.096 256.741C261.096 257.14 261.18 257.496 261.346 257.808C261.518 258.12 261.751 258.363 262.044 258.536C262.343 258.702 262.678 258.785 263.05 258.785ZM271.28 252.385V259.363H270.562V253.023H268.917V252.385H271.28ZM275.839 255.186C276.298 255.186 276.703 255.272 277.056 255.445C277.414 255.618 277.694 255.864 277.893 256.183C278.092 256.495 278.192 256.861 278.192 257.28C278.192 257.705 278.089 258.081 277.883 258.406C277.677 258.732 277.391 258.984 277.026 259.164C276.667 259.337 276.261 259.423 275.809 259.423C274.886 259.423 274.178 259.121 273.686 258.516C273.194 257.904 272.948 257.044 272.948 255.934C272.948 255.156 273.081 254.498 273.347 253.96C273.613 253.421 273.985 253.016 274.463 252.744C274.942 252.464 275.5 252.325 276.138 252.325C276.83 252.325 277.381 252.451 277.793 252.704L277.504 253.282C277.172 253.063 276.72 252.953 276.148 252.953C275.377 252.953 274.773 253.199 274.334 253.691C273.895 254.176 273.676 254.884 273.676 255.814C273.676 255.98 273.686 256.17 273.706 256.382C273.879 256.004 274.154 255.711 274.533 255.505C274.912 255.292 275.347 255.186 275.839 255.186ZM275.779 258.815C276.285 258.815 276.693 258.679 277.006 258.406C277.325 258.127 277.484 257.758 277.484 257.3C277.484 256.841 277.325 256.475 277.006 256.203C276.693 255.93 276.268 255.794 275.73 255.794C275.377 255.794 275.065 255.861 274.792 255.994C274.527 256.127 274.317 256.309 274.164 256.542C274.012 256.775 273.935 257.034 273.935 257.32C273.935 257.585 274.005 257.831 274.144 258.057C274.291 258.283 274.503 258.466 274.782 258.606C275.062 258.745 275.394 258.815 275.779 258.815ZM281.643 250.969H282.291L279.001 260.36H278.353L281.643 250.969ZM284.696 252.385V259.363H283.978V253.023H282.333V252.385H284.696Z" fill="black"/>
<defs>
<filter id="filter0_d_3_2" x="175.89" y="44.8218" width="80.3235" height="73.4646" filterUnits="userSpaceOnUse" color-interpolation-filters="sRGB">
<feFlood flood-opacity="0" result="BackgroundImageFix"/>
<feColorMatrix in="SourceAlpha" type="matrix" values="0 0 0 0 0 0 0 0 0 0 0 0 0 0 0 0 0 0 127 0" result="hardAlpha"/>
<feOffset dy="5.57143"/>
<feGaussianBlur stdDeviation="2.78571"/>
<feColorMatrix type="matrix" values="0 0 0 0 0 0 0 0 0 0 0 0 0 0 0 0 0 0 0.25 0"/>
<feBlend mode="normal" in2="BackgroundImageFix" result="effect1_dropShadow_3_2"/>
<feBlend mode="normal" in="SourceGraphic" in2="effect1_dropShadow_3_2" result="shape"/>
</filter>
<filter id="filter1_d_3_2" x="226.5" y="94.9648" width="44.1072" height="44.1072" filterUnits="userSpaceOnUse" color-interpolation-filters="sRGB">
<feFlood flood-opacity="0" result="BackgroundImageFix"/>
<feColorMatrix in="SourceAlpha" type="matrix" values="0 0 0 0 0 0 0 0 0 0 0 0 0 0 0 0 0 0 127 0" result="hardAlpha"/>
<feOffset dy="8.82143"/>
<feGaussianBlur stdDeviation="4.41071"/>
<feColorMatrix type="matrix" values="0 0 0 0 0 0 0 0 0 0 0 0 0 0 0 0 0 0 0.25 0"/>
<feBlend mode="normal" in2="BackgroundImageFix" result="effect1_dropShadow_3_2"/>
<feBlend mode="normal" in="SourceGraphic" in2="effect1_dropShadow_3_2" result="shape"/>
</filter>
<filter id="filter2_d_3_2" x="0.972516" y="0.180496" width="248.277" height="107.947" filterUnits="userSpaceOnUse" color-interpolation-filters="sRGB">
<feFlood flood-opacity="0" result="BackgroundImageFix"/>
<feColorMatrix in="SourceAlpha" type="matrix" values="0 0 0 0 0 0 0 0 0 0 0 0 0 0 0 0 0 0 127 0" result="hardAlpha"/>
<feMorphology radius="4.31786" operator="dilate" in="SourceAlpha" result="effect1_dropShadow_3_2"/>
<feOffset dy="8.63571"/>
<feGaussianBlur stdDeviation="14.033"/>
<feComposite in2="hardAlpha" operator="out"/>
<feColorMatrix type="matrix" values="0 0 0 0 0 0 0 0 0 0.454902 0 0 0 0 0.788235 0 0 0 0.22 0"/>
<feBlend mode="normal" in2="BackgroundImageFix" result="effect1_dropShadow_3_2"/>
<feBlend mode="normal" in="SourceGraphic" in2="effect1_dropShadow_3_2" result="shape"/>
</filter>
<filter id="filter3_d_3_2" x="84.1961" y="245.393" width="87.9759" height="63.5789" filterUnits="userSpaceOnUse" color-interpolation-filters="sRGB">
<feFlood flood-opacity="0" result="BackgroundImageFix"/>
<feColorMatrix in="SourceAlpha" type="matrix" values="0 0 0 0 0 0 0 0 0 0 0 0 0 0 0 0 0 0 127 0" result="hardAlpha"/>
<feOffset dy="5.57143"/>
<feGaussianBlur stdDeviation="2.78571"/>
<feColorMatrix type="matrix" values="0 0 0 0 0 0 0 0 0 0 0 0 0 0 0 0 0 0 0.25 0"/>
<feBlend mode="normal" in2="BackgroundImageFix" result="effect1_dropShadow_3_2"/>
<feBlend mode="normal" in="SourceGraphic" in2="effect1_dropShadow_3_2" result="shape"/>
</filter>
<filter id="filter4_d_3_2" x="62.8392" y="283" width="44.1072" height="44.1072" filterUnits="userSpaceOnUse" color-interpolation-filters="sRGB">
<feFlood flood-opacity="0" result="BackgroundImageFix"/>
<feColorMatrix in="SourceAlpha" type="matrix" values="0 0 0 0 0 0 0 0 0 0 0 0 0 0 0 0 0 0 127 0" result="hardAlpha"/>
<feOffset dy="8.82143"/>
<feGaussianBlur stdDeviation="4.41071"/>
<feColorMatrix type="matrix" values="0 0 0 0 0 0 0 0 0 0 0 0 0 0 0 0 0 0 0.25 0"/>
<feBlend mode="normal" in2="BackgroundImageFix" result="effect1_dropShadow_3_2"/>
<feBlend mode="normal" in="SourceGraphic" in2="effect1_dropShadow_3_2" result="shape"/>
</filter>
<filter id="filter5_d_3_2" x="96.3836" y="210.502" width="248.277" height="107.947" filterUnits="userSpaceOnUse" color-interpolation-filters="sRGB">
<feFlood flood-opacity="0" result="BackgroundImageFix"/>
<feColorMatrix in="SourceAlpha" type="matrix" values="0 0 0 0 0 0 0 0 0 0 0 0 0 0 0 0 0 0 127 0" result="hardAlpha"/>
<feMorphology radius="4.31786" operator="dilate" in="SourceAlpha" result="effect1_dropShadow_3_2"/>
<feOffset dy="8.63571"/>
<feGaussianBlur stdDeviation="14.033"/>
<feComposite in2="hardAlpha" operator="out"/>
<feColorMatrix type="matrix" values="0 0 0 0 0 0 0 0 0 0.454902 0 0 0 0 0.788235 0 0 0 0.22 0"/>
<feBlend mode="normal" in2="BackgroundImageFix" result="effect1_dropShadow_3_2"/>
<feBlend mode="normal" in="SourceGraphic" in2="effect1_dropShadow_3_2" result="shape"/>
</filter>
<clipPath id="clip0_3_2">
<rect width="10.6816" height="10.6816" fill="white" transform="translate(57.1045 40.4648)"/>
</clipPath>
<clipPath id="clip1_3_2">
<rect width="10.6816" height="10.6816" fill="white" transform="translate(152.515 250.787)"/>
</clipPath>
</defs>
</svg>
