<svg width="344" height="344" viewBox="0 0 344 344" fill="none" xmlns="http://www.w3.org/2000/svg">
<g clip-path="url(#clip0_0_1)">
<path d="M205.903 120.432L183.438 131.184C166.319 139.377 158.212 158.895 163.773 176.497C156.76 182.622 154.359 192.903 158.57 201.702L162.702 210.335L158.295 212.445C155.267 213.894 153.988 217.523 155.436 220.55C156.885 223.578 160.514 224.858 163.542 223.409L167.95 221.299L190.226 267.846C195.29 278.426 208.016 282.914 218.596 277.85C229.175 272.787 233.663 260.061 228.6 249.481L206.323 202.934L207.743 202.255C210.771 200.806 212.05 197.176 210.601 194.149C209.152 191.122 205.523 189.842 202.496 191.291L201.076 191.97L196.944 183.337C194.492 178.213 190.188 174.35 184.827 172.46C181.609 171.325 178.243 170.99 174.957 171.429C172.035 159.891 177.545 147.479 188.685 142.148L211.149 131.396C214.177 129.947 215.457 126.318 214.008 123.291C212.559 120.264 208.93 118.983 205.903 120.432ZM217.636 254.728C219.806 259.262 217.883 264.716 213.348 266.886C208.814 269.056 203.36 267.133 201.19 262.599L178.913 216.052L195.359 208.181L217.636 254.728ZM185.98 188.584L190.112 197.218L173.666 205.088L169.534 196.454C167.364 191.92 169.288 186.466 173.822 184.296C176.016 183.246 178.489 183.114 180.785 183.923C183.084 184.734 184.93 186.389 185.98 188.584Z" fill="white" opacity="0.07"/>
<path d="M223.171 112.168L222.074 112.693C219.047 114.142 217.767 117.771 219.216 120.799C220.665 123.826 224.294 125.106 227.322 123.657L228.418 123.132C231.446 121.683 232.725 118.054 231.276 115.027C229.828 111.999 226.199 110.719 223.171 112.168Z" fill="white" opacity="0.07"/>
<path d="M216.475 46.7647L212.54 38.5413C209.332 31.8396 201.269 28.9986 194.564 32.2071L42.3589 105.051C35.6572 108.258 32.8149 116.319 36.0221 123.02L39.9129 131.15L20.704 140.343C17.6763 141.792 16.3969 145.422 17.8454 148.448C19.294 151.475 22.9235 152.756 25.9511 151.307L45.1596 142.114L49.0478 150.239C52.2563 156.943 60.3188 159.788 67.0202 156.581L219.226 83.7372C225.931 80.5285 228.774 72.4635 225.566 65.7594L221.738 57.7616C233.588 53.5557 246.984 58.9028 252.531 70.4926C255.403 76.4944 255.766 83.2575 253.552 89.5352C251.338 95.813 246.813 100.853 240.812 103.725L238.805 104.685C235.778 106.134 234.498 109.763 235.947 112.791C237.396 115.818 241.025 117.098 244.052 115.649L246.059 114.689C254.989 110.415 261.721 102.917 265.015 93.5776C268.308 84.2381 267.769 74.1756 263.495 65.2455C255.053 47.6076 234.394 39.6957 216.475 46.7647ZM213.979 72.7729L61.7732 145.617C61.1177 145.93 60.3271 145.65 60.0119 144.991L46.9859 117.773C46.6722 117.118 46.9506 116.328 47.6061 116.015L199.812 43.1709C200.471 42.8554 201.262 43.133 201.576 43.7885L214.602 71.0061C214.917 71.6653 214.637 72.4577 213.979 72.7729Z" fill="white" opacity="0.07"/>
</g>
<defs>
<clipPath id="clip0_0_1">
<rect width="257.499" height="257.499" fill="white" opacity="0.07" transform="translate(0 111.161) rotate(-25.5752)"/>
</clipPath>
</defs>
</svg>
