<svg width="54" height="54" viewBox="0 0 54 54" fill="none" xmlns="http://www.w3.org/2000/svg">
<circle cx="26.8515" cy="26.8727" r="26.8085" fill="white"/>
<g clip-path="url(#clip0_233_3090)">
<path d="M14.285 31.0616C11.9744 31.0616 10.0962 32.9416 10.0962 35.2504C10.0962 37.5593 11.9744 39.4393 14.285 39.4393C16.5956 39.4393 18.4738 37.5594 18.4738 35.2505C18.4738 32.9417 16.5956 31.0616 14.285 31.0616ZM14.285 37.7638C12.8993 37.7638 11.7717 36.6362 11.7717 35.2505C11.7717 33.8648 12.8993 32.7372 14.285 32.7372C15.6707 32.7372 16.7983 33.8648 16.7983 35.2505C16.7983 36.6362 15.6707 37.7638 14.285 37.7638Z" fill="#F83A16"/>
<path d="M39.4168 31.0616C37.1062 31.0616 35.228 32.9416 35.228 35.2504C35.228 37.5593 37.1062 39.4393 39.4168 39.4393C41.7274 39.4393 43.6056 37.5594 43.6056 35.2505C43.6056 32.9417 41.7274 31.0616 39.4168 31.0616ZM39.4168 37.7638C38.0311 37.7638 36.9035 36.6362 36.9035 35.2505C36.9035 33.8648 38.0311 32.7372 39.4168 32.7372C40.8025 32.7372 41.9301 33.8648 41.9301 35.2505C41.9301 36.6362 40.8025 37.7638 39.4168 37.7638Z" fill="#F83A16"/>
<path d="M32.7145 27.7103H31.039C30.5765 27.7103 30.2012 28.0857 30.2012 28.5481C30.2012 29.0106 30.5764 29.3858 31.0389 29.3858H32.7144C33.1768 29.3858 33.5522 29.0105 33.5522 28.548C33.5522 28.0856 33.1769 27.7103 32.7145 27.7103Z" fill="#F83A16"/>
<path d="M45.0535 24.9039C43.837 24.5989 42.7278 23.9706 41.8449 23.0859L34.2899 15.5326C33.4973 14.7418 32.4468 14.3062 31.3276 14.3062H10.9329C8.62244 14.3062 6.74414 16.1861 6.74414 18.495V31.8992C6.74414 34.2081 8.62244 36.088 10.9329 36.088C11.3954 36.088 11.7707 35.7127 11.7707 35.2503C11.7707 34.7878 11.3954 34.4125 10.9329 34.4125C9.54725 34.4125 8.41965 33.2849 8.41965 31.8992V18.495C8.41965 17.1093 9.54725 15.9817 10.9329 15.9817H31.3275C31.9876 15.9817 32.6361 16.2497 33.1035 16.7189L40.6585 24.2722C41.756 25.3731 43.1366 26.1538 44.6462 26.5308C45.0199 26.6247 45.2812 26.9581 45.2812 27.3435V31.8992C45.2812 33.2849 44.1536 34.4125 42.7679 34.4125C42.3055 34.4125 41.9302 34.7879 41.9302 35.2503C41.9302 35.7128 42.3055 36.0881 42.7679 36.0881C45.0786 36.088 46.9569 34.2081 46.9569 31.8992V27.3435C46.9569 26.1874 46.1728 25.1854 45.0535 24.9039Z" fill="#F83A16"/>
<path d="M36.066 34.4122H17.6352C17.1727 34.4122 16.7974 34.7876 16.7974 35.25C16.7974 35.7125 17.1727 36.0878 17.6352 36.0878H36.066C36.5285 36.0878 36.9038 35.7125 36.9038 35.25C36.9038 34.7876 36.5284 34.4122 36.066 34.4122Z" fill="#F83A16"/>
<path d="M37.7411 24.3596H28.5256V18.4953C28.5256 18.0328 28.1503 17.6575 27.6878 17.6575C27.2254 17.6575 26.8501 18.0328 26.8501 18.4953V25.1974C26.8501 25.6598 27.2254 26.0352 27.6879 26.0352H37.7411C38.2035 26.0352 38.5789 25.6598 38.5789 25.1974C38.5789 24.7349 38.2035 24.3596 37.7411 24.3596Z" fill="#F83A16"/>
<path d="M24.338 24.3596H20.1492V18.4953C20.1492 18.0328 19.7739 17.6575 19.3114 17.6575C18.849 17.6575 18.4736 18.0328 18.4736 18.4953V25.1974C18.4736 25.6598 18.849 26.0352 19.3114 26.0352H24.338C24.8005 26.0352 25.1758 25.6598 25.1758 25.1974C25.1758 24.7349 24.8005 24.3596 24.338 24.3596Z" fill="#F83A16"/>
<path d="M15.9606 24.3596H11.7718V18.4953C11.7718 18.0328 11.3964 17.6575 10.934 17.6575C10.4715 17.6575 10.0962 18.0328 10.0962 18.4953V25.1974C10.0962 25.6598 10.4715 26.0352 10.934 26.0352H15.9606C16.423 26.0352 16.7984 25.6598 16.7984 25.1974C16.7984 24.7349 16.423 24.3596 15.9606 24.3596Z" fill="#F83A16"/>
</g>
<defs>
<clipPath id="clip0_233_3090">
<rect width="40.2128" height="40.2128" fill="white" transform="translate(6.74512 6.76624)"/>
</clipPath>
</defs>
</svg>
