<svg width="54" height="55" viewBox="0 0 54 55" fill="none" xmlns="http://www.w3.org/2000/svg">
<circle cx="26.8515" cy="27.4474" r="26.8085" fill="white"/>
<g clip-path="url(#clip0_233_3076)">
<path d="M35.535 40.7724C33.1217 40.7724 31.1641 38.8148 31.1641 36.4015C31.1641 33.9884 33.1217 32.0305 35.535 32.0305C37.9481 32.0305 39.906 33.9884 39.906 36.4015C39.906 38.8148 37.9481 40.7724 35.535 40.7724ZM35.535 33.4877C33.9322 33.4877 32.621 34.7989 32.621 36.4015C32.621 38.0043 33.9322 39.3155 35.535 39.3155C37.1376 39.3155 38.4488 38.0043 38.4488 36.4015C38.4488 34.7989 37.1376 33.4877 35.535 33.4877Z" fill="#F83A16"/>
<path d="M19.5082 40.7724C17.0951 40.7724 15.1372 38.8148 15.1372 36.4015C15.1372 33.9884 17.0951 32.0305 19.5082 32.0305C21.9212 32.0305 23.8791 33.9884 23.8791 36.4015C23.8791 38.8148 21.9212 40.7724 19.5082 40.7724ZM19.5082 33.4877C17.9056 33.4877 16.5941 34.7989 16.5941 36.4015C16.5941 38.0043 17.9056 39.3155 19.5082 39.3155C21.1107 39.3155 22.4222 38.0043 22.4222 36.4015C22.4222 34.7989 21.1107 33.4877 19.5082 33.4877Z" fill="#F83A16"/>
<path d="M23.0776 36.4015H31.9652V37.8587H23.0776V36.4015Z" fill="#F83A16"/>
<path d="M11.4941 25.4741H43.5477V26.9312H11.4941V25.4741Z" fill="#F83A16"/>
<path d="M44.2768 37.8585H39.1045V36.4014H42.8197V18.1893C42.8197 17.3879 42.1642 16.7321 41.3628 16.7321H12.223V36.4014H15.9385V37.8585H10.7661V15.2752H41.3628C42.9653 15.2752 44.2768 16.5864 44.2768 18.1893V37.8585Z" fill="#F83A16"/>
<path d="M24.6836 11.4077L28.7659 15.49L27.7356 16.5203L23.6533 12.438L24.6836 11.4077Z" fill="#F83A16"/>
</g>
<defs>
<clipPath id="clip0_233_3076">
<rect width="33.5106" height="33.5106" fill="white" transform="translate(10.7666 11.3623)"/>
</clipPath>
</defs>
</svg>
