<svg width="54" height="55" viewBox="0 0 54 55" fill="none" xmlns="http://www.w3.org/2000/svg">
<circle cx="26.8515" cy="27.6602" r="26.8085" fill="white"/>
<path d="M41.5225 19.0521H12.1797C10.4518 19.0521 9.03809 20.4659 9.03809 22.1937V33.1266C9.03809 34.8545 10.4518 36.2682 12.1797 36.2682H12.5253C12.8394 37.8076 14.316 38.8129 15.8554 38.5302C16.578 38.4045 17.2063 37.9961 17.6147 37.3992C18.5258 38.6873 20.3165 38.97 21.6046 38.0275C22.2015 37.6191 22.5785 36.9594 22.7356 36.2682H35.5534C35.8675 37.8076 37.3441 38.8129 38.9149 38.5302C40.0459 38.3103 40.957 37.4306 41.1769 36.2682H41.5225C43.2504 36.2682 44.6641 34.8545 44.6641 33.1266V22.1937C44.6641 20.4659 43.2818 19.0521 41.5225 19.0521ZM10.1377 23.6075H24.3064C24.7776 23.6075 25.1546 23.9845 25.1546 24.4557V27.3774C25.1546 27.8487 24.7776 28.2257 24.3064 28.2257H10.1377V23.6075ZM15.3213 37.4935C14.3474 37.4935 13.562 36.708 13.562 35.7341C13.562 34.7602 14.3474 33.9748 15.3213 33.9748C16.2952 33.9748 17.0806 34.7602 17.0806 35.7341C17.0806 36.6766 16.2952 37.462 15.3213 37.4935ZM19.9395 37.4935C18.9656 37.4935 18.1802 36.708 18.1802 35.7341C18.1802 34.7602 18.9656 33.9748 19.9395 33.9748C20.9134 33.9748 21.6988 34.7602 21.6988 35.7341C21.6988 36.6766 20.9134 37.462 19.9395 37.4935ZM28.5476 35.1687V25.6495C28.5476 24.5185 29.4586 23.6075 30.5896 23.6075C31.7206 23.6075 32.6317 24.5185 32.6317 25.6495V35.1687H28.5476ZM38.3808 37.4935C37.4069 37.4935 36.6215 36.708 36.6215 35.7341C36.6215 34.7602 37.4069 33.9748 38.3808 33.9748C39.3547 33.9748 40.1402 34.7602 40.1402 35.7341C40.1087 36.6766 39.3233 37.462 38.3808 37.4935ZM41.5225 35.1687H41.1769C41.1769 35.1687 41.1141 34.9487 41.0826 34.7917C40.7056 33.6607 39.6061 32.8439 38.3808 32.8439C36.9671 32.8439 35.8047 33.912 35.5848 35.1372H33.7627V25.6495C33.7627 23.9216 32.3489 22.5079 30.621 22.5079C28.8931 22.5079 27.4794 23.9216 27.4794 25.6495V35.1687H22.767C22.4214 33.6607 21.2904 32.8753 19.9709 32.8753C19.0284 32.8753 18.1802 33.3465 17.6775 34.0377C17.1435 33.2837 16.2638 32.8753 15.3842 32.8753C13.9704 32.8753 12.808 33.912 12.5881 35.1687H12.2425C11.1116 35.1687 10.2005 34.2576 10.2005 33.1266V29.3566H24.3692C25.4374 29.3566 26.317 28.477 26.317 27.4088V24.4871C26.317 23.419 25.4374 22.5393 24.3692 22.5393H10.1377V22.2252C10.1377 21.0942 11.0487 20.1831 12.1797 20.1831H41.5225C42.6535 20.1831 43.5645 21.0942 43.5645 22.2252V22.5393H36.9043C35.8361 22.5393 34.9565 23.419 34.9565 24.4871V27.4088C34.9565 28.477 35.8361 29.3566 36.9043 29.3566H43.5959V33.1266C43.5645 34.2576 42.6535 35.1687 41.5225 35.1687ZM43.5959 28.2571H36.9043C36.433 28.2571 36.056 27.8801 36.056 27.4088V24.4871C36.056 24.0159 36.433 23.6389 36.9043 23.6389H43.5959V28.2571Z" fill="#F83A16"/>
</svg>
