<svg width="95" height="93" viewBox="0 0 95 93" fill="none" xmlns="http://www.w3.org/2000/svg">
<g filter="url(#filter0_b_233_3487)">
<ellipse cx="47.6089" cy="46.4314" rx="47.1079" ry="45.9236" fill="white" fill-opacity="0.2"/>
<path d="M94.2882 46.4314C94.2882 71.5474 73.3995 91.9265 47.6089 91.9265C21.8182 91.9265 0.929532 71.5474 0.929532 46.4314C0.929532 21.3154 21.8182 0.936367 47.6089 0.936367C73.3995 0.936367 94.2882 21.3154 94.2882 46.4314Z" stroke="url(#paint0_linear_233_3487)" stroke-opacity="0.4" stroke-width="0.85711"/>
</g>
<ellipse cx="48.1055" cy="46.5424" rx="22.8101" ry="22.2367" fill="white"/>
<g clip-path="url(#clip0_233_3487)">
<path d="M44.6625 52.8393C44.6113 52.8393 44.5619 52.8281 44.5163 52.8032C44.4175 52.7511 44.3564 52.6528 44.3564 52.5456V39.8623C44.3564 39.7545 44.4175 39.6567 44.5163 39.6046C44.615 39.5525 44.7341 39.5572 44.8273 39.6147L55.1758 45.9566C55.264 46.0105 55.3171 46.1035 55.3171 46.2048C55.3171 46.3061 55.2646 46.3991 55.1758 46.453L44.8273 52.7949C44.7779 52.8245 44.7205 52.8393 44.6625 52.8393ZM44.9686 40.3989V52.0101L54.4427 46.2036L44.9686 40.3989Z" fill="#0074C9"/>
<path d="M45.7226 58.6364C45.7041 58.6364 45.6849 58.6346 45.6664 58.6316C44.357 58.3965 43.095 57.9724 41.9183 57.37C40.7668 56.7807 39.7128 56.0314 38.7872 55.1435C37.8615 54.2556 37.0816 53.2433 36.4676 52.1381C35.84 51.0085 35.3981 49.7972 35.1532 48.5403C35.1223 48.3804 35.2315 48.227 35.3981 48.1974C35.5648 48.1678 35.7246 48.2726 35.7554 48.4325C36.7008 53.2807 40.7298 57.1479 45.7806 58.0553C45.9472 58.0849 46.0558 58.2384 46.0256 58.3983C45.9947 58.5381 45.867 58.6364 45.7226 58.6364Z" fill="#0074C9"/>
<path d="M50.4875 58.6361C50.3431 58.6361 50.2135 58.5383 50.1864 58.3962C50.1555 58.2362 50.2647 58.0828 50.4313 58.0532C55.4822 57.1458 59.5111 53.2785 60.4565 48.4304C60.4873 48.2705 60.6472 48.1663 60.8138 48.1953C60.9804 48.2243 61.089 48.3783 61.0588 48.5382C60.8138 49.7951 60.3719 51.0064 59.7444 52.136C59.1304 53.2412 58.3498 54.2529 57.4248 55.1414C56.4997 56.0293 55.4452 56.7803 54.2937 57.3697C53.1169 57.9721 51.855 58.3962 50.5455 58.6313C50.5251 58.6343 50.506 58.6361 50.4875 58.6361Z" fill="#0074C9"/>
<path d="M35.4522 44.2038C35.4337 44.2038 35.4145 44.202 35.396 44.199C35.2294 44.1694 35.1208 44.016 35.151 43.8561C35.396 42.5992 35.8379 41.3879 36.4654 40.2583C37.0794 39.1531 37.86 38.1414 38.7851 37.2529C39.7101 36.3645 40.7647 35.6158 41.9161 35.0264C43.0929 34.424 44.3549 33.9999 45.6643 33.7648C45.8309 33.7352 45.9907 33.84 46.0216 33.9999C46.0525 34.1598 45.9432 34.3133 45.7766 34.3429C40.7258 35.2503 36.6968 39.1175 35.7515 43.9657C35.7262 44.1043 35.5966 44.2038 35.4522 44.2038Z" fill="#0074C9"/>
<path d="M60.7575 44.2044C60.6131 44.2044 60.4835 44.1067 60.4563 43.9645C59.511 39.1164 55.482 35.2492 50.4312 34.3417C50.2646 34.3121 50.156 34.1587 50.1862 33.9988C50.2171 33.8389 50.3769 33.7346 50.5435 33.7636C51.8529 33.9988 53.1149 34.4229 54.2917 35.0253C55.4431 35.6146 56.4971 36.3639 57.4227 37.2518C58.3484 38.1397 59.1284 39.152 59.7424 40.2572C60.3699 41.3868 60.8118 42.5981 61.0568 43.855C61.0876 44.0149 60.9784 44.1683 60.8118 44.1979C60.7945 44.2026 60.776 44.2044 60.7575 44.2044Z" fill="#0074C9"/>
</g>
<defs>
<filter id="filter0_b_233_3487" x="-13.7842" y="-13.7774" width="122.786" height="120.418" filterUnits="userSpaceOnUse" color-interpolation-filters="sRGB">
<feFlood flood-opacity="0" result="BackgroundImageFix"/>
<feGaussianBlur in="BackgroundImage" stdDeviation="7.14258"/>
<feComposite in2="SourceAlpha" operator="in" result="effect1_backgroundBlur_233_3487"/>
<feBlend mode="normal" in="SourceGraphic" in2="effect1_backgroundBlur_233_3487" result="shape"/>
</filter>
<linearGradient id="paint0_linear_233_3487" x1="47.6089" y1="0.507812" x2="47.6089" y2="92.355" gradientUnits="userSpaceOnUse">
<stop stop-color="#0074C9"/>
<stop offset="0.505208" stop-color="#30A8FF"/>
<stop offset="1" stop-color="#0074C9"/>
</linearGradient>
<clipPath id="clip0_233_3487">
<rect width="27.7688" height="26.6543" fill="white" transform="translate(34.2207 32.873)"/>
</clipPath>
</defs>
</svg>
